<svg id="SvgjsSvg1024" width="100%" height="100%" xmlns="http://www.w3.org/2000/svg" version="1.1"
    xlink="http://www.w3.org/1999/xlink" xmlns:svgjs="http://svgjs.com/svgjs" preserveAspectRatio="xMidYMid meet"
    viewBox="5.0451074429247456e-8 2.384959998380509e-7 568.7979736328125 136.2727813720703" overflow="visible">
    <style type="text/css">
	.st0{fill:#a08a84;}
    </style>
    <defs id="SvgjsDefs1025"></defs>
    <g id="SvgjsG1026" transform="scale(1.2311688311688311)" opacity="1">
        <g id="SvgjsG1027"
            transform="translate(-0.5662637620495613, -8.607209183153332) scale(0.151003669879883)"
            light-content="false" non-strokable="false" fill-rule="evenodd" clip-rule="evenodd">
            <path class="st0"
                d="M6 681L358 65c4-6 7-8 14-8h100c6 0 10 2 13 8l356 616c2 4 2 9 0 13l-50 87c-3 5-7 9-13 9H69c-5 0-10-3-12-7L6 694c-3-3-3-10 0-13zm134-7l35-61h391l35 61H140zm485 27c10 0 17-11 12-20L437 336l36-61 282 488H76l-35-62h584zM379 84L41 674h68L449 84h-70zm94 14L191 586h71l199-345c5-10 19-9 24 0l293 508 35-61L473 98zM293 586h257L422 363 293 586z">
            </path>
        </g>
        <g id="SvgjsG1028" class="text" transform="translate(307.4283340207136, 55.21002125300956) scale(1)"
            light-content="false">
            <path class="st0"
                d="M-144.91 -28.41L-144.91 0L-135.25 0L-135.25 -28.41L-125.6 -28.41L-125.6 -36.5L-154.57 -36.5L-154.57 -28.41Z M-118.82 -36.5L-118.82 0L-109.16 0L-109.16 -36.5Z M-99.68 -36.5L-99.68 0L-91.04 0L-91.04 -10.78C-91.04 -12.17 -91.15 -13.95 -91.37 -16.14C-91.6 -18.33 -91.84 -20.36 -92.1 -22.24L-92.27 -23.81L-92.05 -23.81L-89.13 -15.05L-84.63 -2.98L-79.47 -2.98L-74.98 -15.05L-71.94 -23.81L-71.72 -23.81L-71.89 -22.24C-72.15 -20.36 -72.39 -18.33 -72.62 -16.14C-72.84 -13.95 -72.95 -12.17 -72.95 -10.78L-72.95 0L-64.2 0L-64.2 -36.5L-74.53 -36.5L-79.81 -21.56C-80.07 -20.81 -80.42 -19.65 -80.87 -18.08L-81.71 -15.16L-81.94 -15.16L-82.78 -18.08C-83.23 -19.65 -83.59 -20.81 -83.85 -21.56L-89.35 -36.5Z M-42.21 -40.99L-31.54 -32.12L-26.83 -36.84L-35.7 -47.39Z M-40.71 -36.5L-40.71 0L-26.45 0C-22.25 0 -18.81 -0.9 -16.12 -2.7C-13.42 -4.49 -12.07 -7.19 -12.07 -10.78C-12.07 -13.06 -12.65 -14.92 -13.81 -16.34C-14.97 -17.76 -16.49 -18.75 -18.36 -19.32L-18.36 -19.54C-17.01 -20.1 -15.91 -21.14 -15.05 -22.66C-14.19 -24.17 -13.76 -25.75 -13.76 -27.4C-13.76 -30.73 -14.99 -33.08 -17.46 -34.45C-19.93 -35.82 -23.3 -36.5 -27.57 -36.5ZM-27.79 -22.24L-31.05 -22.24L-31.05 -29.09L-27.79 -29.09C-26.22 -29.09 -25.06 -28.84 -24.31 -28.36C-23.56 -27.87 -23.19 -27.06 -23.19 -25.94C-23.19 -24.78 -23.57 -23.87 -24.34 -23.22C-25.11 -22.56 -26.26 -22.24 -27.79 -22.24ZM-27.12 -7.41L-31.05 -7.41L-31.05 -15.16L-27.12 -15.16C-25.17 -15.16 -23.75 -14.87 -22.85 -14.29C-21.96 -13.71 -21.51 -12.77 -21.51 -11.45C-21.51 -8.76 -23.38 -7.41 -27.12 -7.41Z M14.7 0L25.48 0L17.56 -14.15C19.4 -15.16 20.84 -16.55 21.89 -18.31C22.93 -20.06 23.46 -22.2 23.46 -24.71C23.46 -28.94 22.12 -31.96 19.44 -33.78C16.77 -35.59 13.24 -36.5 8.86 -36.5L-4.96 -36.5L-4.96 0L4.7 0L4.7 -12.24L8.41 -12.24ZM4.7 -19.88L4.7 -28.86L8.18 -28.86C10.17 -28.86 11.64 -28.55 12.59 -27.94C13.55 -27.32 14.02 -26.24 14.02 -24.71C14.02 -23.13 13.53 -21.94 12.54 -21.11C11.54 -20.29 10.09 -19.88 8.18 -19.88Z M31.81 -36.5L31.81 0L41.47 0L41.47 -36.5Z M58.38 -1.43C61.17 -0.03 64.31 0.67 67.79 0.67C70.26 0.67 72.6 0.25 74.81 -0.59C77.02 -1.43 78.79 -2.51 80.14 -3.82L80.14 -21.23L66.22 -21.23L66.22 -13.36L71.61 -13.36L71.61 -8.31C70.93 -7.86 70 -7.64 68.8 -7.64C65.58 -7.64 63.18 -8.54 61.61 -10.36C60.04 -12.18 59.25 -14.82 59.25 -18.31C59.25 -21.56 60.06 -24.14 61.67 -26.03C63.28 -27.92 65.36 -28.86 67.9 -28.86C69.25 -28.86 70.42 -28.64 71.41 -28.19C72.4 -27.74 73.4 -27.06 74.41 -26.17L79.47 -32.34C78.05 -33.77 76.33 -34.93 74.33 -35.82C72.33 -36.72 70.07 -37.17 67.56 -37.17C64.27 -37.17 61.24 -36.4 58.47 -34.87C55.7 -33.34 53.49 -31.12 51.84 -28.22C50.19 -25.31 49.37 -21.9 49.37 -17.97C49.37 -13.96 50.18 -10.56 51.79 -7.75C53.4 -4.94 55.59 -2.84 58.38 -1.43Z M88.61 -36.5L88.61 0L98.26 0L98.26 -14.49L109.16 -14.49L109.16 0L118.82 0L118.82 -36.5L109.16 -36.5L109.16 -22.91L98.26 -22.91L98.26 -36.5Z M135.25 -28.41L135.25 0L144.91 0L144.91 -28.41L154.57 -28.41L154.57 -36.5L125.6 -36.5L125.6 -28.41Z">
            </path>
        </g>
        <g id="SvgjsG1029" class="text" transform="translate(307.4183242550886, 96.52449739244821) scale(1)"
            light-content="false">
            <path class="st0"
                d="M-150.71 -0.13C-150.02 0.18 -149.35 0.34 -148.72 0.34C-147.67 0.34 -146.7 0.04 -145.8 -0.55C-144.9 -1.14 -144.18 -1.99 -143.64 -3.1C-143.09 -4.22 -142.82 -5.52 -142.82 -7.02C-142.82 -9.15 -143.28 -10.84 -144.21 -12.09C-145.14 -13.33 -146.47 -13.95 -148.21 -13.95C-149.62 -13.95 -151.08 -13.3 -152.59 -11.99L-152.54 -14.49L-152.54 -20.05L-154.56 -20.05L-154.56 0L-152.93 0L-152.73 -1.4L-152.65 -1.4C-152.05 -0.86 -151.4 -0.44 -150.71 -0.13ZM-146.93 -2.09C-147.56 -1.63 -148.27 -1.4 -149.05 -1.4C-149.56 -1.4 -150.12 -1.53 -150.72 -1.77C-151.33 -2.01 -151.94 -2.39 -152.54 -2.89L-152.54 -10.25C-151.13 -11.56 -149.85 -12.21 -148.69 -12.21C-147.4 -12.21 -146.45 -11.75 -145.84 -10.82C-145.23 -9.9 -144.93 -8.62 -144.93 -6.99C-144.93 -5.87 -145.1 -4.89 -145.46 -4.04C-145.82 -3.2 -146.31 -2.55 -146.93 -2.09Z M-139.09 -13.62L-139.09 0L-137.07 0L-137.07 -13.62ZM-139.06 -16.93C-138.8 -16.67 -138.46 -16.54 -138.05 -16.54C-137.64 -16.54 -137.3 -16.67 -137.04 -16.93C-136.78 -17.19 -136.64 -17.54 -136.64 -17.97C-136.64 -18.38 -136.78 -18.71 -137.04 -18.97C-137.3 -19.22 -137.64 -19.34 -138.05 -19.34C-138.46 -19.34 -138.8 -19.22 -139.06 -18.97C-139.32 -18.71 -139.45 -18.38 -139.45 -17.97C-139.45 -17.54 -139.32 -17.19 -139.06 -16.93Z M-131.83 5.36C-130.81 6.02 -129.45 6.35 -127.74 6.35C-126.42 6.35 -125.24 6.13 -124.21 5.7C-123.18 5.27 -122.38 4.69 -121.82 3.97C-121.26 3.25 -120.98 2.48 -120.98 1.66C-120.98 0.55 -121.36 -0.26 -122.13 -0.79C-122.9 -1.31 -124.08 -1.57 -125.67 -1.57L-128.39 -1.57C-129.27 -1.57 -129.89 -1.71 -130.26 -1.98C-130.62 -2.25 -130.8 -2.63 -130.8 -3.12C-130.8 -3.49 -130.73 -3.8 -130.57 -4.06C-130.41 -4.31 -130.18 -4.56 -129.88 -4.8C-129.24 -4.48 -128.55 -4.32 -127.8 -4.32C-126.88 -4.32 -126.05 -4.52 -125.3 -4.91C-124.55 -5.31 -123.96 -5.86 -123.53 -6.58C-123.1 -7.3 -122.89 -8.13 -122.89 -9.07C-122.89 -9.65 -123 -10.2 -123.22 -10.72C-123.45 -11.25 -123.74 -11.68 -124.09 -12.02L-121.2 -12.02L-121.2 -13.62L-125.92 -13.62C-126.56 -13.84 -127.18 -13.95 -127.8 -13.95C-128.72 -13.95 -129.56 -13.75 -130.33 -13.35C-131.09 -12.95 -131.7 -12.38 -132.15 -11.64C-132.6 -10.9 -132.83 -10.05 -132.83 -9.1C-132.83 -8.33 -132.66 -7.63 -132.32 -6.99C-131.98 -6.35 -131.57 -5.84 -131.09 -5.45L-131.09 -5.33C-131.5 -5.05 -131.85 -4.69 -132.14 -4.25C-132.43 -3.81 -132.57 -3.33 -132.57 -2.81C-132.57 -2.3 -132.46 -1.86 -132.24 -1.49C-132.01 -1.11 -131.72 -0.81 -131.37 -0.59L-131.37 -0.48C-132 -0.05 -132.49 0.44 -132.84 0.98C-133.19 1.53 -133.36 2.09 -133.36 2.67C-133.36 3.81 -132.85 4.71 -131.83 5.36ZM-125.65 -6.67C-126.24 -6.04 -126.96 -5.73 -127.8 -5.73C-128.66 -5.73 -129.39 -6.04 -129.98 -6.67C-130.57 -7.3 -130.86 -8.1 -130.86 -9.1C-130.86 -10.11 -130.57 -10.92 -129.98 -11.53C-129.39 -12.13 -128.66 -12.44 -127.8 -12.44C-126.94 -12.44 -126.22 -12.13 -125.64 -11.53C-125.06 -10.92 -124.77 -10.11 -124.77 -9.1C-124.77 -8.1 -125.06 -7.3 -125.65 -6.67ZM-125.15 4.48C-125.83 4.75 -126.6 4.89 -127.46 4.89C-128.74 4.89 -129.74 4.66 -130.47 4.21C-131.2 3.76 -131.56 3.15 -131.56 2.39C-131.56 1.45 -131.07 0.64 -130.07 -0.06C-129.49 0.09 -128.91 0.17 -128.33 0.17L-125.84 0.17C-124.88 0.17 -124.17 0.3 -123.7 0.58C-123.23 0.85 -123 1.3 -123 1.94C-123 2.44 -123.19 2.92 -123.56 3.38C-123.94 3.84 -124.46 4.21 -125.15 4.48Z M-108.79 -0.13C-108.1 0.18 -107.44 0.34 -106.8 0.34C-105.75 0.34 -104.78 0.04 -103.88 -0.55C-102.98 -1.14 -102.26 -1.99 -101.72 -3.1C-101.18 -4.22 -100.9 -5.52 -100.9 -7.02C-100.9 -9.15 -101.37 -10.84 -102.29 -12.09C-103.22 -13.33 -104.55 -13.95 -106.29 -13.95C-107.7 -13.95 -109.16 -13.3 -110.67 -11.99L-110.62 -14.49L-110.62 -20.05L-112.64 -20.05L-112.64 0L-111.01 0L-110.81 -1.4L-110.73 -1.4C-110.13 -0.86 -109.49 -0.44 -108.79 -0.13ZM-105.02 -2.09C-105.64 -1.63 -106.35 -1.4 -107.14 -1.4C-107.64 -1.4 -108.2 -1.53 -108.81 -1.77C-109.42 -2.01 -110.02 -2.39 -110.62 -2.89L-110.62 -10.25C-109.21 -11.56 -107.93 -12.21 -106.77 -12.21C-105.48 -12.21 -104.53 -11.75 -103.92 -10.82C-103.31 -9.9 -103.01 -8.62 -103.01 -6.99C-103.01 -5.87 -103.19 -4.89 -103.54 -4.04C-103.9 -3.2 -104.39 -2.55 -105.02 -2.09Z M-97.17 -13.62L-97.17 0L-95.15 0L-95.15 -8.87C-94.7 -9.98 -94.16 -10.79 -93.53 -11.31C-92.91 -11.84 -92.28 -12.1 -91.64 -12.1C-91.26 -12.1 -90.83 -12.03 -90.35 -11.88L-89.95 -13.67C-90.35 -13.86 -90.82 -13.95 -91.36 -13.95C-92.13 -13.95 -92.85 -13.7 -93.52 -13.2C-94.19 -12.69 -94.76 -12 -95.23 -11.12L-95.32 -11.12L-95.49 -13.62Z M-85.83 -0.52C-84.87 0.05 -83.83 0.34 -82.71 0.34C-81.59 0.34 -80.55 0.05 -79.59 -0.52C-78.64 -1.09 -77.88 -1.91 -77.31 -2.99C-76.74 -4.07 -76.45 -5.33 -76.45 -6.79C-76.45 -8.25 -76.74 -9.53 -77.31 -10.61C-77.88 -11.7 -78.64 -12.53 -79.59 -13.1C-80.55 -13.67 -81.59 -13.95 -82.71 -13.95C-83.83 -13.95 -84.87 -13.67 -85.83 -13.1C-86.78 -12.53 -87.54 -11.7 -88.12 -10.61C-88.69 -9.53 -88.97 -8.25 -88.97 -6.79C-88.97 -5.33 -88.69 -4.07 -88.12 -2.99C-87.54 -1.91 -86.78 -1.09 -85.83 -0.52ZM-80.56 -2.05C-81.19 -1.6 -81.91 -1.38 -82.71 -1.38C-83.93 -1.38 -84.92 -1.87 -85.69 -2.86C-86.45 -3.86 -86.84 -5.17 -86.84 -6.79C-86.84 -7.86 -86.67 -8.81 -86.32 -9.63C-85.97 -10.45 -85.49 -11.09 -84.86 -11.55C-84.23 -12.01 -83.52 -12.24 -82.71 -12.24C-81.91 -12.24 -81.19 -12.01 -80.56 -11.55C-79.94 -11.09 -79.44 -10.45 -79.09 -9.63C-78.73 -8.81 -78.56 -7.86 -78.56 -6.79C-78.56 -5.73 -78.73 -4.78 -79.09 -3.96C-79.44 -3.14 -79.94 -2.5 -80.56 -2.05Z M-71.96 -0.81C-71.38 -0.05 -70.41 0.34 -69.07 0.34C-68.45 0.34 -67.63 0.17 -66.62 -0.17L-67.04 -1.71C-67.7 -1.47 -68.22 -1.35 -68.62 -1.35C-69.4 -1.35 -69.96 -1.57 -70.29 -2.02C-70.62 -2.47 -70.78 -3.14 -70.78 -4.04L-70.78 -11.93L-67.04 -11.93L-67.04 -13.62L-70.78 -13.62L-70.78 -17.46L-72.49 -17.46L-72.74 -13.62L-74.88 -13.48L-74.88 -11.93L-72.83 -11.93L-72.83 -4.1C-72.83 -2.68 -72.54 -1.58 -71.96 -0.81Z M-63.9 -20.05L-63.9 0L-61.88 0L-61.88 -9.97C-61.11 -10.73 -60.44 -11.29 -59.86 -11.64C-59.28 -11.98 -58.65 -12.16 -57.98 -12.16C-57.02 -12.16 -56.33 -11.86 -55.91 -11.26C-55.49 -10.66 -55.28 -9.7 -55.28 -8.39L-55.28 0L-53.23 0L-53.23 -8.65C-53.23 -10.41 -53.57 -11.73 -54.24 -12.62C-54.92 -13.51 -55.96 -13.95 -57.39 -13.95C-58.25 -13.95 -59.03 -13.75 -59.75 -13.35C-60.46 -12.95 -61.19 -12.37 -61.94 -11.62L-61.88 -14.49L-61.88 -20.05Z M-38.44 -6.35C-38.38 -6.68 -38.35 -7.09 -38.35 -7.58C-38.35 -9.56 -38.82 -11.12 -39.77 -12.26C-40.71 -13.39 -42.03 -13.95 -43.71 -13.95C-44.76 -13.95 -45.75 -13.66 -46.69 -13.07C-47.63 -12.48 -48.38 -11.64 -48.95 -10.56C-49.52 -9.47 -49.81 -8.22 -49.81 -6.79C-49.81 -5.35 -49.52 -4.09 -48.95 -3C-48.38 -1.92 -47.6 -1.09 -46.62 -0.52C-45.64 0.05 -44.55 0.34 -43.35 0.34C-42.47 0.34 -41.67 0.21 -40.96 -0.04C-40.25 -0.29 -39.56 -0.64 -38.88 -1.07L-39.64 -2.41C-40.75 -1.68 -41.9 -1.32 -43.1 -1.32C-44.39 -1.32 -45.48 -1.76 -46.37 -2.64C-47.26 -3.52 -47.75 -4.75 -47.84 -6.35ZM-40.18 -7.83L-47.78 -7.83C-47.64 -9.27 -47.17 -10.38 -46.38 -11.15C-45.59 -11.91 -44.7 -12.3 -43.69 -12.3C-42.58 -12.3 -41.72 -11.91 -41.1 -11.15C-40.49 -10.38 -40.18 -9.27 -40.18 -7.83Z M-34.93 -13.62L-34.93 0L-32.9 0L-32.9 -8.87C-32.46 -9.98 -31.92 -10.79 -31.29 -11.31C-30.66 -11.84 -30.03 -12.1 -29.4 -12.1C-29.02 -12.1 -28.59 -12.03 -28.1 -11.88L-27.71 -13.67C-28.1 -13.86 -28.57 -13.95 -29.11 -13.95C-29.88 -13.95 -30.6 -13.7 -31.28 -13.2C-31.95 -12.69 -32.52 -12 -32.99 -11.12L-33.07 -11.12L-33.24 -13.62Z M-19.77 -13.62L-19.77 0L-17.74 0L-17.74 -13.62ZM-19.74 -16.93C-19.48 -16.67 -19.14 -16.54 -18.73 -16.54C-18.31 -16.54 -17.98 -16.67 -17.72 -16.93C-17.45 -17.19 -17.32 -17.54 -17.32 -17.97C-17.32 -18.38 -17.45 -18.71 -17.72 -18.97C-17.98 -19.22 -18.31 -19.34 -18.73 -19.34C-19.14 -19.34 -19.48 -19.22 -19.74 -18.97C-20 -18.71 -20.13 -18.38 -20.13 -17.97C-20.13 -17.54 -20 -17.19 -19.74 -16.93Z M-12.21 -0.18C-11.33 0.16 -10.43 0.34 -9.49 0.34C-8.48 0.34 -7.6 0.16 -6.86 -0.2C-6.13 -0.55 -5.56 -1.03 -5.18 -1.64C-4.8 -2.25 -4.6 -2.92 -4.6 -3.65C-4.6 -4.45 -4.8 -5.11 -5.19 -5.63C-5.59 -6.14 -6.05 -6.54 -6.6 -6.82C-7.14 -7.1 -7.89 -7.42 -8.84 -7.78C-9.56 -8.06 -10.11 -8.29 -10.5 -8.46C-10.89 -8.64 -11.23 -8.88 -11.5 -9.18C-11.77 -9.48 -11.9 -9.84 -11.9 -10.25C-11.9 -10.83 -11.68 -11.32 -11.23 -11.72C-10.78 -12.12 -10.13 -12.33 -9.26 -12.33C-8.68 -12.33 -8.15 -12.22 -7.66 -12.02C-7.18 -11.81 -6.66 -11.51 -6.12 -11.12L-5.14 -12.44C-5.7 -12.89 -6.34 -13.25 -7.05 -13.53C-7.76 -13.81 -8.5 -13.95 -9.26 -13.95C-10.69 -13.95 -11.82 -13.59 -12.65 -12.87C-13.48 -12.15 -13.9 -11.24 -13.9 -10.14C-13.9 -9.11 -13.53 -8.32 -12.8 -7.76C-12.07 -7.21 -11.06 -6.7 -9.77 -6.23C-8.76 -5.88 -7.98 -5.5 -7.43 -5.11C-6.87 -4.72 -6.6 -4.19 -6.6 -3.54C-6.6 -2.88 -6.84 -2.34 -7.33 -1.91C-7.81 -1.48 -8.51 -1.26 -9.41 -1.26C-10.19 -1.26 -10.9 -1.4 -11.54 -1.68C-12.18 -1.97 -12.83 -2.38 -13.5 -2.92L-14.54 -1.54C-13.87 -0.98 -13.09 -0.53 -12.21 -0.18Z M2.61 -13.62L6.46 0L8.84 0L10.87 -7.55C11.11 -8.34 11.44 -9.66 11.85 -11.51L11.96 -11.51C12.18 -10.54 12.32 -9.98 12.35 -9.83L12.89 -7.61L14.96 0L17.49 0L21.2 -13.62L19.23 -13.62L17.15 -5.5L16.26 -1.74L16.14 -1.74L15.19 -5.5L12.97 -13.62L10.92 -13.62L8.73 -5.5C8.45 -4.45 8.13 -3.2 7.78 -1.74L7.66 -1.74C7.55 -2.32 7.37 -3.17 7.1 -4.3L6.85 -5.5L4.72 -13.62Z M24.2 -0.67C24.95 0 25.9 0.34 27.06 0.34C28.51 0.34 30.03 -0.33 31.64 -1.66L31.73 -1.66L31.89 0L33.58 0L33.58 -8.42C33.58 -10.14 33.2 -11.5 32.46 -12.48C31.71 -13.46 30.55 -13.95 28.97 -13.95C27.25 -13.95 25.49 -13.35 23.7 -12.16L24.51 -10.75C25.97 -11.75 27.35 -12.24 28.64 -12.24C29.7 -12.24 30.46 -11.9 30.9 -11.22C31.34 -10.53 31.56 -9.66 31.56 -8.59C28.6 -8.27 26.45 -7.72 25.1 -6.92C23.75 -6.13 23.08 -4.99 23.08 -3.51C23.08 -2.29 23.45 -1.35 24.2 -0.67ZM29.52 -1.78C28.89 -1.47 28.25 -1.32 27.6 -1.32C26.87 -1.32 26.27 -1.51 25.8 -1.9C25.33 -2.28 25.1 -2.85 25.1 -3.62C25.1 -4.58 25.59 -5.34 26.57 -5.92C27.56 -6.5 29.22 -6.93 31.56 -7.22L31.56 -3.23C30.83 -2.57 30.15 -2.09 29.52 -1.78Z M38.91 -0.81C39.49 -0.05 40.46 0.34 41.8 0.34C42.42 0.34 43.24 0.17 44.25 -0.17L43.83 -1.71C43.17 -1.47 42.65 -1.35 42.25 -1.35C41.47 -1.35 40.91 -1.57 40.58 -2.02C40.26 -2.47 40.09 -3.14 40.09 -4.04L40.09 -11.93L43.83 -11.93L43.83 -13.62L40.09 -13.62L40.09 -17.46L38.38 -17.46L38.13 -13.62L35.99 -13.48L35.99 -11.93L38.04 -11.93L38.04 -4.1C38.04 -2.68 38.33 -1.58 38.91 -0.81Z M48.64 -0.52C49.61 0.05 50.69 0.34 51.88 0.34C52.69 0.34 53.47 0.18 54.21 -0.13C54.96 -0.44 55.65 -0.86 56.26 -1.4L55.37 -2.78C54.34 -1.84 53.23 -1.38 52.05 -1.38C50.74 -1.38 49.68 -1.87 48.88 -2.86C48.07 -3.86 47.67 -5.17 47.67 -6.79C47.67 -7.86 47.86 -8.81 48.25 -9.63C48.63 -10.45 49.16 -11.09 49.83 -11.55C50.51 -12.01 51.27 -12.24 52.11 -12.24C52.63 -12.24 53.12 -12.13 53.57 -11.92C54.02 -11.7 54.47 -11.39 54.92 -10.98L55.98 -12.33C54.82 -13.41 53.5 -13.95 52.02 -13.95C50.86 -13.95 49.79 -13.67 48.8 -13.1C47.8 -12.53 47.01 -11.7 46.42 -10.61C45.83 -9.53 45.54 -8.25 45.54 -6.79C45.54 -5.32 45.81 -4.04 46.37 -2.98C46.92 -1.91 47.68 -1.09 48.64 -0.52Z M59.35 -20.05L59.35 0L61.37 0L61.37 -9.97C62.14 -10.73 62.81 -11.29 63.39 -11.64C63.98 -11.98 64.6 -12.16 65.28 -12.16C66.23 -12.16 66.92 -11.86 67.34 -11.26C67.76 -10.66 67.97 -9.7 67.97 -8.39L67.97 0L70.02 0L70.02 -8.65C70.02 -10.41 69.68 -11.73 69.01 -12.62C68.34 -13.51 67.29 -13.95 65.87 -13.95C65 -13.95 64.22 -13.75 63.51 -13.35C62.8 -12.95 62.07 -12.37 61.32 -11.62L61.37 -14.49L61.37 -20.05Z M74.51 -13.62L74.51 0L76.53 0L76.53 -13.62ZM74.54 -16.93C74.8 -16.67 75.14 -16.54 75.55 -16.54C75.96 -16.54 76.3 -16.67 76.56 -16.93C76.82 -17.19 76.96 -17.54 76.96 -17.97C76.96 -18.38 76.82 -18.71 76.56 -18.97C76.3 -19.22 75.96 -19.34 75.55 -19.34C75.14 -19.34 74.8 -19.22 74.54 -18.97C74.28 -18.71 74.15 -18.38 74.15 -17.97C74.15 -17.54 74.28 -17.19 74.54 -16.93Z M81.31 -13.62L81.31 0L83.33 0L83.33 -9.97C84.1 -10.73 84.77 -11.29 85.35 -11.64C85.93 -11.98 86.56 -12.16 87.23 -12.16C88.19 -12.16 88.87 -11.86 89.29 -11.26C89.72 -10.66 89.93 -9.7 89.93 -8.39L89.93 0L91.98 0L91.98 -8.65C91.98 -10.41 91.64 -11.73 90.97 -12.62C90.29 -13.51 89.24 -13.95 87.82 -13.95C86.96 -13.95 86.17 -13.75 85.45 -13.34C84.73 -12.92 83.99 -12.34 83.24 -11.6L83.16 -11.6L82.99 -13.62Z M97.02 5.36C98.04 6.02 99.4 6.35 101.1 6.35C102.43 6.35 103.61 6.13 104.64 5.7C105.67 5.27 106.46 4.69 107.02 3.97C107.59 3.25 107.87 2.48 107.87 1.66C107.87 0.55 107.48 -0.26 106.72 -0.79C105.95 -1.31 104.77 -1.57 103.18 -1.57L100.45 -1.57C99.58 -1.57 98.95 -1.71 98.59 -1.98C98.22 -2.25 98.04 -2.63 98.04 -3.12C98.04 -3.49 98.12 -3.8 98.28 -4.06C98.44 -4.31 98.67 -4.56 98.97 -4.8C99.6 -4.48 100.3 -4.32 101.04 -4.32C101.96 -4.32 102.79 -4.52 103.54 -4.91C104.29 -5.31 104.88 -5.86 105.31 -6.58C105.74 -7.3 105.96 -8.13 105.96 -9.07C105.96 -9.65 105.85 -10.2 105.62 -10.72C105.4 -11.25 105.11 -11.68 104.75 -12.02L107.64 -12.02L107.64 -13.62L102.93 -13.62C102.29 -13.84 101.66 -13.95 101.04 -13.95C100.13 -13.95 99.29 -13.75 98.52 -13.35C97.75 -12.95 97.14 -12.38 96.69 -11.64C96.24 -10.9 96.02 -10.05 96.02 -9.1C96.02 -8.33 96.19 -7.63 96.52 -6.99C96.86 -6.35 97.27 -5.84 97.76 -5.45L97.76 -5.33C97.35 -5.05 97 -4.69 96.71 -4.25C96.42 -3.81 96.27 -3.33 96.27 -2.81C96.27 -2.3 96.38 -1.86 96.61 -1.49C96.83 -1.11 97.12 -0.81 97.48 -0.59L97.48 -0.48C96.84 -0.05 96.35 0.44 96 0.98C95.66 1.53 95.49 2.09 95.49 2.67C95.49 3.81 96 4.71 97.02 5.36ZM103.19 -6.67C102.6 -6.04 101.89 -5.73 101.04 -5.73C100.18 -5.73 99.46 -6.04 98.87 -6.67C98.28 -7.3 97.98 -8.1 97.98 -9.1C97.98 -10.11 98.28 -10.92 98.87 -11.53C99.46 -12.13 100.18 -12.44 101.04 -12.44C101.91 -12.44 102.63 -12.13 103.21 -11.53C103.79 -10.92 104.08 -10.11 104.08 -9.1C104.08 -8.1 103.78 -7.3 103.19 -6.67ZM103.7 4.48C103.01 4.75 102.24 4.89 101.38 4.89C100.11 4.89 99.11 4.66 98.38 4.21C97.65 3.76 97.28 3.15 97.28 2.39C97.28 1.45 97.78 0.64 98.77 -0.06C99.35 0.09 99.93 0.17 100.51 0.17L103.01 0.17C103.96 0.17 104.68 0.3 105.14 0.58C105.61 0.85 105.85 1.3 105.85 1.94C105.85 2.44 105.66 2.92 105.28 3.38C104.91 3.84 104.38 4.21 103.7 4.48Z M114.69 5.67C115.16 5.86 115.67 5.95 116.23 5.95C117.47 5.95 118.47 5.54 119.25 4.7C120.03 3.87 120.68 2.72 121.2 1.26L126.37 -13.62L124.38 -13.62L121.82 -5.81L121.46 -4.58C121.17 -3.64 120.9 -2.78 120.64 -1.99L120.53 -1.99L119.18 -5.81L116.26 -13.62L114.16 -13.62L119.66 0.08L119.32 1.12C119 2.08 118.58 2.84 118.06 3.4C117.53 3.96 116.9 4.24 116.15 4.24C115.81 4.24 115.46 4.16 115.08 4.01Z M131.09 -0.52C132.04 0.05 133.08 0.34 134.2 0.34C135.32 0.34 136.36 0.05 137.32 -0.52C138.27 -1.09 139.04 -1.91 139.61 -2.99C140.18 -4.07 140.46 -5.33 140.46 -6.79C140.46 -8.25 140.18 -9.53 139.61 -10.61C139.04 -11.7 138.27 -12.53 137.32 -13.1C136.36 -13.67 135.32 -13.95 134.2 -13.95C133.08 -13.95 132.04 -13.67 131.09 -13.1C130.13 -12.53 129.37 -11.7 128.8 -10.61C128.23 -9.53 127.94 -8.25 127.94 -6.79C127.94 -5.33 128.23 -4.07 128.8 -2.99C129.37 -1.91 130.13 -1.09 131.09 -0.52ZM136.35 -2.05C135.72 -1.6 135.01 -1.38 134.2 -1.38C132.99 -1.38 131.99 -1.87 131.23 -2.86C130.46 -3.86 130.07 -5.17 130.07 -6.79C130.07 -7.86 130.25 -8.81 130.59 -9.63C130.94 -10.45 131.43 -11.09 132.05 -11.55C132.68 -12.01 133.4 -12.24 134.2 -12.24C135.01 -12.24 135.72 -12.01 136.35 -11.55C136.98 -11.09 137.47 -10.45 137.82 -9.63C138.18 -8.81 138.36 -7.86 138.36 -6.79C138.36 -5.73 138.18 -4.78 137.82 -3.96C137.47 -3.14 136.98 -2.5 136.35 -2.05Z M144.98 -1C145.66 -0.11 146.7 0.34 148.1 0.34C148.98 0.34 149.78 0.12 150.5 -0.31C151.22 -0.74 151.93 -1.36 152.62 -2.16L152.7 -2.16L152.87 0L154.58 0L154.58 -13.62L152.54 -13.62L152.54 -3.85C151.82 -2.99 151.18 -2.37 150.61 -1.99C150.04 -1.62 149.41 -1.43 148.72 -1.43C147.76 -1.43 147.07 -1.74 146.64 -2.34C146.21 -2.95 145.99 -3.91 145.99 -5.22L145.99 -13.62L143.97 -13.62L143.97 -4.97C143.97 -3.21 144.31 -1.89 144.98 -1Z">
            </path>
        </g>
    </g>
</svg>