<?xml version="1.0" encoding="iso-8859-1"?>
<!-- Generator: Adobe Illustrator 19.0.0, SVG Export Plug-In . SVG Version: 6.00 Build 0)  -->
<svg version="1.1" id="Layer_1" xmlns="http://www.w3.org/2000/svg" xmlns:xlink="http://www.w3.org/1999/xlink" x="0px" y="0px"
	 viewBox="0 0 512 512" style="enable-background:new 0 0 512 512;" xml:space="preserve">
<g>
	<g>
		<rect x="78.306" y="174.682" width="18.071" height="102.4"/>
	</g>
</g>
<g>
	<g>
		<rect x="78.306" y="295.153" width="18.071" height="18.071"/>
	</g>
</g>
<g>
	<g>
		<path d="M512,198.776c0-29.76-11.593-57.742-32.644-78.791c-21.05-21.051-49.031-32.644-78.791-32.644
			c-5.686,0-11.416,0.46-17.101,1.353c-22.47-27.69-55.595-43.518-91.323-43.518h-3.012V24.094c0-11.624-9.458-21.082-21.082-21.082
			h-84.329c-11.624,0-21.082,9.458-21.082,21.082v21.082h-3.012c-64.767,0-117.459,52.691-117.459,117.459v219.859H21.082
			C9.458,382.494,0,391.952,0,403.576V460.8h168.659v27.106c0,11.624,9.458,21.082,21.082,21.082h72.282
			c11.624,0,21.082-9.458,21.082-21.082V460.8h168.659v-57.224c0-11.624-9.458-21.082-21.082-21.082H409.6v-72.65
			C466.836,305.229,512,257.181,512,198.776z M380.582,107.609c6.62-1.458,13.343-2.197,19.982-2.197
			c21.898,0,42.643,7.497,59.317,21.269L328.469,258.094c-13.773-16.676-21.269-37.421-21.269-59.317
			C307.2,155.189,338.05,116.85,380.582,107.609z M180.706,24.094c0-1.632,1.379-3.012,3.012-3.012h84.329
			c1.632,0,3.012,1.379,3.012,3.012v21.082h-90.353V24.094z M60.235,162.635c0-54.803,44.586-99.388,99.388-99.388h132.518
			c27.346,0,52.89,10.96,71.599,30.394c-19.27,6.761-36.558,18.831-49.603,34.841c-16.126,19.797-25.008,44.761-25.008,70.295
			c0,29.76,11.593,57.742,32.644,78.791c18.904,18.904,43.404,30.15,69.756,32.254v72.673H60.235V162.635z M265.035,487.906
			c0,1.632-1.379,3.012-3.012,3.012h-72.282c-1.632,0-3.012-1.379-3.012-3.012V460.8h78.306V487.906z M430.682,400.565
			c1.632,0,3.012,1.379,3.012,3.012v39.153H18.071v-39.153c0-1.632,1.379-3.012,3.012-3.012H430.682z M400.565,292.141
			c-21.898,0-42.643-7.497-59.317-21.269L472.66,139.459c13.773,16.676,21.269,37.421,21.269,59.317
			C493.929,250.257,452.045,292.141,400.565,292.141z"/>
	</g>
</g>
<g>
</g>
<g>
</g>
<g>
</g>
<g>
</g>
<g>
</g>
<g>
</g>
<g>
</g>
<g>
</g>
<g>
</g>
<g>
</g>
<g>
</g>
<g>
</g>
<g>
</g>
<g>
</g>
<g>
</g>
</svg>
