<?xml version="1.0" encoding="iso-8859-1"?>
<!-- Generator: Adobe Illustrator 19.0.0, SVG Export Plug-In . SVG Version: 6.00 Build 0)  -->
<svg version="1.1" id="Layer_1" xmlns="http://www.w3.org/2000/svg" xmlns:xlink="http://www.w3.org/1999/xlink" x="0px" y="0px"
	 viewBox="0 0 512 512" style="enable-background:new 0 0 512 512;" xml:space="preserve">
<g>
	<g>
		<path d="M435.464,366.845H416.99v-192.66c0-56.755-46.173-102.928-102.928-102.928h-2.639V52.783
			c0-10.186-8.288-18.474-18.474-18.474h-73.897c-10.186,0-18.474,8.288-18.474,18.474v18.474h-2.639
			c-56.755,0-102.928,46.173-102.928,102.928v192.66H76.536c-10.186,0-18.474,8.288-18.474,18.474v50.144h147.794v23.753
			c0,10.186,8.288,18.474,18.474,18.474h63.34c10.186,0,18.474-8.288,18.474-18.474v-23.753h147.794V385.32
			C453.938,375.133,445.65,366.845,435.464,366.845z M216.412,52.783c0-1.43,1.209-2.639,2.639-2.639h73.897
			c1.43,0,2.639,1.209,2.639,2.639v18.474h-79.175V52.783z M110.845,174.186c0-48.023,39.07-87.093,87.093-87.093h116.124
			c48.022,0,87.093,39.069,87.093,87.093v192.66H110.845V174.186z M290.309,459.216c0,1.43-1.209,2.639-2.639,2.639h-63.34
			c-1.43,0-2.639-1.209-2.639-2.639v-23.753h68.619V459.216z M438.103,419.629H73.897V385.32c0-1.43,1.209-2.639,2.639-2.639
			h358.928c1.43,0,2.639,1.209,2.639,2.639V419.629z"/>
	</g>
</g>
<g>
	<g>
		<rect x="126.68" y="184.742" width="15.835" height="89.732"/>
	</g>
</g>
<g>
	<g>
		<rect x="126.68" y="290.309" width="15.835" height="15.835"/>
	</g>
</g>
<g>
	<g>
		<rect x="432.825" y="200.577" width="15.835" height="116.124"/>
	</g>
</g>
<g>
	<g>
		<rect x="464.495" y="216.412" width="15.835" height="84.454"/>
	</g>
</g>
<g>
	<g>
		<rect x="496.165" y="232.247" width="15.835" height="52.784"/>
	</g>
</g>
<g>
	<g>
		<rect x="63.34" y="200.577" width="15.835" height="116.124"/>
	</g>
</g>
<g>
	<g>
		<rect x="31.67" y="216.412" width="15.835" height="84.454"/>
	</g>
</g>
<g>
	<g>
		<rect y="232.247" width="15.835" height="52.784"/>
	</g>
</g>
<g>
</g>
<g>
</g>
<g>
</g>
<g>
</g>
<g>
</g>
<g>
</g>
<g>
</g>
<g>
</g>
<g>
</g>
<g>
</g>
<g>
</g>
<g>
</g>
<g>
</g>
<g>
</g>
<g>
</g>
</svg>
