<?xml version="1.0" encoding="iso-8859-1"?>
<!-- Generator: Adobe Illustrator 19.0.0, SVG Export Plug-In . SVG Version: 6.00 Build 0)  -->
<svg version="1.1" id="Layer_1" xmlns="http://www.w3.org/2000/svg" xmlns:xlink="http://www.w3.org/1999/xlink" x="0px" y="0px"
	 viewBox="0 0 512 512" style="enable-background:new 0 0 512 512;" xml:space="preserve">
<g>
	<g>
		<path d="M422.268,21.113v-2.639C422.268,8.288,413.98,0,403.794,0H382.68c-10.186,0-18.474,8.288-18.474,18.474v2.639h-79.175
			v-2.639C285.031,8.288,276.743,0,266.557,0h-21.113c-10.186,0-18.474,8.288-18.474,18.474v2.639h-79.175v-2.639
			C147.794,8.288,139.506,0,129.32,0h-21.113C98.02,0,89.732,8.288,89.732,18.474v2.639H0V512h512V21.113H422.268z M380.041,18.474
			c0-1.43,1.209-2.639,2.639-2.639h21.113c1.43,0,2.639,1.209,2.639,2.639V63.34h-26.392V18.474z M242.804,18.474
			c0-1.43,1.209-2.639,2.639-2.639h21.113c1.43,0,2.639,1.209,2.639,2.639V63.34h-26.392V18.474z M105.567,18.474
			c0-1.43,1.209-2.639,2.639-2.639h21.113c1.43,0,2.639,1.209,2.639,2.639V63.34h-26.392V18.474z M496.165,496.165H15.835V163.629
			h480.33V496.165z M496.165,147.794H15.835v-26.392h424.907v-15.835H15.835V36.948h73.897v42.227h58.062V36.948h79.175v42.227
			h58.062V36.948h79.175v42.227h58.062V36.948h73.897V147.794z"/>
	</g>
</g>
<g>
	<g>
		<path d="M36.948,184.742v290.309h349.011l89.092-89.092V184.742H36.948z M390.598,448.02v-57.422h57.422L390.598,448.02z
			 M459.216,374.763h-84.454v84.454H52.784V200.577h406.433V374.763z"/>
	</g>
</g>
<g>
	<g>
		<rect x="71.258" y="221.691" width="21.113" height="15.835"/>
	</g>
</g>
<g>
	<g>
		<rect x="71.258" y="422.268" width="21.113" height="15.835"/>
	</g>
</g>
<g>
	<g>
		<rect x="419.629" y="221.691" width="21.113" height="15.835"/>
	</g>
</g>
<g>
	<g>
		<path d="M256,226.969c-53.844,0-97.649,43.805-97.649,97.65c0,53.844,43.805,97.649,97.649,97.649
			c53.844,0,97.649-43.805,97.649-97.649C353.649,270.774,309.844,226.969,256,226.969z M256,406.433
			c-45.112,0-81.814-36.702-81.814-81.814c0-45.112,36.703-81.814,81.814-81.814s81.814,36.702,81.814,81.814
			C337.814,369.731,301.112,406.433,256,406.433z"/>
	</g>
</g>
<g>
	<g>
		<polygon points="303.184,287.35 240.165,350.371 214.094,324.299 202.896,335.495 240.165,372.763 314.383,298.547 		"/>
	</g>
</g>
<g>
</g>
<g>
</g>
<g>
</g>
<g>
</g>
<g>
</g>
<g>
</g>
<g>
</g>
<g>
</g>
<g>
</g>
<g>
</g>
<g>
</g>
<g>
</g>
<g>
</g>
<g>
</g>
<g>
</g>
</svg>
