<?xml version="1.0" encoding="iso-8859-1"?>
<!-- Generator: Adobe Illustrator 19.0.0, SVG Export Plug-In . SVG Version: 6.00 Build 0)  -->
<svg version="1.1" id="Layer_1" xmlns="http://www.w3.org/2000/svg" xmlns:xlink="http://www.w3.org/1999/xlink" x="0px" y="0px"
	 viewBox="0 0 512 512" style="enable-background:new 0 0 512 512;" xml:space="preserve">
<g>
	<g>
		<path d="M380.714,213.51c18.963-25.274,20.381-50.55,20.431-51.613l0.008-93.279h42.228V15.835h34.309V0H34.309v15.835h34.309
			v52.784h42.227v92.899l0.01,0.38c0.051,1.063,1.469,26.339,20.431,51.613c16.867,22.482,40.304,35.367,64.537,42.477
			c-33.252,9.813-53.009,27.138-64.537,42.502c-18.963,25.274-20.381,50.55-20.431,51.613l-0.008,93.279H68.619v52.784H34.309V512
			h443.381v-15.835h-34.309v-52.784h-42.227v-92.899l-0.01-0.38c-0.051-1.063-1.469-26.339-20.431-51.613
			c-16.867-22.482-40.304-35.367-64.537-42.477C349.428,246.199,369.186,228.875,380.714,213.51z M84.454,52.784V15.835h343.093
			v36.948H84.454z M427.546,459.216v36.948H84.454v-36.948H427.546z M367.551,307.337c15.713,20.552,17.63,41.544,17.769,43.394
			v92.65H126.68v-92.664c0.132-1.911,1.893-22.226,17.273-42.725c21.633-28.833,60.379-44.075,112.047-44.075
			C307.992,263.918,345.523,278.526,367.551,307.337z M256,248.082c-51.992,0-89.523-14.608-111.551-43.42
			c-15.713-20.552-17.63-41.544-17.769-43.394v-92.65H385.32v92.664c-0.132,1.911-1.893,22.226-17.273,42.725
			C346.414,232.842,307.668,248.082,256,248.082z"/>
	</g>
</g>
<g>
	<g>
		<rect x="150.433" y="411.711" width="21.113" height="15.835"/>
	</g>
</g>
<g>
	<g>
		<rect x="182.103" y="411.711" width="21.113" height="15.835"/>
	</g>
</g>
<g>
	<g>
		<rect x="166.268" y="380.041" width="21.113" height="15.835"/>
	</g>
</g>
<g>
	<g>
		<rect x="197.938" y="380.041" width="21.113" height="15.835"/>
	</g>
</g>
<g>
	<g>
		<rect x="292.948" y="380.041" width="21.113" height="15.835"/>
	</g>
</g>
<g>
	<g>
		<rect x="324.619" y="380.041" width="21.113" height="15.835"/>
	</g>
</g>
<g>
	<g>
		<rect x="308.784" y="348.371" width="21.113" height="15.835"/>
	</g>
</g>
<g>
	<g>
		<rect x="182.103" y="348.371" width="21.113" height="15.835"/>
	</g>
</g>
<g>
	<g>
		<rect x="245.443" y="348.371" width="21.113" height="15.835"/>
	</g>
</g>
<g>
	<g>
		<rect x="245.443" y="211.134" width="21.113" height="15.835"/>
	</g>
</g>
<g>
	<g>
		<rect x="277.113" y="211.134" width="21.113" height="15.835"/>
	</g>
</g>
<g>
	<g>
		<rect x="213.773" y="211.134" width="21.113" height="15.835"/>
	</g>
</g>
<g>
	<g>
		<rect x="229.608" y="179.464" width="21.113" height="15.835"/>
	</g>
</g>
<g>
	<g>
		<rect x="261.278" y="179.464" width="21.113" height="15.835"/>
	</g>
</g>
<g>
	<g>
		<rect x="292.948" y="179.464" width="21.113" height="15.835"/>
	</g>
</g>
<g>
	<g>
		<rect x="197.938" y="179.464" width="21.113" height="15.835"/>
	</g>
</g>
<g>
	<g>
		<rect x="245.443" y="147.794" width="21.113" height="15.835"/>
	</g>
</g>
<g>
	<g>
		<rect x="277.113" y="147.794" width="21.113" height="15.835"/>
	</g>
</g>
<g>
	<g>
		<rect x="213.773" y="147.794" width="21.113" height="15.835"/>
	</g>
</g>
<g>
	<g>
		<rect x="182.103" y="147.794" width="21.113" height="15.835"/>
	</g>
</g>
<g>
	<g>
		<rect x="308.784" y="147.794" width="21.113" height="15.835"/>
	</g>
</g>
<g>
	<g>
		<rect x="324.619" y="179.464" width="21.113" height="15.835"/>
	</g>
</g>
<g>
	<g>
		<rect x="166.268" y="179.464" width="21.113" height="15.835"/>
	</g>
</g>
<g>
	<g>
		<rect x="245.443" y="285.031" width="21.113" height="15.835"/>
	</g>
</g>
<g>
	<g>
		<rect x="245.443" y="316.701" width="21.113" height="15.835"/>
	</g>
</g>
<g>
	<g>
		<rect x="229.608" y="380.041" width="21.113" height="15.835"/>
	</g>
</g>
<g>
	<g>
		<rect x="261.278" y="380.041" width="21.113" height="15.835"/>
	</g>
</g>
<g>
	<g>
		<rect x="213.773" y="411.711" width="21.113" height="15.835"/>
	</g>
</g>
<g>
	<g>
		<rect x="245.443" y="411.711" width="21.113" height="15.835"/>
	</g>
</g>
<g>
	<g>
		<rect x="277.113" y="411.711" width="21.113" height="15.835"/>
	</g>
</g>
<g>
	<g>
		<rect x="308.784" y="411.711" width="21.113" height="15.835"/>
	</g>
</g>
<g>
	<g>
		<rect x="340.454" y="411.711" width="21.113" height="15.835"/>
	</g>
</g>
<g>
</g>
<g>
</g>
<g>
</g>
<g>
</g>
<g>
</g>
<g>
</g>
<g>
</g>
<g>
</g>
<g>
</g>
<g>
</g>
<g>
</g>
<g>
</g>
<g>
</g>
<g>
</g>
<g>
</g>
</svg>
