<?xml version="1.0" encoding="iso-8859-1"?>
<!-- Generator: Adobe Illustrator 19.0.0, SVG Export Plug-In . SVG Version: 6.00 Build 0)  -->
<svg version="1.1" id="Layer_1" xmlns="http://www.w3.org/2000/svg" xmlns:xlink="http://www.w3.org/1999/xlink" x="0px" y="0px"
	 viewBox="0 0 512 512" style="enable-background:new 0 0 512 512;" xml:space="preserve">
<g>
	<g>
		<rect x="245.443" y="348.371" width="21.113" height="15.835"/>
	</g>
</g>
<g>
	<g>
		<rect x="245.443" y="285.031" width="21.113" height="15.835"/>
	</g>
</g>
<g>
	<g>
		<rect x="245.443" y="316.701" width="21.113" height="15.835"/>
	</g>
</g>
<g>
	<g>
		<rect x="277.113" y="300.866" width="21.113" height="15.835"/>
	</g>
</g>
<g>
	<g>
		<rect x="213.773" y="300.866" width="21.113" height="15.835"/>
	</g>
</g>
<g>
	<g>
		<path d="M380.714,213.51c18.963-25.274,20.381-50.55,20.431-51.613l0.008-93.279h42.228V15.835h34.309V0H34.309v15.835h34.309
			v52.784h42.227v92.899l0.01,0.38c0.051,1.063,1.469,26.339,20.431,51.613c16.867,22.482,40.304,35.367,64.537,42.477
			c-33.252,9.813-53.009,27.138-64.537,42.502c-18.963,25.274-20.381,50.55-20.431,51.613l-0.008,93.279H68.619v52.784H34.309V512
			h443.381v-15.835h-34.309v-52.784h-42.227v-92.899l-0.01-0.38c-0.051-1.063-1.469-26.339-20.431-51.613
			c-16.867-22.482-40.304-35.367-64.537-42.477C349.428,246.199,369.186,228.875,380.714,213.51z M84.454,52.784V15.835h343.093
			v36.948H84.454z M385.32,68.619v73.649c-15.959-1.037-24.989-5.197-34.469-9.571c-12.036-5.553-24.481-11.295-49.14-11.295
			c-24.58,0-37.005,5.732-49.021,11.276c-10.965,5.06-21.322,9.838-42.505,9.838c-21.116,0-31.45-4.773-42.39-9.827
			c-10.649-4.918-21.626-9.982-41.113-11.07v-53H385.32z M427.546,459.216v36.948H84.454v-36.948H427.546z M385.321,443.381H126.68
			v-52.535c15.968,1.037,24.995,5.201,34.473,9.579c12.014,5.549,24.435,11.286,49.031,11.286c24.659,0,37.104-5.742,49.139-11.295
			c10.945-5.049,21.283-9.819,42.387-9.819c21.183,0,31.54,4.778,42.507,9.838c10.651,4.913,21.63,9.972,41.104,11.059V443.381z
			 M367.551,307.337c15.713,20.552,17.63,41.544,17.769,43.394v44.897c-15.959-1.037-24.989-5.197-34.469-9.571
			c-12.036-5.553-24.481-11.295-49.14-11.295c-24.58,0-37.005,5.732-49.021,11.276c-10.965,5.06-21.322,9.838-42.505,9.838
			c-21.116,0-31.45-4.773-42.39-9.827c-10.649-4.918-21.626-9.982-41.113-11.07v-24.261c0.132-1.911,1.893-22.226,17.273-42.725
			c21.633-28.834,60.379-44.075,112.047-44.075C307.992,263.918,345.523,278.526,367.551,307.337z M256,248.082
			c-51.992,0-89.523-14.608-111.551-43.42c-15.713-20.552-17.63-41.544-17.769-43.394v-23.783
			c15.968,1.037,24.995,5.201,34.473,9.579c12.014,5.549,24.435,11.286,49.031,11.286c24.659,0,37.104-5.742,49.139-11.295
			c10.945-5.049,21.283-9.819,42.387-9.819c21.183,0,31.54,4.778,42.507,9.838c10.651,4.913,21.63,9.972,41.104,11.059v3.148
			c-0.132,1.911-1.893,22.226-17.273,42.725C346.414,232.842,307.668,248.082,256,248.082z"/>
	</g>
</g>
<g>
</g>
<g>
</g>
<g>
</g>
<g>
</g>
<g>
</g>
<g>
</g>
<g>
</g>
<g>
</g>
<g>
</g>
<g>
</g>
<g>
</g>
<g>
</g>
<g>
</g>
<g>
</g>
<g>
</g>
</svg>
