<?xml version="1.0" encoding="iso-8859-1"?>
<!-- Generator: Adobe Illustrator 19.0.0, SVG Export Plug-In . SVG Version: 6.00 Build 0)  -->
<svg version="1.1" id="Layer_1" xmlns="http://www.w3.org/2000/svg" xmlns:xlink="http://www.w3.org/1999/xlink" x="0px" y="0px"
	 viewBox="0 0 512 512" style="enable-background:new 0 0 512 512;" xml:space="preserve">
<g>
	<g>
		<path d="M380.714,213.51c18.963-25.274,20.382-50.55,20.431-51.613l0.008-93.279h42.228V15.835h34.309V0H34.309v15.835h34.309
			v52.784h42.227v92.899l0.01,0.38c0.051,1.063,1.469,26.339,20.431,51.613c16.867,22.482,40.304,35.367,64.537,42.477
			c-33.253,9.813-53.01,27.138-64.537,42.502c-18.963,25.274-20.382,50.55-20.431,51.613l-0.008,93.279H68.619v52.784H34.309V512
			h443.381v-15.835h-34.309v-52.784h-42.227v-92.899l-0.01-0.38c-0.051-1.063-1.469-26.339-20.431-51.613
			c-16.867-22.482-40.304-35.367-64.537-42.477C349.428,246.199,369.186,228.875,380.714,213.51z M84.454,52.784V15.835h343.093
			v36.948H84.454z M427.546,459.216v36.948H84.454v-36.948H427.546z M367.551,307.337c15.714,20.552,17.629,41.544,17.769,43.394
			v92.65H126.68v-92.664c0.133-1.911,1.893-22.226,17.272-42.725c21.634-28.833,60.38-44.075,112.048-44.075
			C307.992,263.918,345.523,278.526,367.551,307.337z M256,248.082c-51.992,0-89.523-14.608-111.551-43.42
			c-15.714-20.552-17.629-41.544-17.769-43.394v-92.65H385.32v92.664c-0.133,1.911-1.893,22.226-17.272,42.725
			C346.414,232.842,307.668,248.082,256,248.082z"/>
	</g>
</g>
<g>
	<g>
		<rect x="153.072" y="87.093" width="15.835" height="52.784"/>
	</g>
</g>
<g>
	<g>
		<rect x="153.072" y="150.433" width="15.835" height="13.724"/>
	</g>
</g>
<g>
	<g>
		<rect x="343.093" y="372.124" width="15.835" height="52.784"/>
	</g>
</g>
<g>
	<g>
		<rect x="343.093" y="346.788" width="15.835" height="14.779"/>
	</g>
</g>
<g>
</g>
<g>
</g>
<g>
</g>
<g>
</g>
<g>
</g>
<g>
</g>
<g>
</g>
<g>
</g>
<g>
</g>
<g>
</g>
<g>
</g>
<g>
</g>
<g>
</g>
<g>
</g>
<g>
</g>
</svg>
