<?xml version="1.0" encoding="iso-8859-1"?>
<!-- Generator: Adobe Illustrator 19.0.0, SVG Export Plug-In . SVG Version: 6.00 Build 0)  -->
<svg xmlns="http://www.w3.org/2000/svg" xmlns:xlink="http://www.w3.org/1999/xlink" version="1.1" id="Capa_1" x="0px" y="0px" viewBox="0 0 512 512" style="enable-background:new 0 0 512 512;" xml:space="preserve">
<g>
	<g>
		<g>
			<path d="M480,256c-0.119,117.416-90.884,214.813-208,223.2V432h-32v47.2C129.072,471.15,40.85,382.928,32.8,272H80v-32H32.8     C41.187,122.884,138.584,32.119,256,32V0C114.615,0,0,114.615,0,256s114.615,256,256,256s256-114.615,256-256H480z"/>
			<path d="M240,224v32c-0.025,4.253,1.645,8.34,4.64,11.36l80,80l22.56-22.56L272,249.44V224H240z"/>
			<path d="M304,206.4c-0.336,0.951-1.231,1.59-2.24,1.6h37.28c9.165,24.875,36.76,37.61,61.635,28.445     c13.189-4.86,23.585-15.256,28.445-28.445H496c0.63-11.749-5.611-22.796-16-28.32V128c-0.047-46.808-33.846-86.759-80-94.56V16     h-32v17.44c-46.154,7.801-79.953,47.752-80,94.56v51.68c-10.388,5.524-16.63,16.571-16,28.32L304,206.4z M320,128     c0-35.346,28.654-64,64-64c35.346,0,64,28.654,64,64v48H320V128z"/>
		</g>
	</g>
</g>
<g>
</g>
<g>
</g>
<g>
</g>
<g>
</g>
<g>
</g>
<g>
</g>
<g>
</g>
<g>
</g>
<g>
</g>
<g>
</g>
<g>
</g>
<g>
</g>
<g>
</g>
<g>
</g>
<g>
</g>
</svg>
