<?xml version="1.0" encoding="iso-8859-1"?>
<!-- Generator: Adobe Illustrator 19.0.0, SVG Export Plug-In . SVG Version: 6.00 Build 0)  -->
<svg xmlns="http://www.w3.org/2000/svg" xmlns:xlink="http://www.w3.org/1999/xlink" version="1.1" id="Capa_1" x="0px" y="0px" viewBox="0 0 512 512" style="enable-background:new 0 0 512 512;" xml:space="preserve">
<g>
	<g>
		<g>
			<path d="M496,112H16c-8.837,0-16,7.163-16,16v192c0,8.837,7.163,16,16,16h20.16c5.505,10.172,16.28,16.365,27.84,16v32     c0,8.837,7.163,16,16,16h48c8.837,0,16-7.163,16-16v-32h224v32c0,8.837,7.163,16,16,16h48c8.837,0,16-7.163,16-16v-32     c11.478,0.046,22.101-6.06,27.84-16H496c8.837,0,16-7.163,16-16V128C512,119.163,504.837,112,496,112z M112,368H96v-16h16V368z      M416,368h-16v-16h16V368z M480,304H32V144h448V304z"/>
			<path d="M80,272h352c8.837,0,16-7.163,16-16v-64c0-8.837-7.163-16-16-16H80c-8.837,0-16,7.163-16,16v64     C64,264.837,71.163,272,80,272z M384,208h32v32h-32V208z M320,208h32v32h-32V208z M224,208h32v32h-32V208z M160,208h32v32h-32     V208z"/>
		</g>
	</g>
</g>
<g>
</g>
<g>
</g>
<g>
</g>
<g>
</g>
<g>
</g>
<g>
</g>
<g>
</g>
<g>
</g>
<g>
</g>
<g>
</g>
<g>
</g>
<g>
</g>
<g>
</g>
<g>
</g>
<g>
</g>
</svg>
