<?xml version="1.0" encoding="iso-8859-1"?>
<!-- Generator: Adobe Illustrator 19.0.0, SVG Export Plug-In . SVG Version: 6.00 Build 0)  -->
<svg xmlns="http://www.w3.org/2000/svg" xmlns:xlink="http://www.w3.org/1999/xlink" version="1.1" id="Capa_1" x="0px" y="0px" viewBox="0 0 512 512" style="enable-background:new 0 0 512 512;" xml:space="preserve">
<g>
	<g>
		<g>
			<rect x="64" y="64" width="32" height="32"/>
			<rect x="416" y="64" width="32" height="32"/>
			<path d="M464,0H48C21.49,0,0,21.49,0,48v416c0,26.51,21.49,48,48,48h368c4.253,0.025,8.341-1.645,11.36-4.64l80-80     c2.995-3.02,4.665-7.107,4.64-11.36V48C512,21.49,490.51,0,464,0z M480,400h-48c-17.673,0-32,14.327-32,32v48H48     c-8.837,0-16-7.163-16-16V160h448V400z M160,128V96h192v32H160z M480,128h-96V80c0-8.837-7.163-16-16-16H144     c-8.837,0-16,7.163-16,16v48H32V48c0-8.837,7.163-16,16-16h416c8.837,0,16,7.163,16,16V128z"/>
			<path d="M123.36,459.36l65.76-65.76c49.523,37.063,119.714,26.963,156.777-22.56c37.063-49.523,26.963-119.714-22.56-156.777     C273.815,177.2,203.623,187.3,166.56,236.823c-29.775,39.785-29.775,94.432,0,134.217l-65.92,65.6L123.36,459.36z M256,224     c44.183,0,80,35.817,80,80c0,44.183-35.817,80-80,80s-80-35.817-80-80C176,259.817,211.817,224,256,224z"/>
		</g>
	</g>
</g>
<g>
</g>
<g>
</g>
<g>
</g>
<g>
</g>
<g>
</g>
<g>
</g>
<g>
</g>
<g>
</g>
<g>
</g>
<g>
</g>
<g>
</g>
<g>
</g>
<g>
</g>
<g>
</g>
<g>
</g>
</svg>
