<?xml version="1.0" encoding="iso-8859-1"?>
<!-- Generator: Adobe Illustrator 19.0.0, SVG Export Plug-In . SVG Version: 6.00 Build 0)  -->
<svg xmlns="http://www.w3.org/2000/svg" xmlns:xlink="http://www.w3.org/1999/xlink" version="1.1" id="Capa_1" x="0px" y="0px" viewBox="0 0 512 512" style="enable-background:new 0 0 512 512;" xml:space="preserve">
<g>
	<g>
		<g>
			<path d="M240,414.56V448h32v-33.44c40.219-6.835,71.725-38.341,78.56-78.56H384v-32h-33.44     c-6.835-40.219-38.341-71.725-78.56-78.56V192h-32v33.44c-40.219,6.835-71.725,38.341-78.56,78.56H128v32h33.44     C168.275,376.219,199.781,407.725,240,414.56z M256,256c35.346,0,64,28.654,64,64c0,35.346-28.654,64-64,64     c-35.346,0-64-28.654-64-64C192,284.654,220.654,256,256,256z"/>
			<rect x="240" y="304" width="32" height="32"/>
			<rect x="64" y="64" width="32" height="32"/>
			<rect x="416" y="64" width="32" height="32"/>
			<path d="M464,0H48C21.49,0,0,21.49,0,48v416c0,26.51,21.49,48,48,48h368c4.253,0.025,8.341-1.645,11.36-4.64l80-80     c2.995-3.02,4.665-7.107,4.64-11.36V48C512,21.49,490.51,0,464,0z M480,400h-48c-17.673,0-32,14.327-32,32v48H48     c-8.837,0-16-7.163-16-16V160h448V400z M160,128V96h192v32H160z M480,128h-96V80c0-8.837-7.163-16-16-16H144     c-8.837,0-16,7.163-16,16v48H32V48c0-8.837,7.163-16,16-16h416c8.837,0,16,7.163,16,16V128z"/>
		</g>
	</g>
</g>
<g>
</g>
<g>
</g>
<g>
</g>
<g>
</g>
<g>
</g>
<g>
</g>
<g>
</g>
<g>
</g>
<g>
</g>
<g>
</g>
<g>
</g>
<g>
</g>
<g>
</g>
<g>
</g>
<g>
</g>
</svg>
