<?xml version="1.0" encoding="iso-8859-1"?>
<!-- Generator: Adobe Illustrator 19.0.0, SVG Export Plug-In . SVG Version: 6.00 Build 0)  -->
<svg xmlns="http://www.w3.org/2000/svg" xmlns:xlink="http://www.w3.org/1999/xlink" version="1.1" id="Capa_1" x="0px" y="0px" viewBox="0 0 512 512" style="enable-background:new 0 0 512 512;" xml:space="preserve">
<g>
	<g>
		<g>
			<path d="M464,0H48C21.49,0,0,21.49,0,48v416c0,26.51,21.49,48,48,48h416c26.51,0,48-21.49,48-48V48C512,21.49,490.51,0,464,0z      M480,464c0,8.837-7.163,16-16,16H48c-8.837,0-16-7.163-16-16V160h448V464z M160,128V96h192v32H160z M480,128h-96V80     c0-8.837-7.163-16-16-16H144c-8.837,0-16,7.163-16,16v48H32V48c0-8.837,7.163-16,16-16h416c8.837,0,16,7.163,16,16V128z"/>
			<rect x="64" y="64" width="32" height="32"/>
			<rect x="416" y="64" width="32" height="32"/>
			<path d="M384,256h32c8.837,0,16-7.163,16-16v-32c0-8.837-7.163-16-16-16h-32c-8.837,0-16,7.163-16,16v32     C368,248.837,375.163,256,384,256z"/>
			<path d="M288,256h32c8.837,0,16-7.163,16-16v-32c0-8.837-7.163-16-16-16h-32c-8.837,0-16,7.163-16,16v32     C272,248.837,279.163,256,288,256z"/>
			<path d="M192,256h32c8.837,0,16-7.163,16-16v-32c0-8.837-7.163-16-16-16h-32c-8.837,0-16,7.163-16,16v32     C176,248.837,183.163,256,192,256z"/>
			<path d="M96,352h32c8.837,0,16-7.163,16-16v-32c0-8.837-7.163-16-16-16H96c-8.837,0-16,7.163-16,16v32     C80,344.837,87.163,352,96,352z"/>
			<path d="M384,352h32c8.837,0,16-7.163,16-16v-32c0-8.837-7.163-16-16-16h-32c-8.837,0-16,7.163-16,16v32     C368,344.837,375.163,352,384,352z"/>
			<path d="M288,352h32c8.837,0,16-7.163,16-16v-32c0-8.837-7.163-16-16-16h-32c-8.837,0-16,7.163-16,16v32     C272,344.837,279.163,352,288,352z"/>
			<path d="M192,352h32c8.837,0,16-7.163,16-16v-32c0-8.837-7.163-16-16-16h-32c-8.837,0-16,7.163-16,16v32     C176,344.837,183.163,352,192,352z"/>
			<path d="M96,448h32c8.837,0,16-7.163,16-16v-32c0-8.837-7.163-16-16-16H96c-8.837,0-16,7.163-16,16v32     C80,440.837,87.163,448,96,448z"/>
			<path d="M288,448h32c8.837,0,16-7.163,16-16v-32c0-8.837-7.163-16-16-16h-32c-8.837,0-16,7.163-16,16v32     C272,440.837,279.163,448,288,448z"/>
			<path d="M192,448h32c8.837,0,16-7.163,16-16v-32c0-8.837-7.163-16-16-16h-32c-8.837,0-16,7.163-16,16v32     C176,440.837,183.163,448,192,448z"/>
		</g>
	</g>
</g>
<g>
</g>
<g>
</g>
<g>
</g>
<g>
</g>
<g>
</g>
<g>
</g>
<g>
</g>
<g>
</g>
<g>
</g>
<g>
</g>
<g>
</g>
<g>
</g>
<g>
</g>
<g>
</g>
<g>
</g>
</svg>
