<?xml version="1.0" encoding="iso-8859-1"?>
<!-- Generator: Adobe Illustrator 19.0.0, SVG Export Plug-In . SVG Version: 6.00 Build 0)  -->
<svg xmlns="http://www.w3.org/2000/svg" xmlns:xlink="http://www.w3.org/1999/xlink" version="1.1" id="Capa_1" x="0px" y="0px" viewBox="0 0 512 512" style="enable-background:new 0 0 512 512;" xml:space="preserve">
<g>
	<g>
		<g>
			<rect x="64" y="64" width="32" height="32"/>
			<rect x="416" y="64" width="32" height="32"/>
			<path d="M464,0H48C21.49,0,0,21.49,0,48v416c0,26.51,21.49,48,48,48h368c4.253,0.025,8.341-1.645,11.36-4.64l80-80     c2.995-3.02,4.665-7.107,4.64-11.36V48C512,21.49,490.51,0,464,0z M480,400h-48c-17.673,0-32,14.327-32,32v48H48     c-8.837,0-16-7.163-16-16V160h448V400z M160,128V96h192v32H160z M480,128h-96V80c0-8.837-7.163-16-16-16H144     c-8.837,0-16,7.163-16,16v48H32V48c0-8.837,7.163-16,16-16h416c8.837,0,16,7.163,16,16V128z"/>
			<path d="M336,269.92V384h32V240c-0.046-8.836-7.246-15.963-16.082-15.917c-3.1,0.016-6.129,0.932-8.718,2.637l-48,32l17.76,26.56     L336,269.92z"/>
			<path d="M176,384h48c17.673,0,32-14.327,32-32v-96c0-17.673-14.327-32-32-32h-48c-17.673,0-32,14.327-32,32v16h32v-16h48v32h-48     v32h48v32h-48v-16h-32v16C144,369.673,158.327,384,176,384z"/>
		</g>
	</g>
</g>
<g>
</g>
<g>
</g>
<g>
</g>
<g>
</g>
<g>
</g>
<g>
</g>
<g>
</g>
<g>
</g>
<g>
</g>
<g>
</g>
<g>
</g>
<g>
</g>
<g>
</g>
<g>
</g>
<g>
</g>
</svg>
