<?xml version="1.0" encoding="iso-8859-1"?>
<!-- Generator: Adobe Illustrator 19.0.0, SVG Export Plug-In . SVG Version: 6.00 Build 0)  -->
<svg xmlns="http://www.w3.org/2000/svg" xmlns:xlink="http://www.w3.org/1999/xlink" version="1.1" id="Capa_1" x="0px" y="0px" viewBox="0 0 512 512" style="enable-background:new 0 0 512 512;" xml:space="preserve">
<g>
	<g>
		<g>
			<path d="M464,0H48C21.49,0,0,21.49,0,48v416c0,26.51,21.49,48,48,48h416c26.51,0,48-21.49,48-48V48C512,21.49,490.51,0,464,0z      M480,464c0,8.837-7.163,16-16,16H48c-8.837,0-16-7.163-16-16V160h448V464z M160,128V96h192v32H160z M480,128h-96V80     c0-8.837-7.163-16-16-16H144c-8.837,0-16,7.163-16,16v48H32V48c0-8.837,7.163-16,16-16h416c8.837,0,16,7.163,16,16V128z"/>
			<rect x="64" y="64" width="32" height="32"/>
			<rect x="416" y="64" width="32" height="32"/>
			<path d="M112,256h32c8.837,0,16-7.163,16-16v-32c0-8.837-7.163-16-16-16h-32c-8.837,0-16,7.163-16,16v32     C96,248.837,103.163,256,112,256z"/>
			<path d="M112,352h32c8.837,0,16-7.163,16-16v-32c0-8.837-7.163-16-16-16h-32c-8.837,0-16,7.163-16,16v32     C96,344.837,103.163,352,112,352z"/>
			<path d="M112,448h32c8.837,0,16-7.163,16-16v-32c0-8.837-7.163-16-16-16h-32c-8.837,0-16,7.163-16,16v32     C96,440.837,103.163,448,112,448z"/>
			<rect x="192" y="208" width="160" height="32"/>
			<rect x="192" y="304" width="160" height="32"/>
			<rect x="192" y="400" width="160" height="32"/>
			<rect x="384" y="208" width="32" height="32"/>
			<rect x="384" y="304" width="32" height="32"/>
			<rect x="384" y="400" width="32" height="32"/>
		</g>
	</g>
</g>
<g>
</g>
<g>
</g>
<g>
</g>
<g>
</g>
<g>
</g>
<g>
</g>
<g>
</g>
<g>
</g>
<g>
</g>
<g>
</g>
<g>
</g>
<g>
</g>
<g>
</g>
<g>
</g>
<g>
</g>
</svg>
