<?xml version="1.0" encoding="iso-8859-1"?>
<!-- Generator: Adobe Illustrator 19.0.0, SVG Export Plug-In . SVG Version: 6.00 Build 0)  -->
<svg xmlns="http://www.w3.org/2000/svg" xmlns:xlink="http://www.w3.org/1999/xlink" version="1.1" id="Capa_1" x="0px" y="0px" viewBox="0 0 512 512" style="enable-background:new 0 0 512 512;" xml:space="preserve">
<g>
	<g>
		<g>
			<path d="M256,0C114.615,0,0,114.615,0,256s114.615,256,256,256s256-114.615,256-256S397.385,0,256,0z M272,479.2V432h-32v47.2     C129.072,471.15,40.85,382.928,32.8,272H80v-32H32.8C40.85,129.072,129.072,40.85,240,32.8V80h32V32.8     c110.928,8.05,199.15,96.272,207.2,207.2H432v32h47.2C471.15,382.928,382.928,471.15,272,479.2z"/>
			<path d="M224,160h-48c-17.673,0-32,14.327-32,32v48h32v-48h32v64h-32c-17.673,0-32,14.327-32,32v32c0,17.673,14.327,32,32,32h64     v-32h-64v-32h32c17.673,0,32-14.327,32-32v-80C240,167.163,232.837,160,224,160z"/>
			<path d="M352,160h-32v80h-32v-80h-32v96c0,8.837,7.163,16,16,16h48v80h32v-80h32v-32h-32V160z"/>
		</g>
	</g>
</g>
<g>
</g>
<g>
</g>
<g>
</g>
<g>
</g>
<g>
</g>
<g>
</g>
<g>
</g>
<g>
</g>
<g>
</g>
<g>
</g>
<g>
</g>
<g>
</g>
<g>
</g>
<g>
</g>
<g>
</g>
</svg>
