<?xml version="1.0" encoding="iso-8859-1"?>
<!-- Generator: Adobe Illustrator 19.0.0, SVG Export Plug-In . SVG Version: 6.00 Build 0)  -->
<svg xmlns="http://www.w3.org/2000/svg" xmlns:xlink="http://www.w3.org/1999/xlink" version="1.1" id="Capa_1" x="0px" y="0px" viewBox="0 0 512 512" style="enable-background:new 0 0 512 512;" xml:space="preserve">
<g>
	<g>
		<g>
			<path d="M464,0H48C21.49,0,0,21.49,0,48v416c0,26.51,21.49,48,48,48h192v-32H48c-8.837,0-16-7.163-16-16V160h448v80h32V48     C512,21.49,490.51,0,464,0z M352,128H160V96h192V128z M480,128h-96V80c0-8.837-7.163-16-16-16H144c-8.837,0-16,7.163-16,16v48H32     V48c0-8.837,7.163-16,16-16h416c8.837,0,16,7.163,16,16V128z"/>
			<rect x="64" y="64" width="32" height="32"/>
			<rect x="416" y="64" width="32" height="32"/>
			<path d="M144,208c0-8.837-7.163-16-16-16H96c-8.837,0-16,7.163-16,16v32c0,8.837,7.163,16,16,16h32c8.837,0,16-7.163,16-16V208z"/>
			<path d="M336,208c0-8.837-7.163-16-16-16h-32c-8.837,0-16,7.163-16,16v16h64V208z"/>
			<path d="M432,208c0-8.837-7.163-16-16-16h-32c-8.837,0-16,7.163-16,16v16h64V208z"/>
			<path d="M224,192h-32c-8.837,0-16,7.163-16,16v32c0,8.837,7.163,16,16,16h32c8.837,0,16-7.163,16-16v-32     C240,199.163,232.837,192,224,192z"/>
			<path d="M144,304c0-8.837-7.163-16-16-16H96c-8.837,0-16,7.163-16,16v32c0,8.837,7.163,16,16,16h32c8.837,0,16-7.163,16-16V304z"/>
			<path d="M224,288h-32c-8.837,0-16,7.163-16,16v32c0,8.837,7.163,16,16,16h32c8.837,0,16-7.163,16-16v-32     C240,295.163,232.837,288,224,288z"/>
			<path d="M128,384H96c-8.837,0-16,7.163-16,16v32c0,8.837,7.163,16,16,16h32c8.837,0,16-7.163,16-16v-32     C144,391.163,136.837,384,128,384z"/>
			<path d="M176,400v32c0,8.837,7.163,16,16,16h32v-64h-32C183.163,384,176,391.163,176,400z"/>
			<path d="M480,419.68V368c-0.047-46.808-33.846-86.759-80-94.56V256h-32v17.44c-46.154,7.801-79.953,47.752-80,94.56v51.68     c-10.388,5.524-16.63,16.571-16,28.32l32-1.6c-0.354,1.008-1.333,1.661-2.4,1.6h37.28c9.165,24.875,36.76,37.61,61.635,28.445     c13.189-4.86,23.585-15.256,28.445-28.445H496C496.63,436.251,490.389,425.204,480,419.68z M448,416H320v-48     c0-35.346,28.654-64,64-64c35.346,0,64,28.654,64,64V416z"/>
		</g>
	</g>
</g>
<g>
</g>
<g>
</g>
<g>
</g>
<g>
</g>
<g>
</g>
<g>
</g>
<g>
</g>
<g>
</g>
<g>
</g>
<g>
</g>
<g>
</g>
<g>
</g>
<g>
</g>
<g>
</g>
<g>
</g>
</svg>
