<?xml version="1.0" encoding="iso-8859-1"?>
<!-- Generator: Adobe Illustrator 19.0.0, SVG Export Plug-In . SVG Version: 6.00 Build 0)  -->
<svg xmlns="http://www.w3.org/2000/svg" xmlns:xlink="http://www.w3.org/1999/xlink" version="1.1" id="Capa_1" x="0px" y="0px" viewBox="0 0 512 512" style="enable-background:new 0 0 512 512;" xml:space="preserve">
<g>
	<g>
		<g>
			<path d="M464,0H48C21.49,0,0,21.49,0,48v416c0,26.51,21.49,48,48,48h416c26.51,0,48-21.49,48-48V48C512,21.49,490.51,0,464,0z      M480,464c0,8.837-7.163,16-16,16H48c-8.837,0-16-7.163-16-16V160h448V464z M480,128h-96V80c0-8.837-7.163-16-16-16H144     c-8.837,0-16,7.163-16,16v48H32V48c0-8.837,7.163-16,16-16h416c8.837,0,16,7.163,16,16V128z"/>
			<rect x="64" y="64" width="32" height="32"/>
			<rect x="416" y="64" width="32" height="32"/>
			<path d="M96,304h64c8.837,0,16-7.163,16-16v-64c0-8.837-7.163-16-16-16H96c-8.837,0-16,7.163-16,16v64     C80,296.837,87.163,304,96,304z M112,240h32v32h-32V240z"/>
			<path d="M352,304h64c8.837,0,16-7.163,16-16v-64c0-8.837-7.163-16-16-16h-64c-8.837,0-16,7.163-16,16v64     C336,296.837,343.163,304,352,304z M368,240h32v32h-32V240z"/>
			<path d="M224,304h64c8.837,0,16-7.163,16-16v-64c0-8.837-7.163-16-16-16h-64c-8.837,0-16,7.163-16,16v64     C208,296.837,215.163,304,224,304z M240,240h32v32h-32V240z"/>
			<path d="M96,432h64c8.837,0,16-7.163,16-16v-64c0-8.837-7.163-16-16-16H96c-8.837,0-16,7.163-16,16v64     C80,424.837,87.163,432,96,432z M112,368h32v32h-32V368z"/>
			<path d="M352,432h64c8.837,0,16-7.163,16-16v-64c0-8.837-7.163-16-16-16h-64c-8.837,0-16,7.163-16,16v64     C336,424.837,343.163,432,352,432z M368,368h32v32h-32V368z"/>
			<path d="M224,432h64c8.837,0,16-7.163,16-16v-64c0-8.837-7.163-16-16-16h-64c-8.837,0-16,7.163-16,16v64     C208,424.837,215.163,432,224,432z M240,368h32v32h-32V368z"/>
		</g>
	</g>
</g>
<g>
</g>
<g>
</g>
<g>
</g>
<g>
</g>
<g>
</g>
<g>
</g>
<g>
</g>
<g>
</g>
<g>
</g>
<g>
</g>
<g>
</g>
<g>
</g>
<g>
</g>
<g>
</g>
<g>
</g>
</svg>
