<?xml version="1.0" encoding="iso-8859-1"?>
<!-- Generator: Adobe Illustrator 19.0.0, SVG Export Plug-In . SVG Version: 6.00 Build 0)  -->
<svg xmlns="http://www.w3.org/2000/svg" xmlns:xlink="http://www.w3.org/1999/xlink" version="1.1" id="Capa_1" x="0px" y="0px" viewBox="0 0 512 512" style="enable-background:new 0 0 512 512;" xml:space="preserve">
<g>
	<g>
		<g>
			<path d="M256,0C114.615,0,0,114.615,0,256s114.615,256,256,256s256-114.615,256-256S397.385,0,256,0z M439.2,384l-27.84-27.84     l-22.56,22.56l30.08,30.08c-38.391,41.066-90.82,66.196-146.88,70.4V432h-32v47.2c-55.913-4.074-108.266-28.966-146.72-69.76     l30.08-30.08l-22.72-22.72L72.8,384c-23.253-33.01-37.081-71.728-40-112H80v-32H32.8c2.919-40.272,16.747-78.99,40-112     l27.84,27.36l22.72-22.72l-30.08-30.08C131.734,61.766,184.087,36.874,240,32.8V80h32V32.8     c55.913,4.074,108.266,28.966,146.72,69.76l-30.08,30.08l22.56,22.56l28-27.2c23.253,33.01,37.081,71.728,40,112H432v32h47.2     C476.281,312.272,462.453,350.99,439.2,384z"/>
			<path d="M224,160h-48c-17.673,0-32,14.327-32,32v48h32v-48h32v64h-32c-17.673,0-32,14.327-32,32v32c0,17.673,14.327,32,32,32h64     v-32h-64v-32h32c17.673,0,32-14.327,32-32v-80C240,167.163,232.837,160,224,160z"/>
			<path d="M352,160h-32v80h-32v-80h-32v96c0,8.837,7.163,16,16,16h48v80h32v-80h32v-32h-32V160z"/>
		</g>
	</g>
</g>
<g>
</g>
<g>
</g>
<g>
</g>
<g>
</g>
<g>
</g>
<g>
</g>
<g>
</g>
<g>
</g>
<g>
</g>
<g>
</g>
<g>
</g>
<g>
</g>
<g>
</g>
<g>
</g>
<g>
</g>
</svg>
