<?xml version="1.0" encoding="iso-8859-1"?>
<!-- Generator: Adobe Illustrator 19.0.0, SVG Export Plug-In . SVG Version: 6.00 Build 0)  -->
<svg xmlns="http://www.w3.org/2000/svg" xmlns:xlink="http://www.w3.org/1999/xlink" version="1.1" id="Capa_1" x="0px" y="0px" viewBox="0 0 512 512" style="enable-background:new 0 0 512 512;" xml:space="preserve">
<g>
	<g>
		<g>
			<path d="M199.992,208v48c-0.025,4.253,1.645,8.34,4.64,11.36l32,32l22.56-22.56l-27.2-27.36V208H199.992z"/>
			<path d="M327.992,352h-224V160h160v-32h-128V96h80V64h-80V32h160v16h32V16c0-8.837-7.163-16-16-16h-192c-8.837,0-16,7.163-16,16     v112c-17.673,0-32,14.327-32,32v48h-16v32h16v32h-16v32h16v48c0,17.673,14.327,32,32,32v112c0,8.837,7.163,16,16,16h192     c8.837,0,16-7.163,16-16V384c17.673,0,32-14.327,32-32v-96h-32V352z M295.992,480h-160v-32h160V480z M295.992,416h-160v-32h160     V416z"/>
			<path d="M439.992,180.16V160c-0.094-29.107-19.818-54.483-48-61.76V80h-32v18.24c-28.182,7.276-47.905,32.654-48,61.76v20.16     c-10.172,5.505-16.365,16.28-16,27.84h52.16c8.714,15.376,28.242,20.776,43.618,12.062c5.038-2.855,9.207-7.024,12.062-12.062     h52.16C456.357,196.44,450.164,185.665,439.992,180.16z M407.992,176h-64v-16c0-17.673,14.327-32,32-32c17.673,0,32,14.327,32,32     V176z"/>
		</g>
	</g>
</g>
<g>
</g>
<g>
</g>
<g>
</g>
<g>
</g>
<g>
</g>
<g>
</g>
<g>
</g>
<g>
</g>
<g>
</g>
<g>
</g>
<g>
</g>
<g>
</g>
<g>
</g>
<g>
</g>
<g>
</g>
</svg>
