<?xml version="1.0" encoding="iso-8859-1"?>
<!-- Generator: Adobe Illustrator 19.0.0, SVG Export Plug-In . SVG Version: 6.00 Build 0)  -->
<svg xmlns="http://www.w3.org/2000/svg" xmlns:xlink="http://www.w3.org/1999/xlink" version="1.1" id="Capa_1" x="0px" y="0px" viewBox="0 0 512 512" style="enable-background:new 0 0 512 512;" xml:space="preserve">
<g>
	<g>
		<g>
			<path d="M231.992,384c-70.692,0-128-57.308-128-128s57.308-128,128-128V96c-28.108-0.003-55.713,7.45-80,21.6V32h160v16h32V16     c0-8.837-7.163-16-16-16h-192c-8.837,0-16,7.163-16,16v125.92c-18.762,18.359-32.719,41.053-40.64,66.08h-23.36v32h16.8     c0,5.28-0.8,10.56-0.8,16s0,10.72,0.8,16h-16.8v32h23.36c7.921,25.027,21.878,47.721,40.64,66.08V496c0,8.837,7.163,16,16,16h192     c8.837,0,16-7.163,16-16V370.08c30.655-30.048,47.951-71.154,48-114.08h-32C359.992,326.692,302.685,384,231.992,384z      M311.992,480h-160v-85.6c49.423,28.882,110.577,28.882,160,0V480z"/>
			<path d="M215.992,176v80c-0.025,4.253,1.645,8.34,4.64,11.36l48,48l22.56-22.56l-43.2-43.36V176H215.992z"/>
			<path d="M439.992,180.16V160c-0.094-29.107-19.818-54.483-48-61.76V80h-32v18.24c-28.182,7.276-47.905,32.654-48,61.76v20.16     c-10.172,5.505-16.365,16.28-16,27.84h52.16c8.714,15.376,28.242,20.776,43.618,12.062c5.038-2.855,9.207-7.024,12.062-12.062     h52.16C456.357,196.44,450.164,185.665,439.992,180.16z M407.992,176h-64v-16c0-17.673,14.327-32,32-32c17.673,0,32,14.327,32,32     V176z"/>
		</g>
	</g>
</g>
<g>
</g>
<g>
</g>
<g>
</g>
<g>
</g>
<g>
</g>
<g>
</g>
<g>
</g>
<g>
</g>
<g>
</g>
<g>
</g>
<g>
</g>
<g>
</g>
<g>
</g>
<g>
</g>
<g>
</g>
</svg>
