<?xml version="1.0" encoding="iso-8859-1"?>
<!-- Generator: Adobe Illustrator 19.0.0, SVG Export Plug-In . SVG Version: 6.00 Build 0)  -->
<svg xmlns="http://www.w3.org/2000/svg" xmlns:xlink="http://www.w3.org/1999/xlink" version="1.1" id="Capa_1" x="0px" y="0px" viewBox="0 0 512 512" style="enable-background:new 0 0 512 512;" xml:space="preserve">
<g>
	<g>
		<g>
			<path d="M400,240v-80c0-17.673-14.327-32-32-32V16c0-8.837-7.163-16-16-16H160c-8.837,0-16,7.163-16,16v112     c-17.673,0-32,14.327-32,32v48H96v32h16v32H96v32h16v48c0,17.673,14.327,32,32,32v112c0,8.837,7.163,16,16,16h192     c8.837,0,16-7.163,16-16V384c17.673,0,32-14.327,32-32v-80h16v-32H400z M176,32h160v32H176V32z M176,96h160v32H176V96z M336,480     H176v-32h160V480z M336,416H176v-32h160V416z M368,352H144V160h224V352z"/>
			<path d="M276.64,299.36l22.56-22.56L272,249.44V208h-32v48c-0.025,4.253,1.645,8.34,4.64,11.36L276.64,299.36z"/>
		</g>
	</g>
</g>
<g>
</g>
<g>
</g>
<g>
</g>
<g>
</g>
<g>
</g>
<g>
</g>
<g>
</g>
<g>
</g>
<g>
</g>
<g>
</g>
<g>
</g>
<g>
</g>
<g>
</g>
<g>
</g>
<g>
</g>
</svg>
