<?xml version="1.0" encoding="iso-8859-1"?>
<!-- Generator: Adobe Illustrator 19.0.0, SVG Export Plug-In . SVG Version: 6.00 Build 0)  -->
<svg xmlns="http://www.w3.org/2000/svg" xmlns:xlink="http://www.w3.org/1999/xlink" version="1.1" id="Capa_1" x="0px" y="0px" viewBox="0 0 512 512" style="enable-background:new 0 0 512 512;" xml:space="preserve">
<g>
	<g>
		<g>
			<path d="M415.2,240c-3.788-37.205-20.488-71.907-47.2-98.08V16c0-8.837-7.163-16-16-16H160c-8.837,0-16,7.163-16,16v125.92     c-18.762,18.359-32.719,41.053-40.64,66.08H80v32h16.8c0,5.28-0.8,10.56-0.8,16s0,10.72,0.8,16H80v32h23.36     c7.921,25.027,21.878,47.721,40.64,66.08V496c0,8.837,7.163,16,16,16h192c8.837,0,16-7.163,16-16V370.08     c26.712-26.173,43.412-60.875,47.2-98.08H432v-32H415.2z M176,32h160v85.6c-49.432-28.848-110.568-28.848-160,0V32z M336,480H176     v-85.6c49.432,28.848,110.568,28.848,160,0V480z M256,384c-70.692,0-128-57.308-128-128s57.308-128,128-128s128,57.308,128,128     S326.692,384,256,384z"/>
			<path d="M272,176h-32v80c-0.025,4.253,1.645,8.34,4.64,11.36l48,48l22.56-22.56L272,249.44V176z"/>
		</g>
	</g>
</g>
<g>
</g>
<g>
</g>
<g>
</g>
<g>
</g>
<g>
</g>
<g>
</g>
<g>
</g>
<g>
</g>
<g>
</g>
<g>
</g>
<g>
</g>
<g>
</g>
<g>
</g>
<g>
</g>
<g>
</g>
</svg>
