<?xml version="1.0" encoding="iso-8859-1"?>
<!-- Generator: Adobe Illustrator 19.0.0, SVG Export Plug-In . SVG Version: 6.00 Build 0)  -->
<svg xmlns="http://www.w3.org/2000/svg" xmlns:xlink="http://www.w3.org/1999/xlink" version="1.1" id="Capa_1" x="0px" y="0px" viewBox="0 0 511.232 511.232" style="enable-background:new 0 0 511.232 511.232;" xml:space="preserve">
<g>
	<g>
		<g>
			<path d="M501,440.8l-32-64c-2.711-5.38-8.215-8.782-14.24-8.8h-16V240h-32v128h-176v32h214.08l16,32H166.76v32H185     c9.27,34.109,44.435,54.246,78.544,44.976c21.908-5.954,39.022-23.068,44.976-44.976h178.24     c8.837-0.027,15.978-7.212,15.952-16.048C502.704,445.467,502.118,443.019,501,440.8z"/>
			<path d="M70.76,400c8.837,0,16-7.163,16-16V240c0.294-77.576,54.902-144.334,130.88-160c7.698-1.407,13.248-8.176,13.12-16V32h32     v32c-0.128,7.824,5.423,14.593,13.12,16c15.191,2.839,29.865,7.964,43.52,15.2l14.88-28.32     c-12.526-6.731-25.787-11.993-39.52-15.68V32c0-17.673-14.327-32-32-32h-32c-17.673,0-32,14.327-32,32v19.2     C113.957,74.874,55.166,151.955,54.76,240v128h-16c-6.025,0.018-11.529,3.419-14.24,8.8l-16,32l28.64,14.24L48.68,400H70.76z"/>
			<path d="M166.76,224c0-61.28,43.2-64,48-64v-32c-27.68,0-80,20-80,96H166.76z"/>
			
				<rect x="-21.397" y="279.965" transform="matrix(0.7071 -0.7071 0.7071 0.7071 -139.3227 255.5747)" width="520.482" height="32"/>
		</g>
	</g>
</g>
<g>
</g>
<g>
</g>
<g>
</g>
<g>
</g>
<g>
</g>
<g>
</g>
<g>
</g>
<g>
</g>
<g>
</g>
<g>
</g>
<g>
</g>
<g>
</g>
<g>
</g>
<g>
</g>
<g>
</g>
</svg>
