<?xml version="1.0" encoding="iso-8859-1"?>
<!-- Generator: Adobe Illustrator 19.0.0, SVG Export Plug-In . SVG Version: 6.00 Build 0)  -->
<svg xmlns="http://www.w3.org/2000/svg" xmlns:xlink="http://www.w3.org/1999/xlink" version="1.1" id="Capa_1" x="0px" y="0px" viewBox="0 0 511.955 511.955" style="enable-background:new 0 0 511.955 511.955;" xml:space="preserve">
<g>
	<g>
		<g>
			<path d="M478.195,377.161c-2.711-5.38-8.215-8.782-14.24-8.8h-16v-48h-32v64c0,8.837,7.163,16,16,16h22.08l16,32H41.875l16-32     h310.08v-32h-272v-128c0.294-77.576,54.902-144.334,130.88-160c7.698-1.407,13.248-8.176,13.12-16v-32l32-0.96     c0.044,0.319,0.044,0.642,0,0.96h32c0-17.673-14.327-32-32-32h-32c-17.673,0-32,14.327-32,32v19.2     c-84.804,23.674-143.595,100.755-144,188.8v128h-16c-6.025,0.018-11.529,3.419-14.24,8.8l-32,64     c-3.977,7.891-0.803,17.512,7.088,21.488c2.219,1.118,4.667,1.704,7.152,1.712h178.24c9.27,34.109,44.435,54.246,78.544,44.976     c21.908-5.954,39.022-23.068,44.976-44.976h178.24c8.837-0.027,15.978-7.212,15.952-16.048c-0.008-2.484-0.594-4.933-1.712-7.152     L478.195,377.161z"/>
			<path d="M255.955,160.362c0,70.692,57.308,128,128,128s128-57.308,128-128s-57.308-128-128-128S255.955,89.669,255.955,160.362z      M383.955,64.362c53.019,0,96,42.981,96,96s-42.981,96-96,96s-96-42.981-96-96S330.936,64.362,383.955,64.362z"/>
			<path d="M175.955,224.362c0-61.28,43.2-64,48-64v-32c-27.68,0-80,20-80,96H175.955z"/>
			<polygon points="367.955,224.362 399.955,224.362 399.955,176.362 447.955,176.362 447.955,144.362 399.955,144.362      399.955,96.362 367.955,96.362 367.955,144.362 319.955,144.362 319.955,176.362 367.955,176.362    "/>
		</g>
	</g>
</g>
<g>
</g>
<g>
</g>
<g>
</g>
<g>
</g>
<g>
</g>
<g>
</g>
<g>
</g>
<g>
</g>
<g>
</g>
<g>
</g>
<g>
</g>
<g>
</g>
<g>
</g>
<g>
</g>
<g>
</g>
</svg>
