<?xml version="1.0" encoding="iso-8859-1"?>
<!-- Generator: Adobe Illustrator 19.0.0, SVG Export Plug-In . SVG Version: 6.00 Build 0)  -->
<svg xmlns="http://www.w3.org/2000/svg" xmlns:xlink="http://www.w3.org/1999/xlink" version="1.1" id="Capa_1" x="0px" y="0px" viewBox="0 0 512 512" style="enable-background:new 0 0 512 512;" xml:space="preserve">
<g>
	<g>
		<g>
			<path d="M272,479.2V432h-32v47.2C129.072,471.15,40.85,382.928,32.8,272H80v-32H32.8C41.187,122.884,138.584,32.119,256,32V0     C114.615,0,0,114.615,0,256s114.615,256,256,256s256-114.615,256-256h-32C479.881,373.416,389.116,470.813,272,479.2z"/>
			<path d="M240,224v32c-0.025,4.253,1.645,8.34,4.64,11.36l80,80l22.56-22.56L272,249.44V224H240z"/>
			<path d="M384,256c70.692,0,128-57.308,128-128S454.692,0,384,0S256,57.308,256,128S313.308,256,384,256z M480,128     c-0.042,53.019-43.057,95.966-96.077,95.923c-19.866-0.016-39.237-6.194-55.443-17.683L462.24,72.48     C473.771,88.699,479.978,108.1,480,128z M328.557,49.683C344.763,38.194,364.135,32.016,384,32     c19.9,0.022,39.301,6.229,55.52,17.76L305.76,183.52C275.097,140.267,285.304,80.346,328.557,49.683z"/>
		</g>
	</g>
</g>
<g>
</g>
<g>
</g>
<g>
</g>
<g>
</g>
<g>
</g>
<g>
</g>
<g>
</g>
<g>
</g>
<g>
</g>
<g>
</g>
<g>
</g>
<g>
</g>
<g>
</g>
<g>
</g>
<g>
</g>
</svg>
