<?xml version="1.0" encoding="iso-8859-1"?>
<!-- Generator: Adobe Illustrator 19.0.0, SVG Export Plug-In . SVG Version: 6.00 Build 0)  -->
<svg xmlns="http://www.w3.org/2000/svg" xmlns:xlink="http://www.w3.org/1999/xlink" version="1.1" id="Capa_1" x="0px" y="0px" viewBox="0 0 511.907 511.907" style="enable-background:new 0 0 511.907 511.907;" xml:space="preserve">
<g>
	<g>
		<g>
			<path d="M510.195,441.137l-32-64c-2.711-5.38-8.215-8.782-14.24-8.8h-16v-128c-0.405-88.045-59.196-165.126-144-188.8v-19.2     c0-17.673-14.327-32-32-32h-32c-17.673,0-32,14.327-32,32v19.2c-84.804,23.674-143.595,100.755-144,188.8v128h-16     c-6.025,0.018-11.529,3.419-14.24,8.8l-32,64c-3.977,7.891-0.803,17.512,7.088,21.488c2.219,1.118,4.667,1.704,7.152,1.712     h178.24c9.27,34.109,44.435,54.246,78.544,44.976c21.908-5.954,39.022-23.068,44.976-44.976h178.24     c8.837-0.027,15.978-7.212,15.952-16.048C511.899,445.805,511.313,443.356,510.195,441.137z M41.875,432.337l16-32h310.08v-32     h-272v-128c0.294-77.576,54.902-144.334,130.88-160c7.698-1.407,13.248-8.176,13.12-16v-32h32v32     c-0.128,7.824,5.423,14.593,13.12,16c75.978,15.666,130.586,82.424,130.88,160v144c0,8.837,7.163,16,16,16h22.08l16,32H41.875z"/>
			<path d="M143.955,224.337h32c0-61.28,43.2-64,48-64v-32C196.275,128.337,143.955,148.337,143.955,224.337z"/>
		</g>
	</g>
</g>
<g>
</g>
<g>
</g>
<g>
</g>
<g>
</g>
<g>
</g>
<g>
</g>
<g>
</g>
<g>
</g>
<g>
</g>
<g>
</g>
<g>
</g>
<g>
</g>
<g>
</g>
<g>
</g>
<g>
</g>
</svg>
