<?xml version="1.0" encoding="iso-8859-1"?>
<!-- Generator: Adobe Illustrator 19.0.0, SVG Export Plug-In . SVG Version: 6.00 Build 0)  -->
<svg xmlns="http://www.w3.org/2000/svg" xmlns:xlink="http://www.w3.org/1999/xlink" version="1.1" id="Capa_1" x="0px" y="0px" viewBox="0 0 512 512" style="enable-background:new 0 0 512 512;" xml:space="preserve">
<g>
	<g>
		<g>
			<path d="M398.218,456.8c-2.711-5.38-8.215-8.782-14.24-8.8h-16V320h-32v128h-256V313.12l72.16-43.36     c7.555-4.583,9.965-14.423,5.382-21.978c-1.335-2.201-3.181-4.047-5.382-5.382l-72.16-43.52V64h128V32h32V0h-224     C7.141,0.027-0.001,7.212,0.026,16.048c0.008,2.484,0.593,4.933,1.711,7.152l16,32c2.711,5.38,8.215,8.782,14.24,8.8h16v144     c0.001,5.649,2.981,10.879,7.84,13.76l57.12,34.24l-57.12,34.24c-4.859,2.881-7.839,8.111-7.84,13.76v144h-16     c-6.025,0.018-11.529,3.419-14.24,8.8l-16,32c-3.977,7.891-0.803,17.512,7.088,21.488c2.219,1.118,4.667,1.704,7.152,1.712h384     c8.837-0.027,15.978-7.212,15.952-16.048c-0.008-2.484-0.594-4.933-1.712-7.152L398.218,456.8z"/>
			<rect x="191.978" y="240" width="32" height="32"/>
			<rect x="255.978" y="368" width="32" height="32"/>
			<rect x="191.978" y="368" width="32" height="32"/>
			<rect x="127.978" y="368" width="32" height="32"/>
			<rect x="159.978" y="304" width="32" height="32"/>
			<rect x="223.978" y="304" width="32" height="32"/>
			<path d="M367.978,0c-79.529,0-144,64.471-144,144s64.471,144,144,144s144-64.471,144-144S447.507,0,367.978,0z M367.978,256     c-61.856,0-112-50.144-112-112s50.144-112,112-112s112,50.144,112,112S429.833,256,367.978,256z"/>
			<path d="M351.978,153.44l-20.64-20.8l-22.72,22.72l32,32c6.241,6.204,16.319,6.204,22.56,0l64-64l-22.56-22.72L351.978,153.44z"/>
		</g>
	</g>
</g>
<g>
</g>
<g>
</g>
<g>
</g>
<g>
</g>
<g>
</g>
<g>
</g>
<g>
</g>
<g>
</g>
<g>
</g>
<g>
</g>
<g>
</g>
<g>
</g>
<g>
</g>
<g>
</g>
<g>
</g>
</svg>
