<?xml version="1.0" encoding="iso-8859-1"?>
<!-- Generator: Adobe Illustrator 19.0.0, SVG Export Plug-In . SVG Version: 6.00 Build 0)  -->
<svg xmlns="http://www.w3.org/2000/svg" xmlns:xlink="http://www.w3.org/1999/xlink" version="1.1" id="Capa_1" x="0px" y="0px" viewBox="0 0 512 512" style="enable-background:new 0 0 512 512;" xml:space="preserve">
<g>
	<g>
		<path d="M462.24,488.8l-16-32c-2.711-5.38-8.215-8.782-14.24-8.8h-16V304c-0.001-5.649-2.981-10.879-7.84-13.76L351.04,256    l57.12-34.24c4.859-2.881,7.839-8.111,7.84-13.76V64h16c6.025-0.018,11.529-3.42,14.24-8.8l16-32    c3.977-7.891,0.803-17.512-7.088-21.489C452.933,0.594,450.484,0.008,448,0H64c-8.836,0.027-15.978,7.212-15.951,16.048    c0.008,2.484,0.593,4.933,1.711,7.152l16,32c2.711,5.38,8.215,8.782,14.24,8.8h16v144c0.001,5.649,2.981,10.879,7.84,13.76    L160.96,256l-57.12,34.24c-4.859,2.881-7.839,8.111-7.84,13.76v144H80c-6.025,0.018-11.529,3.419-14.24,8.8l-16,32    c-3.977,7.891-0.803,17.512,7.088,21.488c2.219,1.118,4.667,1.704,7.152,1.712h384c8.837-0.027,15.978-7.212,15.952-16.048    C463.944,493.467,463.358,491.019,462.24,488.8z M384,448H128V313.12l72.16-43.36c7.555-4.583,9.965-14.423,5.382-21.978    c-1.335-2.201-3.181-4.047-5.382-5.382L128,198.88V64h256v134.88l-72.16,43.36c-7.555,4.583-9.965,14.423-5.382,21.978    c1.335,2.201,3.181,4.047,5.382,5.382L384,313.12V448z"/>
	</g>
</g>
<g>
</g>
<g>
</g>
<g>
</g>
<g>
</g>
<g>
</g>
<g>
</g>
<g>
</g>
<g>
</g>
<g>
</g>
<g>
</g>
<g>
</g>
<g>
</g>
<g>
</g>
<g>
</g>
<g>
</g>
</svg>
