<?xml version="1.0" encoding="iso-8859-1"?>
<!-- Generator: Adobe Illustrator 19.0.0, SVG Export Plug-In . SVG Version: 6.00 Build 0)  -->
<svg xmlns="http://www.w3.org/2000/svg" xmlns:xlink="http://www.w3.org/1999/xlink" version="1.1" id="Capa_1" x="0px" y="0px" viewBox="0 0 512 512" style="enable-background:new 0 0 512 512;" xml:space="preserve">
<g>
	<g>
		<g>
			<path d="M464,0H48C21.49,0,0,21.49,0,48v384c0,26.51,21.49,48,48,48v16c0,8.837,7.163,16,16,16h64c8.837,0,16-7.163,16-16v-16     h224v16c0,8.837,7.163,16,16,16h64c8.837,0,16-7.163,16-16v-16c26.51,0,48-21.49,48-48V48C512,21.49,490.51,0,464,0z M480,432     c0,8.837-7.163,16-16,16H48c-8.837,0-16-7.163-16-16V48c0-8.837,7.163-16,16-16h416c8.837,0,16,7.163,16,16V432z"/>
			<path d="M416,64H96c-17.673,0-32,14.327-32,32v288c0,17.673,14.327,32,32,32h320c17.673,0,32-14.327,32-32V96     C448,78.327,433.673,64,416,64z M416,224h-32v32h32v128H272v-32h-32v32H96V256h32v-32H96V96h144v32h32V96h144V224z"/>
			<path d="M272,176h-32v64c-0.025,4.253,1.645,8.341,4.64,11.36l48,48l22.56-22.56L272,233.44V176z"/>
		</g>
	</g>
</g>
<g>
</g>
<g>
</g>
<g>
</g>
<g>
</g>
<g>
</g>
<g>
</g>
<g>
</g>
<g>
</g>
<g>
</g>
<g>
</g>
<g>
</g>
<g>
</g>
<g>
</g>
<g>
</g>
<g>
</g>
</svg>
