<?xml version="1.0" encoding="iso-8859-1"?>
<!-- Generator: Adobe Illustrator 19.0.0, SVG Export Plug-In . SVG Version: 6.00 Build 0)  -->
<svg xmlns="http://www.w3.org/2000/svg" xmlns:xlink="http://www.w3.org/1999/xlink" version="1.1" id="Capa_1" x="0px" y="0px" viewBox="0 0 512.044 512.044" style="enable-background:new 0 0 512.044 512.044;" xml:space="preserve">
<g>
	<g>
		<g>
			<path d="M480,432.022c0,8.837-7.163,16-16,16H48c-8.837,0-16-7.163-16-16v-384c0-8.837,7.163-16,16-16h224v-32H48     c-26.51,0-48,21.49-48,48v384c0,26.51,21.49,48,48,48v16c0,8.837,7.163,16,16,16h64c8.837,0,16-7.163,16-16v-16h224v16     c0,8.837,7.163,16,16,16h64c8.837,0,16-7.163,16-16v-16c26.51,0,48-21.49,48-48v-192h-32V432.022z"/>
			<path d="M256,96.022v-32H96c-17.673,0-32,14.327-32,32v288c0,17.673,14.327,32,32,32h320c17.673,0,32-14.327,32-32v-112h-32v112     H96v-288H256z"/>
			<path d="M272,208.022h-32v32c-0.025,4.253,1.645,8.341,4.64,11.36l64,64l22.56-22.56l-59.2-59.36V208.022z"/>
			<path d="M496,163.702v-51.68c-0.047-46.808-33.846-86.759-80-94.56V0.022h-32v17.44c-46.154,7.801-79.953,47.752-80,94.56v51.68     c-10.388,5.524-16.63,16.571-16,28.32l32-1.6c-0.336,0.951-1.231,1.59-2.24,1.6h37.28c9.165,24.875,36.76,37.61,61.635,28.445     c13.189-4.86,23.585-15.256,28.445-28.445H512C512.63,180.273,506.389,169.225,496,163.702z M464,160.022H336v-48     c0-35.346,28.654-64,64-64c35.346,0,64,28.654,64,64V160.022z"/>
		</g>
	</g>
</g>
<g>
</g>
<g>
</g>
<g>
</g>
<g>
</g>
<g>
</g>
<g>
</g>
<g>
</g>
<g>
</g>
<g>
</g>
<g>
</g>
<g>
</g>
<g>
</g>
<g>
</g>
<g>
</g>
<g>
</g>
</svg>
