<?xml version="1.0" encoding="iso-8859-1"?>
<!-- Generator: Adobe Illustrator 19.0.0, SVG Export Plug-In . SVG Version: 6.00 Build 0)  -->
<svg xmlns="http://www.w3.org/2000/svg" xmlns:xlink="http://www.w3.org/1999/xlink" version="1.1" id="Capa_1" x="0px" y="0px" viewBox="0 0 512 512" style="enable-background:new 0 0 512 512;" xml:space="preserve">
<g>
	<g>
		<g>
			<path d="M480,432c0,8.837-7.163,16-16,16H48c-8.837,0-16-7.163-16-16V48c0-8.837,7.163-16,16-16h192V0H48C21.49,0,0,21.49,0,48     v384c0,26.51,21.49,48,48,48v16c0,8.837,7.163,16,16,16h64c8.837,0,16-7.163,16-16v-16h224v16c0,8.837,7.163,16,16,16h64     c8.837,0,16-7.163,16-16v-16c26.51,0,48-21.49,48-48V272h-32V432z"/>
			<path d="M224,96V64H96c-17.673,0-32,14.327-32,32v288c0,17.673,14.327,32,32,32h320c17.673,0,32-14.327,32-32v-96h-32v96H96V96     H224z"/>
			<path d="M240,224v16c-0.025,4.253,1.645,8.341,4.64,11.36l64,64l22.56-22.56L272,233.44V224H240z"/>
			<path d="M384,256c70.692,0,128-57.308,128-128S454.692,0,384,0S256,57.308,256,128S313.308,256,384,256z M384,32     c53.019,0,96,42.981,96,96s-42.981,96-96,96s-96-42.981-96-96S330.981,32,384,32z"/>
			<polygon points="368,192 400,192 400,144 448,144 448,112 400,112 400,64 368,64 368,112 320,112 320,144 368,144    "/>
		</g>
	</g>
</g>
<g>
</g>
<g>
</g>
<g>
</g>
<g>
</g>
<g>
</g>
<g>
</g>
<g>
</g>
<g>
</g>
<g>
</g>
<g>
</g>
<g>
</g>
<g>
</g>
<g>
</g>
<g>
</g>
<g>
</g>
</svg>
