<?xml version="1.0" encoding="iso-8859-1"?>
<!-- Generator: Adobe Illustrator 19.0.0, SVG Export Plug-In . SVG Version: 6.00 Build 0)  -->
<svg xmlns="http://www.w3.org/2000/svg" xmlns:xlink="http://www.w3.org/1999/xlink" version="1.1" id="Capa_1" x="0px" y="0px" viewBox="0 0 512 512" style="enable-background:new 0 0 512 512;" xml:space="preserve">
<g>
	<g>
		<g>
			<path d="M31.131,288C31.025,181.961,116.9,95.914,222.939,95.808c77.627-0.078,147.664,46.596,177.472,118.272l29.6-12.32     c-30.36-72.818-96.789-124.295-174.88-135.52V32h16c17.673,0,32-14.327,32-32l-128,0.96c-0.044-0.319-0.044-0.642,0-0.96h-32     c0,17.673,14.327,32,32,32h16v34.56C68.83,85.186-15.216,199.43,3.41,321.732C19.976,430.513,113.099,511.153,223.131,512v-32     C117.092,480,31.131,394.039,31.131,288z"/>
			<path d="M239.131,176h-32v112c-0.025,4.253,1.645,8.34,4.64,11.36l48,48l22.56-22.56l-43.2-43.36V176z"/>
			<path d="M495.131,435.68V384c-0.047-46.808-33.846-86.759-80-94.56V272h-32v17.44c-46.154,7.801-79.953,47.752-80,94.56v51.68     c-10.388,5.524-16.63,16.571-16,28.32l32-1.6c-0.354,1.008-1.333,1.661-2.4,1.6h37.28c9.165,24.875,36.76,37.61,61.635,28.445     c13.189-4.86,23.585-15.256,28.445-28.445h67.04C511.761,452.251,505.52,441.204,495.131,435.68z M463.131,432h-128v-48     c0-35.346,28.654-64,64-64c35.346,0,64,28.654,64,64V432z"/>
		</g>
	</g>
</g>
<g>
</g>
<g>
</g>
<g>
</g>
<g>
</g>
<g>
</g>
<g>
</g>
<g>
</g>
<g>
</g>
<g>
</g>
<g>
</g>
<g>
</g>
<g>
</g>
<g>
</g>
<g>
</g>
<g>
</g>
</svg>
