<?xml version="1.0" encoding="iso-8859-1"?>
<!-- Generator: Adobe Illustrator 19.0.0, SVG Export Plug-In . SVG Version: 6.00 Build 0)  -->
<svg xmlns="http://www.w3.org/2000/svg" xmlns:xlink="http://www.w3.org/1999/xlink" version="1.1" id="Capa_1" x="0px" y="0px" viewBox="0 0 512.291 512.291" style="enable-background:new 0 0 512.291 512.291;" xml:space="preserve">
<g>
	<g>
		<g>
			<path d="M477.848,256.263C463.66,157.966,386.442,80.748,288.146,66.56V32h16c17.673,0,32-14.327,32-32l-128,0.96     c-0.044-0.319-0.044-0.642,0-0.96h-32c0,17.673,14.327,32,32,32h16v34.56C101.703,84.233,16.77,197.82,34.443,320.263     s131.26,207.376,253.703,189.702C410.589,492.292,495.521,378.705,477.848,256.263z M256.146,480c-106.039,0-192-85.961-192-192     s85.961-192,192-192s192,85.961,192,192S362.184,480,256.146,480z"/>
			<path d="M224.146,192h-48c-17.673,0-32,14.327-32,32v48h32v-48h32v64h-32c-17.673,0-32,14.327-32,32v32c0,17.673,14.327,32,32,32     h64v-32h-64v-32h32c17.673,0,32-14.327,32-32v-80C240.146,199.163,232.982,192,224.146,192z"/>
			<path d="M352.146,192h-32v80h-32v-80h-32v96c0,8.837,7.163,16,16,16h48v80h32v-80h32v-32h-32V192z"/>
		</g>
	</g>
</g>
<g>
</g>
<g>
</g>
<g>
</g>
<g>
</g>
<g>
</g>
<g>
</g>
<g>
</g>
<g>
</g>
<g>
</g>
<g>
</g>
<g>
</g>
<g>
</g>
<g>
</g>
<g>
</g>
<g>
</g>
</svg>
