<?xml version="1.0" encoding="iso-8859-1"?>
<!-- Generator: Adobe Illustrator 19.0.0, SVG Export Plug-In . SVG Version: 6.00 Build 0)  -->
<svg xmlns="http://www.w3.org/2000/svg" xmlns:xlink="http://www.w3.org/1999/xlink" version="1.1" id="Capa_1" x="0px" y="0px" viewBox="0 0 512 512" style="enable-background:new 0 0 512 512;" xml:space="preserve">
<g>
	<g>
		<g>
			<path d="M31.153,288C31.047,181.961,116.922,95.914,222.961,95.808c77.627-0.078,147.664,46.596,177.472,118.272l29.6-12.32     c-30.36-72.818-96.789-124.295-174.88-135.52V32h16c17.673,0,32-14.327,32-32l-128,0.96c-0.044-0.319-0.044-0.642,0-0.96h-32     c0,17.673,14.327,32,32,32h16v34.56C68.851,85.186-15.194,199.43,3.431,321.732C19.998,430.513,113.121,511.153,223.153,512v-32     C117.114,480,31.153,394.039,31.153,288z"/>
			<path d="M239.153,176h-32v112c-0.025,4.253,1.645,8.34,4.64,11.36l16,16l22.56-22.56l-11.2-11.36V176z"/>
			<path d="M383.153,256c-70.692,0-128,57.308-128,128s57.308,128,128,128s128-57.308,128-128S453.845,256,383.153,256z      M383.153,480c-53.019,0-96-42.981-96-96s42.981-96,96-96s96,42.981,96,96S436.172,480,383.153,480z"/>
			<polygon points="419.793,324.64 383.153,361.44 346.513,324.64 323.793,347.36 360.593,384 323.793,420.64 346.513,443.36      383.153,406.56 419.793,443.36 442.513,420.64 405.713,384 442.513,347.36    "/>
		</g>
	</g>
</g>
<g>
</g>
<g>
</g>
<g>
</g>
<g>
</g>
<g>
</g>
<g>
</g>
<g>
</g>
<g>
</g>
<g>
</g>
<g>
</g>
<g>
</g>
<g>
</g>
<g>
</g>
<g>
</g>
<g>
</g>
</svg>
