<?xml version="1.0" encoding="iso-8859-1"?>
<!-- Generator: Adobe Illustrator 19.0.0, SVG Export Plug-In . SVG Version: 6.00 Build 0)  -->
<svg xmlns="http://www.w3.org/2000/svg" xmlns:xlink="http://www.w3.org/1999/xlink" version="1.1" id="Capa_1" x="0px" y="0px" viewBox="0 0 512.164 512.164" style="enable-background:new 0 0 512.164 512.164;" xml:space="preserve">
<g>
	<g>
		<g>
			<path d="M445.571,168.64l-27.04,16.96c16.651,25.998,26.752,55.644,29.44,86.4h-48v32h47.2     c-7.863,93.31-81.89,167.337-175.2,175.2V432h-32v48c-30.701-2.494-60.343-12.375-86.4-28.8l-16.96,26.4     c104.638,65.995,242.965,34.669,308.96-69.969C491.618,334.621,491.618,241.65,445.571,168.64z"/>
			<path d="M78.691,361.92c-7.927-18.411-12.895-37.958-14.72-57.92h48v-32h-47.2c7.863-93.31,81.89-167.337,175.2-175.2V144h32V96     c19.918,1.57,39.464,6.267,57.92,13.92l12.32-29.6c-17.426-6.859-35.651-11.482-54.24-13.76V32h16c17.673,0,32-14.327,32-32     l-128,0.96c-0.04-0.319-0.04-0.641,0-0.96h-32c0,17.673,14.327,32,32,32h16v34.56C101.538,84.297,16.664,197.928,34.401,320.361     c2.681,18.509,7.67,36.609,14.85,53.879L78.691,361.92z"/>
			
				<rect x="-38.059" y="255.897" transform="matrix(0.7071 -0.7071 0.7071 0.7071 -117.2498 260.7282)" width="588.323" height="32"/>
		</g>
	</g>
</g>
<g>
</g>
<g>
</g>
<g>
</g>
<g>
</g>
<g>
</g>
<g>
</g>
<g>
</g>
<g>
</g>
<g>
</g>
<g>
</g>
<g>
</g>
<g>
</g>
<g>
</g>
<g>
</g>
<g>
</g>
</svg>
