<?xml version="1.0"?>
<svg xmlns="http://www.w3.org/2000/svg" viewBox="0 0 64 64" width="512" height="512"><g id="Boy-7" data-name="Boy"><path d="M32,40a21.113,21.113,0,0,1-3-.221V43.23a.992.992,0,0,1-.656.925L32,46.771l3.656-2.616A.992.992,0,0,1,35,43.23V39.779A21.113,21.113,0,0,1,32,40Z"/><path d="M24.141,45.166,32,50.408l7.859-5.242L38.22,44.78l-5.638,4.033a1,1,0,0,1-1.164,0L25.78,44.78Z"/><rect x="13" y="58" width="38" height="2"/><path d="M51.622,21.154a.993.993,0,0,1-.665-.465.969.969,0,0,1-.091.272,1,1,0,0,1-1.367.365,9.725,9.725,0,0,1-4.717-5.466A66.437,66.437,0,0,1,32,17a66.437,66.437,0,0,1-12.782-1.14A9.725,9.725,0,0,1,14.5,21.326a1,1,0,0,1-1.367-.365.969.969,0,0,1-.091-.272.993.993,0,0,1-.665.465c-1.613.291-2.615,2.284-2.233,4.442.332,1.92,1.692,3.4,3.166,3.445a1.792,1.792,0,0,0,.478-.026,2.274,2.274,0,0,0,1.04-.48,1,1,0,0,1,1.531.339C19.045,34.418,25.184,38,32,38s12.955-3.582,15.64-9.126a1,1,0,0,1,1.531-.339,2.28,2.28,0,0,0,1.045.481,1.642,1.642,0,0,0,.417.028c1.53-.049,2.89-1.528,3.221-3.444C54.237,23.438,53.235,21.445,51.622,21.154Z"/><path d="M51,51.75a4.984,4.984,0,0,0-3.851-4.867l-4.626-1.089-9.968,6.648a1,1,0,0,1-1.11,0l-9.968-6.648L16.85,46.883A4.984,4.984,0,0,0,13,51.75V56H51Z"/><path d="M13.5,19.594c2.613-1.511,3.93-3.607,3.881-4.9a.957.957,0,0,1,.022-.132.829.829,0,0,1,0-.132c.005-.023.021-.039.027-.061a1.011,1.011,0,0,1,.085-.186,1.023,1.023,0,0,1,.1-.156.945.945,0,0,1,.139-.129.967.967,0,0,1,.153-.112,1.008,1.008,0,0,1,.171-.066,1.041,1.041,0,0,1,.2-.048c.022,0,.041-.015.064-.015a.907.907,0,0,1,.137.021,1.078,1.078,0,0,1,.127,0A61.824,61.824,0,0,0,32,15a61.824,61.824,0,0,0,13.394-1.314,1,1,0,0,1,.123,0,.959.959,0,0,1,.141-.021c.023,0,.042.013.064.015a1.041,1.041,0,0,1,.2.048,1.008,1.008,0,0,1,.171.066,1.027,1.027,0,0,1,.153.111,1.009,1.009,0,0,1,.139.13,1.573,1.573,0,0,1,.182.342c.006.022.022.038.027.061a.829.829,0,0,1,0,.132.957.957,0,0,1,.022.132c-.049,1.289,1.268,3.385,3.881,4.9a.97.97,0,0,1,.208.184,18.981,18.981,0,0,0-37.418,0A.97.97,0,0,1,13.5,19.594Z"/></g></svg>
