<?xml version="1.0"?>
<svg xmlns="http://www.w3.org/2000/svg" viewBox="0 0 64 64" width="512" height="512"><g id="Boy-6" data-name="Boy"><path d="M12.378,21.154c-1.614.291-2.615,2.284-2.233,4.441.332,1.921,1.693,3.4,3.167,3.446a1.775,1.775,0,0,0,.476-.026,2.271,2.271,0,0,0,1.04-.48,1,1,0,0,1,1.532.339C19.044,34.418,25.184,38,32,38s12.956-3.582,15.64-9.126a1,1,0,0,1,1.532-.339,2.278,2.278,0,0,0,1.044.481,1.634,1.634,0,0,0,.417.028c1.529-.049,2.89-1.528,3.221-3.444.383-2.162-.618-4.155-2.232-4.446a1,1,0,0,1-.812-.844,19,19,0,0,0-37.62,0A1,1,0,0,1,12.378,21.154Zm18.5-9.146a1,1,0,0,1,1.118.866,7.053,7.053,0,0,0,.876,2.629A7.176,7.176,0,0,0,35.5,18.135a1,1,0,1,1-1,1.73A9.18,9.18,0,0,1,31.132,16.5a9.051,9.051,0,0,1-1.124-3.371A1,1,0,0,1,30.874,12.008Zm-3,2a1,1,0,0,1,1.118.866,7.053,7.053,0,0,0,.876,2.629A7.176,7.176,0,0,0,32.5,20.135a1,1,0,1,1-1,1.73A9.18,9.18,0,0,1,28.132,18.5a9.051,9.051,0,0,1-1.124-3.371A1,1,0,0,1,27.874,14.008Z"/><path d="M36.337,44.484l-.448-.05A1,1,0,0,1,35,43.44V39.779a20.472,20.472,0,0,1-6,0V43.44a1,1,0,0,1-.889.994l-.448.05a18.484,18.484,0,0,0,8.674,0Z"/><path d="M52.479,60,30.535,46.952c-2.91-.19-5.321-.948-6.565-2.056l-4.65.519L44.589,60Z"/><path d="M16.484,46.088a4.947,4.947,0,0,0-2.524,3.2L11.281,60H40.587Z"/><path d="M50.04,49.292a4.963,4.963,0,0,0-4.3-3.758L40.03,44.9a10.682,10.682,0,0,1-5.721,1.974L52.077,57.435Z"/></g></svg>
