<?xml version="1.0"?>
<svg xmlns="http://www.w3.org/2000/svg" viewBox="0 0 64 64" width="512" height="512"><g id="Boy-5" data-name="Boy"><path d="M50,19.968V15.914a19.182,19.182,0,0,0-2.118-4.369C45.339,7.7,41.159,5.077,35.8,3.979a3.135,3.135,0,0,0-1.539.41A5.738,5.738,0,0,1,32,5a5.786,5.786,0,0,1-2.258-.608A3.155,3.155,0,0,0,28.2,3.98c-5.35,1.084-9.528,3.7-12.084,7.571A19.13,19.13,0,0,0,14,15.915v4.053a3.476,3.476,0,0,0,3-3.438V12a1,1,0,0,1,2,0v6a1,1,0,0,0,1,1h2.777A3,3,0,0,1,22,17V13a1,1,0,0,1,2,0v4a1.006,1.006,0,0,0,.724.956A.97.97,0,0,0,25,18h1V11a1,1,0,0,1,2,0v6a1,1,0,0,0,1,1h6a1,1,0,0,0,1-1V11a1,1,0,0,1,2,0v7h1a.9.9,0,0,0,.256-.039A1.011,1.011,0,0,0,40,17V13a1,1,0,0,1,2,0v4a2.987,2.987,0,0,1-.78,2H44a1,1,0,0,0,1-1V12a1,1,0,0,1,2,0v4.53A3.476,3.476,0,0,0,50,19.968Z"/><polygon points="36 45.382 38 44.382 38 42 36 42 36 45.382"/><path d="M52.867,60,51.408,48.293a3.011,3.011,0,0,0-2.689-2.618L40,44.805V45a1,1,0,0,1-.553.9l-4,2a.976.976,0,0,1-1.253-.316l-.167.5.959,5.755A1.021,1.021,0,0,1,35,54v6h3V55a1,1,0,0,1,1-1h6a1,1,0,0,1,1,1v5Z"/><path d="M10.145,24.6c.332,1.921,1.693,3.4,3.167,3.446a1.775,1.775,0,0,0,.476-.026,2.271,2.271,0,0,0,1.04-.48,1,1,0,0,1,1.532.339C19.044,33.418,25.184,37,32,37s12.956-3.582,15.64-9.126a1,1,0,0,1,1.532-.339,2.278,2.278,0,0,0,1.044.481,1.59,1.59,0,0,0,.417.028c1.529-.049,2.89-1.528,3.221-3.444.352-1.984-.47-3.809-1.854-4.324V21a1,1,0,0,1-1,1h-.53a5.461,5.461,0,0,1-4.237-2.016A2.982,2.982,0,0,1,44,21H39a.99.99,0,0,1-1-1H37a.991.991,0,0,1-.713-.3A2.964,2.964,0,0,1,35,20H29a2.964,2.964,0,0,1-1.287-.3A.991.991,0,0,1,27,20H26a.99.99,0,0,1-1,1H20a2.982,2.982,0,0,1-2.233-1.016A5.461,5.461,0,0,1,13.53,22H13a1,1,0,0,1-1-1v-.724C10.616,20.791,9.794,22.615,10.145,24.6Z"/><polygon points="30.388 43 31.721 47 32.279 47 33.612 43 30.388 43"/><path d="M29,54a1.021,1.021,0,0,1,.014-.165l.959-5.755-.167-.5a.989.989,0,0,1-1.253.316l-4-2A1,1,0,0,1,24,45v-.2l-8.721.87A3.011,3.011,0,0,0,12.592,48.3L11.133,60H29Z"/><rect x="40" y="56" width="4" height="4"/><path d="M35,40V38.779a20.472,20.472,0,0,1-6,0V40a1,1,0,0,1,1,1h4A1,1,0,0,1,35,40Z"/><polygon points="28 45.382 28 42 26 42 26 44.382 28 45.382"/><polygon points="31.847 49 31 54.083 31 60 33 60 33 54.083 32.153 49 31.847 49"/></g></svg>
