<?xml version="1.0"?>
<svg xmlns="http://www.w3.org/2000/svg" viewBox="0 0 64 64" width="512" height="512"><g id="Boy-4" data-name="Boy"><path d="M19.4,20A5.714,5.714,0,0,1,17,16a4.971,4.971,0,0,1,4.386-4.936l.046-.007c.108-.012.211-.041.321-.046A1.567,1.567,0,0,1,22,11a3,3,0,1,1-2.817,4A2.964,2.964,0,0,0,19,16c0,1.208,2.2,3.241,4.111,3.84.124-.01.222-.019.271-.025,4.83-1.308,9.037-3.706,10.626-6.09.006-.009.015-.013.021-.022a1.1,1.1,0,0,1,.141-.14.927.927,0,0,1,.15-.131c.009-.006.014-.015.023-.02a.994.994,0,0,1,.13-.044,1.033,1.033,0,0,1,.212-.07,1.071,1.071,0,0,1,.179,0,1.041,1.041,0,0,1,.2.015,1.026,1.026,0,0,1,.2.08,1.041,1.041,0,0,1,.135.056c.008.006.013.015.021.022a.981.981,0,0,1,.141.14,1.083,1.083,0,0,1,.131.15c0,.009.015.014.02.023A13.025,13.025,0,0,0,40.5,18.335a15.346,15.346,0,0,0,10.222,1.514,18.983,18.983,0,0,0-37.445,0A53.134,53.134,0,0,0,19.4,20Z"/><circle cx="22" cy="14" r="1"/><path d="M10.145,25.6c.332,1.921,1.693,3.4,3.167,3.446a1.777,1.777,0,0,0,.476-.026,2.26,2.26,0,0,0,1.04-.48.875.875,0,0,1,.105-.055,1.045,1.045,0,0,1,.091-.07c.026-.012.054-.01.081-.021a1.025,1.025,0,0,1,.2-.05.975.975,0,0,1,.186-.017.992.992,0,0,1,.187.027.958.958,0,0,1,.18.055.927.927,0,0,1,.161.094.909.909,0,0,1,.156.128.806.806,0,0,1,.064.052.83.83,0,0,1,.054.1.8.8,0,0,1,.071.094C19.044,34.418,25.184,38,32,38s12.956-3.582,15.64-9.126a1.1,1.1,0,0,1,.071-.094.83.83,0,0,1,.054-.1c.018-.022.043-.031.063-.051a.9.9,0,0,1,.162-.133.981.981,0,0,1,.15-.088,1.279,1.279,0,0,1,.368-.084.92.92,0,0,1,.2.018.934.934,0,0,1,.192.049c.027.011.054.008.081.021s.058.049.091.069a1.057,1.057,0,0,1,.1.056,2.268,2.268,0,0,0,1.044.481,1.637,1.637,0,0,0,.417.028c1.529-.049,2.89-1.528,3.221-3.444a3.951,3.951,0,0,0-1.523-4.174,12.291,12.291,0,0,1-4.429.749,17.5,17.5,0,0,1-8.4-2.109,15.9,15.9,0,0,1-4.735-4.1c-2.216,2.375-6.247,4.533-10.955,5.8a59.037,59.037,0,0,1-6.217.269,30.655,30.655,0,0,1-6.151-.462A4.076,4.076,0,0,0,10.145,25.6Z"/><path d="M37.327,44.537,35.9,44.4a1,1,0,0,1-.9-1V39.782a20.751,20.751,0,0,1-6,0V43.4a1,1,0,0,1-.9,1l-1.426.142A11.157,11.157,0,0,0,32,46,11.157,11.157,0,0,0,37.327,44.537Z"/><path d="M51.408,48.293a3.011,3.011,0,0,0-2.689-2.618l-8.53-.852C38.641,46.591,35.106,48,32,48s-6.641-1.409-8.189-3.177l-8.532.852A3.011,3.011,0,0,0,12.592,48.3L11.133,60H52.867Zm-11.125.524A14.538,14.538,0,0,1,32,51a14.541,14.541,0,0,1-8.286-2.185,1,1,0,1,1,1.156-1.632A12.583,12.583,0,0,0,32,49a12.584,12.584,0,0,0,7.129-1.816,1,1,0,0,1,1.154,1.633Z"/></g></svg>
