<?xml version="1.0"?>
<svg xmlns="http://www.w3.org/2000/svg" viewBox="0 0 64 64" width="512" height="512"><g id="Boy-3" data-name="Boy"><path d="M32,40a21.113,21.113,0,0,1-3-.221V43.4a.977.977,0,0,1-.056.3,15.512,15.512,0,0,0,6.112,0A.977.977,0,0,1,35,43.4V39.779A21.113,21.113,0,0,1,32,40Z"/><rect x="39" y="55" width="6" height="5"/><path d="M49.866,16.024A19.344,19.344,0,0,0,32,4,19.115,19.115,0,0,0,14.423,15.849C18.566,13.432,24.853,12.04,32,12.04,39.354,12.04,45.736,13.5,49.866,16.024Z"/><path d="M25.94,44.611,15.28,45.675A3.01,3.01,0,0,0,12.592,48.3L11.132,60H37V54a1,1,0,0,1,1-1h8a1,1,0,0,1,1,1v6h5.868l-1.46-11.707a3.01,3.01,0,0,0-2.69-2.618L38.06,44.611C36.715,45.623,34.134,46,32,46S27.285,45.623,25.94,44.611Z"/><path d="M51.762,21.191A1,1,0,0,1,51,20.22v-.144c-.043-.275-.11-.541-.165-.811C47.465,16.031,40.311,14.04,32,14.04c-8.172,0-15.062,1.85-18.549,4.954-.08.37-.165.737-.222,1.115l-.046.248a1,1,0,0,1-.8.8c-1.613.291-2.615,2.284-2.233,4.442.332,1.92,1.692,3.4,3.166,3.445a1.789,1.789,0,0,0,.478-.026,2.274,2.274,0,0,0,1.04-.48,1,1,0,0,1,1.531.339C19.045,34.418,25.184,38,32,38s12.955-3.582,15.64-9.126a1,1,0,0,1,1.531-.339,2.28,2.28,0,0,0,1.045.481,1.642,1.642,0,0,0,.417.028c1.53-.049,2.89-1.528,3.221-3.444C54.216,23.539,53.277,21.563,51.762,21.191Z"/></g></svg>
