<?xml version="1.0"?>
<svg xmlns="http://www.w3.org/2000/svg" viewBox="0 0 64 64" width="512" height="512"><g id="Boy-2" data-name="Boy"><path d="M32,53a1,1,0,0,1-.6-.2L21.119,45.092l-5.84.583A3.01,3.01,0,0,0,12.592,48.3L11.132,60H52.868l-1.46-11.707a3.01,3.01,0,0,0-2.69-2.618l-5.837-.583L32.6,52.8A1,1,0,0,1,32,53Z"/><path d="M32,40a21.113,21.113,0,0,1-3-.221V43.4a.988.988,0,0,1-.413.79L32,46.75l3.413-2.56A.988.988,0,0,1,35,43.4V39.779A21.113,21.113,0,0,1,32,40Z"/><path d="M32,49a1,1,0,0,1-.6-.2l-5.57-4.178-1.768.176L32,50.75,39.938,44.8l-1.767-.176L32.6,48.8A1,1,0,0,1,32,49Z"/><path d="M51.622,21.154a1,1,0,0,1-.812-.844A19.067,19.067,0,0,0,32,4a18.762,18.762,0,0,0-6.839,1.288l-.342.855a4.984,4.984,0,0,0,0,3.714l.1.254A5,5,0,0,1,29,8a1,1,0,0,1,0,2,3,3,0,0,0-3,3,1,1,0,0,1-.811.982A1.024,1.024,0,0,1,25,14a1,1,0,0,1-.928-.628L22.963,10.6a6.973,6.973,0,0,1,0-5.2l.492-1.228A7.011,7.011,0,0,0,18,11a1,1,0,0,0,1,1h2a1,1,0,0,1,0,2H19a3,3,0,0,1-2.692-1.7,18.692,18.692,0,0,0-3.118,8.009,1,1,0,0,1-.812.846c-1.613.291-2.615,2.284-2.233,4.442.332,1.92,1.692,3.4,3.166,3.445a1.792,1.792,0,0,0,.478-.026,2.274,2.274,0,0,0,1.04-.48,1,1,0,0,1,1.531.339C19.045,34.418,25.184,38,32,38s12.955-3.582,15.64-9.126a1,1,0,0,1,1.531-.339,2.28,2.28,0,0,0,1.045.481,1.642,1.642,0,0,0,.417.028c1.53-.049,2.89-1.528,3.221-3.444C54.237,23.438,53.235,21.445,51.622,21.154Z"/></g></svg>
