<?xml version="1.0"?>
<svg xmlns="http://www.w3.org/2000/svg" viewBox="0 0 64 64" width="512" height="512"><g id="Boy"><path d="M29.168,45.445,30.132,44h-.844l-1.211,3.077,1.849,4.546a1,1,0,0,1-1.551,1.158l-5-4a1,1,0,0,1-.345-1.024l.469-1.875-8.1,1.775a1.087,1.087,0,0,1-.112.018,3.01,3.01,0,0,0-2.69,2.623L11.159,60H31V49.3l-1.832-2.748A1,1,0,0,1,29.168,45.445Z"/><polygon points="31.202 46 32 47.197 32.798 46 32 44.803 31.202 46"/><path d="M27.074,20.435a12.705,12.705,0,0,1,1.147-1.312.961.961,0,0,1,.074-.082c2.617-2.6,5.992-3.959,8.456-4.95.863-.346,1.608-.646,2.128-.924a1,1,0,0,1,1.415.554A7,7,0,0,0,47,18a7.894,7.894,0,0,0,3.131-.646A18.994,18.994,0,0,0,13.19,20.31a1,1,0,0,1-.812.844c-1.613.291-2.615,2.284-2.233,4.442.332,1.92,1.692,3.4,3.166,3.445a1.792,1.792,0,0,0,.478-.026,2.394,2.394,0,0,0,.426-.127A36.585,36.585,0,0,1,14,25a21.058,21.058,0,0,1,4.233-12.578,1,1,0,1,1,1.587,1.217A19.021,19.021,0,0,0,16,25a34.169,34.169,0,0,0,.262,4.313c.619,4.932,2.349,8.9,4.331,10.219a29.384,29.384,0,0,1-.62-3.819,3.186,3.186,0,0,1-.023-.353,3.955,3.955,0,0,1,.233-1.757,22.756,22.756,0,0,0,.83-2.569c.238-.835.485-1.7.74-2.383A19.835,19.835,0,0,1,25.6,22.3C26.053,21.736,26.542,21.134,27.074,20.435Z"/><path d="M26.074,47.46a1,1,0,0,1-.005-.743l1.615-4.1-1.052-.35-.683,2.051-.106.423,0,.011-.716,2.87,1.5,1.2Z"/><path d="M37.926,47.46l-.553,1.361,1.5-1.2-.844-3.377-.661-1.978-1.053.35,1.615,4.1A1,1,0,0,1,37.926,47.46Z"/><path d="M34,39.891c-.668.064-1.337.109-2,.109s-1.331-.044-2-.109V42h4Z"/><path d="M51.622,21.154a1,1,0,0,1-.812-.844c-.049-.344-.107-.672-.169-1A9.961,9.961,0,0,1,47,20a9.08,9.08,0,0,1-8.155-4.607c-.409.177-.861.358-1.347.554-2.282.917-5.4,2.17-7.719,4.44a.971.971,0,0,1-.081.089,10.573,10.573,0,0,0-1.032,1.17c-.545.717-1.048,1.336-1.516,1.913a18,18,0,0,0-3.523,5.79c-.228.611-.463,1.436-.69,2.234a23.281,23.281,0,0,1-.925,2.827,2.112,2.112,0,0,0-.066.668,17.389,17.389,0,0,0,4.37,2.057,16.174,16.174,0,0,0,1.874.483c.327.069.636.116.955.163a18.807,18.807,0,0,0,5.7,0c.325-.048.634-.095.944-.16A16.7,16.7,0,0,0,47.64,28.874a1,1,0,0,1,1.531-.339,2.28,2.28,0,0,0,1.045.481,1.642,1.642,0,0,0,.417.028c1.53-.049,2.89-1.528,3.221-3.444C54.237,23.438,53.235,21.445,51.622,21.154Z"/><rect x="38" y="56" width="10" height="1"/><path d="M51.41,50.32a3.029,3.029,0,0,0-2.69-2.65.375.375,0,0,1-.11-.01L40.5,45.88l.47,1.88a.994.994,0,0,1-.35,1.02l-5,4A.961.961,0,0,1,35,53a1.029,1.029,0,0,1-.6-.2,1.012,1.012,0,0,1-.33-1.18l1.85-4.54L34.71,44h-.84l.96,1.45a.963.963,0,0,1,0,1.1L33,49.3V60H52.84ZM50,58a1,1,0,0,1-1,1H37a1,1,0,0,1-1-1V55a1,1,0,0,1,1-1H49a1,1,0,0,1,1,1Z"/></g></svg>
