<?xml version="1.0"?>
<svg xmlns="http://www.w3.org/2000/svg" viewBox="0 0 64 64" width="512" height="512"><g id="Boy-8" data-name="Boy"><path d="M36.422,44.357l-.651-.154A1,1,0,0,1,35,43.23V39.782a20.751,20.751,0,0,1-6,0V43.23a1,1,0,0,1-.771.973l-.651.154A5.989,5.989,0,0,0,32,46,5.989,5.989,0,0,0,36.422,44.357Z"/><path d="M48.687,24.031a45.77,45.77,0,0,1-11.5-1.675A41.66,41.66,0,0,1,24.425,16.57,10.044,10.044,0,0,1,20.5,20.326a10.9,10.9,0,0,1-5.479,1.579C15.007,22.349,15,22.761,15,23a13.244,13.244,0,0,0,1.061,5.218c.1.232.2.446.3.661C19.045,34.418,25.184,38,32,38s12.955-3.582,15.64-9.126l.139-.307c.064-.129.11-.217.147-.314a13.317,13.317,0,0,0,1.023-4.228C48.86,24.026,48.776,24.031,48.687,24.031Z"/><path d="M19.5,18.6A7.22,7.22,0,0,0,23.04,14.72a1,1,0,0,1,1.586-.5,37.747,37.747,0,0,0,13.084,6.2A41.409,41.409,0,0,0,49.93,22c.591-.03,1.46-.082,2.363-.157-.307-.086-.617-.175-.926-.265h0A25.325,25.325,0,0,1,46.5,19.755c-4.218-2.429-7.535-5.435-8.655-7.843a1,1,0,1,1,1.814-.843c.94,2.022,4.018,4.752,7.842,6.954a16.686,16.686,0,0,0,2.879,1.158C48.19,10.548,40.41,4,32,4A18.872,18.872,0,0,0,13.339,19.508C14.471,20.206,16.926,20.085,19.5,18.6Z"/><path d="M12.25,21.2c-1.535.375-2.477,2.3-2.105,4.4.332,1.92,1.692,3.4,3.166,3.445a1.792,1.792,0,0,0,.478-.026,2.305,2.305,0,0,0,.391-.123A15.225,15.225,0,0,1,13,23c0-.313.01-.863.032-1.431A4.176,4.176,0,0,1,12.25,21.2Z"/><path d="M53.9,23.694c-.991.114-2.072.2-2.944.252a15.183,15.183,0,0,1-.989,4.554,2.293,2.293,0,0,0,.253.076,1.634,1.634,0,0,0,.416.028c1.53-.049,2.89-1.528,3.221-3.444A5.108,5.108,0,0,0,53.9,23.694Z"/><path d="M51,51.75a4.984,4.984,0,0,0-3.851-4.867l-5.66-1.333C40.178,48.8,36.437,51,32,51s-8.178-2.2-9.489-5.45l-5.662,1.334A4.982,4.982,0,0,0,13,51.75V60H51Z"/><path d="M32,49c3.478,0,6.405-1.568,7.516-3.915L38.5,44.847C37.469,46.717,34.918,48,32,48s-5.469-1.282-6.5-3.153l-1.014.238C25.6,47.432,28.522,49,32,49Z"/></g></svg>
