<?xml version="1.0"?>
<svg xmlns="http://www.w3.org/2000/svg" viewBox="0 0 64 64" width="512" height="512"><g id="Girl-15" data-name="Girl"><path d="M48,32.155a19.16,19.16,0,0,1-11,7.226V41h1a.985.985,0,0,1,.993,1h5.2a6.906,6.906,0,0,1,1.9.275A31.054,31.054,0,0,0,48,32.155Z"/><path d="M35.412,58.185A12.912,12.912,0,0,0,38,50a15.436,15.436,0,0,0-.527-3.99l-.544,1.362A1,1,0,0,1,36,48h-.847l.837,5.858a1.039,1.039,0,0,1,0,.284Z"/><path d="M43.793,47.427c.57-1.06,1.086-2.16,1.557-3.285A4.905,4.905,0,0,0,44.19,44H40.414l3.293,3.293A.927.927,0,0,1,43.793,47.427Z"/><path d="M35,41V39.781a20.657,20.657,0,0,1-6,0V41h1a1,1,0,0,1,1,1h2a1,1,0,0,1,1-1Z"/><path d="M30.01,54l.826,5.78a3.565,3.565,0,0,0,2.328,0L33.99,54l-.857-6H30.867Z"/><path d="M40.79,50.908l.6.359c.387-.536.766-1.082,1.128-1.654Z"/><path d="M34.041,26.442c-3.584-.466-10.926-3.218-15.667-6.807a32.413,32.413,0,0,0-2.186,8.86C18.729,34.188,25.043,38,32,38s13.273-3.813,15.813-9.508a32.777,32.777,0,0,0-1.01-5.4c-3.71,2.149-9.671,1.825-15.76-.789a26.567,26.567,0,0,0,3.587,2.255,1,1,0,0,1-.589,1.88Z"/><path d="M14.137,53.215,12.627,60h7.715A34.433,34.433,0,0,1,14.137,53.215Z"/><path d="M42.309,54.151l-2.506-1.5a14.931,14.931,0,0,1-1.743,5.221Z"/><path d="M41.478,47.892l-1.965-1.965a17.319,17.319,0,0,1,.44,3.108Z"/><rect x="31" y="44" width="2" height="2"/><path d="M23.212,50.909l-2.674-2c.5.943,1.024,1.838,1.569,2.668Z"/><path d="M24.2,52.649l-2.5,1.505,4.244,3.713A14.906,14.906,0,0,1,24.2,52.649Z"/><path d="M24.047,49.035a17.372,17.372,0,0,1,.439-3.107l-1.964,1.964Z"/><path d="M50.572,52.2A34.091,34.091,0,0,1,43.641,60h8.515Z"/><path d="M55,32C55,16.561,44.682,4,32,4S9,16.561,9,32a35.561,35.561,0,0,0,5.522,18.187A31.373,31.373,0,0,0,23.725,60h1.614l-6-5.248a1,1,0,0,1,.147-1.611l.9-.54a40.371,40.371,0,0,1-4.174-8.643A36.449,36.449,0,0,1,14,32a35.047,35.047,0,0,1,3.018-14.27c0-.012.011-.022.015-.034a31.147,31.147,0,0,1,2.621-4.71,1,1,0,0,1,1.652,1.127,28.869,28.869,0,0,0-2.093,3.633,37.115,37.115,0,0,0,9.17,5.008c-.743-.622-1.466-1.283-2.16-1.977A32.961,32.961,0,0,1,23.665,17.9a1,1,0,0,1,1.4-1.408,29.441,29.441,0,0,0,3.434,2.3c6.992,4.039,14.819,4.868,18.206,1.932a.985.985,0,0,1,.922-.208,1,1,0,0,1,.684.653,34.551,34.551,0,0,1,1.524,7.394A34.051,34.051,0,0,1,50,32a33.443,33.443,0,0,1-2.378,11.912c-.007.019-.016.037-.024.055h0a38.43,38.43,0,0,1-4.491,8.33l1.408.845a1,1,0,0,1,.144,1.609l-6,5.248h1.591C48.539,54.687,55,42.457,55,32Z"/><path d="M17.777,42.319A6.807,6.807,0,0,1,19.81,42h5.2A.985.985,0,0,1,26,41h1V39.381a19.157,19.157,0,0,1-11-7.226A33.925,33.925,0,0,0,17.777,42.319Z"/><polygon points="29 43 27.475 43 28.677 46 29 46 29 43"/><path d="M28.847,48H28a1,1,0,0,1-.928-.628l-.546-1.364A15.466,15.466,0,0,0,26,50a12.914,12.914,0,0,0,2.588,8.187l-.578-4.045a1.039,1.039,0,0,1,0-.284Z"/><path d="M20.293,47.293,23.586,44H19.81a4.83,4.83,0,0,0-1.375.206c.475,1.272,1.01,2.514,1.592,3.7A.985.985,0,0,1,20.293,47.293Z"/><polygon points="36.523 43 35 43 35 46 35.323 46 36.523 43"/></g></svg>
