<?xml version="1.0"?>
<svg xmlns="http://www.w3.org/2000/svg" viewBox="0 0 64 64" width="512" height="512"><g id="Girl-6" data-name="Girl"><path d="M35.94,43.241l4.941.412H40.9l1.031.086-2.992-2.494Z"/><polygon points="21.501 43.728 28.035 43.226 25.02 41.215 21.501 43.728"/><path d="M18,46a.993.993,0,0,1-.859-.511l-1.861.186A3.009,3.009,0,0,0,12.592,48.3L11.132,60H52.868l-1.46-11.706a3.009,3.009,0,0,0-2.69-2.619l-2.8-.281A1,1,0,0,1,45,46a.781.781,0,0,1-.083,0l-3.784-.315a14.462,14.462,0,0,1-3.758,2.246c-.409.166-.841.3-1.278.432A13.963,13.963,0,0,1,40,57a1,1,0,0,1-2,0,12.256,12.256,0,0,0-2.382-6.2A25.8,25.8,0,0,1,36,56.352L36,57a1,1,0,0,1-2,0l0-.664a21.068,21.068,0,0,0-.512-5.748,2.9,2.9,0,0,1-2.982,0A21.068,21.068,0,0,0,30,56.336L30,57a1,1,0,0,1-2,0l0-.648a25.8,25.8,0,0,1,.385-5.549A12.256,12.256,0,0,0,26,57a1,1,0,0,1-2,0,13.963,13.963,0,0,1,3.9-8.641c-.437-.13-.87-.266-1.278-.432a14.491,14.491,0,0,1-3.818-2.294L18.077,46Z"/><circle cx="32" cy="48" r="1"/><path d="M34.67,46.66a12.78,12.78,0,0,0,1.955-.587,12.384,12.384,0,0,0,1.352-.655L32.964,45H32A2.994,2.994,0,0,1,34.67,46.66Z"/><path d="M27.374,46.072a12.683,12.683,0,0,0,1.956.588A2.994,2.994,0,0,1,32,45h-.961l-5.066.39A12.318,12.318,0,0,0,27.374,46.072Z"/><path d="M32.7,43,35,41.465V39.779a20.472,20.472,0,0,1-6,0v1.686L31.3,43Z"/><path d="M47.64,28.874a1,1,0,0,1,1.532-.34,2.265,2.265,0,0,0,1.043.482,1.858,1.858,0,0,0,.421.028c1.527-.049,2.887-1.528,3.218-3.444a4.38,4.38,0,0,0-.828-3.6c-2.936.884-7.6.675-12.72-.611l-.008,0h-.006c-1.152-.295-2.114-.577-3.027-.89a41.381,41.381,0,0,1-3.885-1.469c-.975-.424-1.914-.877-2.791-1.345l-.173-.093c-.343-.184-.679-.364-1.006-.559a49.768,49.768,0,0,1-5.15-3.4A14.048,14.048,0,0,1,22.4,15.7a21.371,21.371,0,0,1-3.9,2.835,70.1,70.1,0,0,1-7.864,3.943,4.606,4.606,0,0,0-.491,3.116c.332,1.921,1.692,3.4,3.166,3.445a1.631,1.631,0,0,0,.478-.025,2.258,2.258,0,0,0,1.039-.481,1,1,0,0,1,.632-.224.995.995,0,0,1,.9.564C19.044,34.418,25.184,38,32,38S44.956,34.418,47.64,28.874Z"/><path d="M50.845,20.425a.9.9,0,0,1-.035-.115A18.994,18.994,0,0,0,13.439,19c1.506-.763,3.017-1.589,4.061-2.191a19.458,19.458,0,0,0,3.539-2.566,10.376,10.376,0,0,0,2.079-2.549,1,1,0,0,1,1.505-.311,47.243,47.243,0,0,0,5.8,3.926c.1.058.2.109.295.164L35.1,8.46a1,1,0,0,1,1.347-.336l2.6,1.5a1,1,0,0,1,.347,1.4l-4.139,6.612q.936.375,1.879.7l3.947-6.843a1,1,0,0,1,1.366-.366l2.6,1.5a1,1,0,0,1,.366,1.366l-3.322,5.755A27.553,27.553,0,0,0,50.845,20.425Z"/><path d="M59.8,45.954c-1.123-1.422-3.175-4.048-1.813-7.346A36.583,36.583,0,0,0,60.42,25c0-11.383-4.58-21-10-21-.62,0-2.472.014-2.731,5.1a20.788,20.788,0,0,1,5,10.285,4.3,4.3,0,0,1,1.041.585.985.985,0,0,1,.335.265,6.2,6.2,0,0,1,1.762,5.714c-.5,2.875-2.631,5.02-5.074,5.1a3.527,3.527,0,0,1-.882-.055,4.267,4.267,0,0,1-.673-.2C50.965,38.709,55.617,45.343,59.8,45.954Z"/><path d="M39.076,18.975c.317.095.644.189.99.283l3.118-5.4-.867-.5Z"/><path d="M32.488,16.4c.3.147.6.29.91.433l3.754-6-.866-.5Z"/></g></svg>
