<?xml version="1.0"?>
<svg xmlns="http://www.w3.org/2000/svg" viewBox="0 0 64 64" width="512" height="512"><g id="Girl-5" data-name="Girl"><path d="M38.026,49.712,35,50.721v2.558l3.026,1.009-.473-.946a3.02,3.02,0,0,1,0-2.683Z"/><path d="M32.7,43,35,41.465V39.779a20.472,20.472,0,0,1-6,0v1.686L31.3,43Z"/><polygon points="30.93 49 33.07 49 35.981 45.251 32.964 45 31.039 45 28.001 45.234 30.93 49"/><path d="M46.85,11.179a18.949,18.949,0,0,0-29.69-.013A33.387,33.387,0,0,1,32,8,33.291,33.291,0,0,1,46.85,11.179Z"/><path d="M49.584,15.842c-.04-.1-.074-.2-.115-.3C46.33,12.15,39.544,10,32,10c-7.586,0-14.408,2.174-17.468,5.545-.044.1-.079.208-.121.311C18.736,13.428,25.135,12,32,12S45.29,13.435,49.584,15.842Z"/><path d="M35.88,19.223A6.238,6.238,0,0,0,36,18a5.491,5.491,0,0,0-1.55-3.933C33.642,14.026,32.826,14,32,14s-1.642.026-2.45.067A5.493,5.493,0,0,0,28,18a6.116,6.116,0,0,0,.153,1.349,8.341,8.341,0,0,1,.885-2.633l.006-.017.006-.009c.016-.028.026-.059.042-.086a.933.933,0,0,1,.1-.111.919.919,0,0,1,.129-.148.958.958,0,0,1,.163-.1.948.948,0,0,1,.166-.082,1.007,1.007,0,0,1,.191-.036,1.029,1.029,0,0,1,.184-.013,1.006,1.006,0,0,1,.2.043.96.96,0,0,1,.139.031c.017.007.028.022.044.03s.035.008.052.017a1.028,1.028,0,0,1,.111.1,1.014,1.014,0,0,1,.148.129,1.056,1.056,0,0,1,.1.162.678.678,0,0,1,.117.357.959.959,0,0,1,.014.186.9.9,0,0,1-.043.2.864.864,0,0,1-.03.141,1.507,1.507,0,0,0,.048,1.117,1.66,1.66,0,0,0,.8.817A3.11,3.11,0,0,1,32.868,20.5a4.865,4.865,0,0,1,.092,3.248A6.927,6.927,0,0,0,35.88,19.223Z"/><polygon points="25.02 41.215 21.502 43.728 28.035 43.226 25.02 41.215"/><polygon points="41.927 43.74 38.934 41.246 35.94 43.241 41.927 43.74"/><path d="M51.622,21.154a1,1,0,0,1-.812-.844c-.069-.486-.167-.961-.271-1.434-2.852-2.327-7.761-3.978-13.465-4.6A7.889,7.889,0,0,1,38,18a8.3,8.3,0,0,1-.159,1.615C37.208,22.755,34.851,26,32,26a4.859,4.859,0,0,1-.573-.041h-.008c-.009,0-.018,0-.026,0-.043-.006-.088,0-.13-.01-.012,0-.02-.009-.031-.011a1,1,0,0,1-.31-.109s-.008-.008-.013-.011a.993.993,0,0,1-.179-.157,1.015,1.015,0,0,1-.112-.105,7.363,7.363,0,0,1-.164-.344.919.919,0,0,1-.01-.139.96.96,0,0,1-.011-.251c0-.006,0-.011,0-.017a.927.927,0,0,1,.064-.174.911.911,0,0,1,.056-.167,4.554,4.554,0,0,0,.569-2.986,1.823,1.823,0,0,0-.469-.357,6.193,6.193,0,0,1-.633-.46c0,.114-.02.226-.02.341a7.48,7.48,0,0,0,.2,1.755c0,.021,0,.04,0,.061a1.029,1.029,0,0,1,.008.208,1.075,1.075,0,0,1-.015.18,1.032,1.032,0,0,1-.064.173,1.011,1.011,0,0,1-.094.182c-.012.017-.015.038-.028.055s-.055.038-.08.063a.94.94,0,0,1-.366.238.911.911,0,0,1-.1.047,1.01,1.01,0,0,1-.237.028.982.982,0,0,1-.329-.057,1,1,0,0,1-.288-.158l-.006,0A7.378,7.378,0,0,1,26,18a7.9,7.9,0,0,1,.926-3.723c-5.678.62-10.574,2.265-13.466,4.606-.1.47-.2.943-.27,1.427a1,1,0,0,1-.812.844c-1.614.291-2.615,2.284-2.233,4.441.332,1.921,1.693,3.4,3.167,3.445a1.626,1.626,0,0,0,.476-.025,2.26,2.26,0,0,0,1.04-.48,1,1,0,0,1,1.532.339C19.044,34.418,25.184,38,32,38s12.956-3.582,15.64-9.126a1,1,0,0,1,1.532-.339,2.269,2.269,0,0,0,1.043.481,1.8,1.8,0,0,0,.42.028c1.527-.049,2.888-1.528,3.219-3.444C54.237,23.438,53.236,21.445,51.622,21.154Z"/><path d="M36.218,48.207l3.466-1.155a1,1,0,0,1,1.211,1.4l-1.553,3.106a1.006,1.006,0,0,0,0,.9l1.553,3.1A1,1,0,0,1,40,57a.987.987,0,0,1-.316-.052L33.839,55H30.161l-5.845,1.948A.987.987,0,0,1,24,57a1,1,0,0,1-.895-1.447l1.553-3.106a1.006,1.006,0,0,0,0-.9l-1.553-3.1a1,1,0,0,1,1.211-1.4l3.463,1.154-2.168-2.788L18.077,46,18,46a.992.992,0,0,1-.859-.511l-1.862.186A3.011,3.011,0,0,0,12.592,48.3L11.133,60H52.867L51.408,48.294a3.011,3.011,0,0,0-2.689-2.619l-2.8-.281A1,1,0,0,1,45,46a.781.781,0,0,1-.083,0l-6.558-.546Z"/><rect x="31" y="51" width="2" height="2"/><path d="M25.974,54.288,29,53.279V50.721l-3.026-1.009.473.946a3.02,3.02,0,0,1,0,2.683Z"/></g></svg>
