<?xml version="1.0"?>
<svg xmlns="http://www.w3.org/2000/svg" viewBox="0 0 64 64" width="512" height="512"><g id="Girl-4" data-name="Girl"><path d="M35,43.4V39.76A21.113,21.113,0,0,1,32,40a21.113,21.113,0,0,1-3-.24V43.4a1,1,0,0,1-.9,1l-1.426.142A11.164,11.164,0,0,0,32,46a11.164,11.164,0,0,0,5.326-1.462L35.9,44.4A1,1,0,0,1,35,43.4Z"/><path d="M49.868,30.985a4.275,4.275,0,0,1-.934-.279A18.763,18.763,0,0,1,37,39.375V40h4V39a1,1,0,0,1,2,0v1h2V37a1,1,0,0,1,2,0v3h2V34a1,1,0,0,1,2,0v6h2V30.34a4.575,4.575,0,0,1-2.249.7A3.318,3.318,0,0,1,49.868,30.985Z"/><path d="M23.811,44.823l-8.532.852A3.011,3.011,0,0,0,12.592,48.3L11.133,60H52.867L51.408,48.294a3.011,3.011,0,0,0-2.689-2.619l-8.53-.852C38.641,46.592,35.107,48,32,48S25.359,46.592,23.811,44.823Z"/><path d="M27,39.375a18.763,18.763,0,0,1-11.934-8.669,4.194,4.194,0,0,1-.931.278,3.52,3.52,0,0,1-.94.052,4.445,4.445,0,0,1-2.2-.7V40h2V34a1,1,0,0,1,2,0v6h2V37a1,1,0,0,1,2,0v3h2V39a1,1,0,0,1,2,0v1h4Z"/><path d="M50.836,24.293a4.05,4.05,0,0,1-2.843,1.172,3.97,3.97,0,0,1-2-.54,4.016,4.016,0,0,1-1.863-4.5A4.054,4.054,0,0,1,43.55,20H40a1,1,0,0,1-.98-.8L38,14.1l-1.02,5.1A1,1,0,0,1,36,20H28a1,1,0,0,1-.98-.8L26,14.1l-1.02,5.1A1,1,0,0,1,24,20H13.244c-.007.049-.017.095-.024.145l-.033.187a1,1,0,0,1-.809.822c-1.614.291-2.615,2.284-2.233,4.441.332,1.921,1.693,3.4,3.167,3.445a1.626,1.626,0,0,0,.476-.025,2.26,2.26,0,0,0,1.04-.48,1,1,0,0,1,1.531.338A16.7,16.7,0,0,0,28.2,37.619a19.24,19.24,0,0,0,7.605,0,16.7,16.7,0,0,0,11.839-8.746,1,1,0,0,1,1.531-.338,2.269,2.269,0,0,0,1.043.481,1.8,1.8,0,0,0,.42.028,3.211,3.211,0,0,0,2.521-1.621,5,5,0,0,0,.7-1.823,5.258,5.258,0,0,0,.073-.932A4.064,4.064,0,0,1,50.836,24.293Z"/><path d="M54.48,17.72a2.048,2.048,0,0,0,.92-1.2A2.016,2.016,0,0,0,55.19,15a1.968,1.968,0,0,0-2.14-.95.994.994,0,0,1-1.16-.68A1.969,1.969,0,0,0,50,12a2,2,0,0,0-2,1.96,1,1,0,0,1-1.31,1.09,2.015,2.015,0,0,0-1.55.18,2.007,2.007,0,0,0-.47,3.09,1.949,1.949,0,0,0,.95.57.991.991,0,0,1,.75.61.98.98,0,0,1-.1.95.219.219,0,0,1-.03.05,2,2,0,0,0,3.49,1.97.989.989,0,0,1,1.47-.42,1.794,1.794,0,0,1,.25.23,1.985,1.985,0,0,0,2.64.1c.07-.06.11-.09.15-.13a2,2,0,0,0,0-2.83c-.04-.05-.15-.17-.19-.22a1.036,1.036,0,0,1-.12-.89A1.06,1.06,0,0,1,54.48,17.72ZM50,21a3,3,0,1,1,3-3A3.009,3.009,0,0,1,50,21Z"/><circle cx="50" cy="18" r="1"/><path d="M17,14a1,1,0,0,1,2,0v4h4.181L25.02,8.8v0a.856.856,0,0,1,.336-.547.833.833,0,0,1,.085-.083,1,1,0,0,1,1.539.63v0L28.819,18h6.362L37.02,8.8v0a1.008,1.008,0,0,1,.15-.359.986.986,0,0,1,.182-.183.821.821,0,0,1,.089-.088,1,1,0,0,1,1.539.63v0L40.819,18h1.455a4,4,0,0,1,3.851-5.034h.011a3.977,3.977,0,0,1,.874-1.61A18.989,18.989,0,0,0,13.679,18H17Z"/></g></svg>
