<?xml version="1.0"?>
<svg xmlns="http://www.w3.org/2000/svg" viewBox="0 0 64 64" width="512" height="512"><g id="Girl-3" data-name="Girl"><path d="M36.08,60H50.87l-1.2-9.62A5.017,5.017,0,0,0,44.7,46H41.1l-6.17,4.94c.4.91.73,1.89.99,2.66A22.353,22.353,0,0,1,37,58.92,1.007,1.007,0,0,1,36.08,60ZM39,54h8a1,1,0,0,1,0,2H39a1,1,0,0,1,0-2Z"/><path d="M29.07,50.94,22.9,46H19.3a5.017,5.017,0,0,0-4.97,4.38L13.13,60H27.92A1.007,1.007,0,0,1,27,58.92a22.165,22.165,0,0,1,1.05-5.23C28.33,52.85,28.66,51.85,29.07,50.94ZM18,56H16a1,1,0,0,1,0-2h2a1,1,0,0,1,0,2Zm8,0H21a1,1,0,0,1,0-2h5a1,1,0,0,1,0,2Z"/><path d="M35,59.076a20.1,20.1,0,0,0-.953-4.763c-.212-.639-.463-1.377-.744-2.077L33,52.481V58a1,1,0,0,1-2,0V52.481l-.306-.245c-.278.693-.522,1.41-.716,1.993A20.279,20.279,0,0,0,29,59.076,1,1,0,0,1,28,60h8A1,1,0,0,1,35,59.076Z"/><polygon points="28.307 45 24.851 45 29.788 48.95 28.307 45"/><path d="M32,49.151l2.063-5.5A1,1,0,0,1,35,43V39.847A22.855,22.855,0,0,1,32.5,40a22.61,22.61,0,0,1-3.5-.267V43a1,1,0,0,1,.937.648Z"/><path d="M40.379,29.935A1,1,0,0,1,40.03,30h-.02a1,1,0,0,1-.529-1.854A12.727,12.727,0,0,0,43,23.135c-.112.138-.227.262-.34.393-.084.1-.167.2-.252.29-.147.16-.3.3-.446.451-.08.078-.158.163-.239.237-.153.141-.307.265-.461.39-.078.063-.155.134-.232.193-.166.125-.33.23-.495.335-.044.029-.088.063-.132.09a.986.986,0,0,1-.607.216h-.02c-.012,0-.023-.006-.035-.006a1.014,1.014,0,0,1-.23-.043,1.157,1.157,0,0,1-.116-.029,1.009,1.009,0,0,1-.31-.2.988.988,0,0,1-.172-1.193q.021-.042.045-.081A8.691,8.691,0,0,0,40,20.073a.938.938,0,0,1,.016-.14c.005-.141,0-.287,0-.433a10.608,10.608,0,0,0-.7-3.976c-.012-.029-.009-.022,0-.012-.015-.029-.029-.058-.042-.088A4.97,4.97,0,0,0,39,14.882V21a1,1,0,0,1-1,1H26a1,1,0,0,1-1-1V14.882a4.97,4.97,0,0,0-.271.542c-.009.022-.02.045-.031.066s-.028.066-.044.1A10.634,10.634,0,0,0,23.98,19.5c0,.143,0,.285,0,.424A.641.641,0,0,1,24,20c0,.013,0,.025-.006.038s.006.041.006.062a8.663,8.663,0,0,0,1.038,4.08.917.917,0,0,1,.048.087h0a.987.987,0,0,1-.176,1.187,1.009,1.009,0,0,1-.31.2,1.1,1.1,0,0,1-.113.028.955.955,0,0,1-.235.044c-.011,0-.022.006-.033.006H24.2a.984.984,0,0,1-.613-.221,7.286,7.286,0,0,1-.627-.424c-.078-.06-.156-.133-.234-.2-.153-.125-.307-.248-.46-.389-.093-.085-.184-.184-.276-.275-.138-.136-.275-.268-.411-.416-.1-.107-.194-.226-.291-.339-.112-.13-.225-.252-.334-.389a12.994,12.994,0,0,0,3.589,5.105,1,1,0,0,1-.857,1.769c-.144-.04-.4-.09-.707-.154-.683-.14-1.347-.282-1.941-.444.1.564.207,1.131.309,1.686.224,1.214.433,2.351.583,3.265a11.386,11.386,0,0,0,6.281,3.245,20.9,20.9,0,0,0,7.628.179,13.636,13.636,0,0,0,6.224-2.466c.264-1.234,1.291-4.447,2.087-6.865A21.159,21.159,0,0,1,40.379,29.935Z"/><polygon points="34.212 48.95 39.149 45 35.693 45 34.212 48.95"/><path d="M52,34.648c.234.866.594,2.288.848,3.715.812-3.027.568-7.118.345-10.853C53.091,25.894,53,24.366,53,23,53,12.523,43.58,4,32,4S11,12.523,11,23c0,1.366-.091,2.894-.188,4.51-.217,3.639-.454,7.616.285,10.618.18-.821.412-1.7.655-2.614a28.614,28.614,0,0,0,1.258-6.987A1,1,0,0,1,14,27.52h.009a1,1,0,0,1,1,.992,25.916,25.916,0,0,1-1.041,6.428v0a7.874,7.874,0,0,0,.426,2.784c.083.249.182.479.279.7a8.953,8.953,0,0,0,.614,1.127,10.748,10.748,0,0,1-.107-2.3,13.175,13.175,0,0,1,1.259-4.225,1,1,0,0,1,1.505-.386l.62.46a1,1,0,0,1,.4.835,7.874,7.874,0,0,0,.426,2.784c.083.249.182.479.279.7a8.953,8.953,0,0,0,.614,1.127,10.748,10.748,0,0,1-.107-2.3,3.532,3.532,0,0,0-.036-.384c-.028-.255-.075-.583-.14-.947-.152-.957-.382-2.2-.626-3.522-.212-1.152-.435-2.361-.626-3.477a1,1,0,0,1,1.61-.949,2.364,2.364,0,0,0,.64.285A15.555,15.555,0,0,1,17.99,18.37c0-.245,0-.49.011-.724l.009-.362a1,1,0,0,1,1.961-.25A13.537,13.537,0,0,0,21.266,20a15.163,15.163,0,0,0,.835,1.275c-.039-.334-.08-.666-.1-1.015a1.143,1.143,0,0,1-.013-.116c-.012-.206-.012-.425-.012-.644a12.643,12.643,0,0,1,.857-4.745c.021-.05.043-.107.075-.167C23.63,12.942,24.747,12,25.98,12A1.017,1.017,0,0,1,27,13v7H37V13a1,1,0,0,1,1-1c1.261,0,2.384.955,3.1,2.62a.97.97,0,0,1,.045.1,12.643,12.643,0,0,1,.873,4.78c0,.219,0,.438-.012.644a1.124,1.124,0,0,1-.015.13c-.017.347-.059.675-.1,1A15.161,15.161,0,0,0,42.736,20a13.54,13.54,0,0,0,1.293-2.963,1,1,0,0,1,1.961.276v.36c.01.2.01.446.01.69a15.664,15.664,0,0,1-2.483,8.114,11.8,11.8,0,0,0,1.8-1.194,1.035,1.035,0,0,1,.154-.1.963.963,0,0,1,.116-.076,1.029,1.029,0,0,1,.236-.065.99.99,0,0,1,.132-.025c.017,0,.032-.01.049-.01a.988.988,0,0,1,.23.046c.03.007.06,0,.09.011a.14.14,0,0,0,.016.01.992.992,0,0,1,.277.16c.018.015.041.023.058.039a.978.978,0,0,1,.178.234.887.887,0,0,1,.051.074.99.99,0,0,1,.058.212.956.956,0,0,1,.035.177A.3.3,0,0,1,47,26v.01a1.794,1.794,0,0,0-.053.32c-1.072,3.175-2.8,8.485-2.948,9.447l0,.077,0,.028c0,.024,0,.047,0,.06-.016.11-.03.193-.032.255a10.27,10.27,0,0,1-.08,2.07,8.889,8.889,0,0,0,.522-.981l.046-.112c.075-.178.153-.362.219-.551a7.554,7.554,0,0,1,.793-1.519,4.427,4.427,0,0,0,.556-1.059,1,1,0,0,1,1.9-.166,11.041,11.041,0,0,1,.9,3.379,10.8,10.8,0,0,1-.106,2.295,9.083,9.083,0,0,0,.618-1.136c.092-.212.191-.442.271-.683a7.883,7.883,0,0,0,.429-2.792A1,1,0,0,1,52,34.648Z"/></g></svg>
