<?xml version="1.0"?>
<svg xmlns="http://www.w3.org/2000/svg" viewBox="0 0 64 64" width="512" height="512"><g id="Girl-2" data-name="Girl"><path d="M13.2,31.036A4.988,4.988,0,0,1,9.6,29.119,7,7,0,0,1,8.173,25.93c-.519-2.929.856-5.7,3.131-6.547a20.4,20.4,0,0,1,2.206-6.361C8.184,13.642,4,19.206,4,25.96a28.974,28.974,0,0,0,.657,6.765c.063-.609.113-1.205.113-1.725a20.9,20.9,0,0,1,.242-3.227,1,1,0,0,1,1.958-.086L9.551,38h2l-.8-3.952a1,1,0,0,1,1.8-.769L16.4,38.814l1.2-.4-3.7-7.4A3.454,3.454,0,0,1,13.2,31.036Z"/><path d="M32,53.49a.993.993,0,0,1-.707-.293l-7.65-7.65-8.215,2.1a.915.915,0,0,1-.146.027,3.009,3.009,0,0,0-2.69,2.623L11.159,60H52.841l-1.43-9.684a3.016,3.016,0,0,0-2.693-2.641.915.915,0,0,1-.146-.027l-8.215-2.1-7.65,7.65A.993.993,0,0,1,32,53.49Z"/><path d="M26.2,14.732a43.15,43.15,0,0,0,5.177-3.486,1,1,0,0,1,1.242,0,43.2,43.2,0,0,0,5.18,3.488,36.747,36.747,0,0,0,13,4.3,18.641,18.641,0,0,0-2.872-6.473q-.489-.753-1.084-1.5a19.06,19.06,0,0,0-9.29-6.3,17.994,17.994,0,0,0-4.067-.759,1.039,1.039,0,0,1-.123-.017,18.573,18.573,0,0,0-2.648-.007.863.863,0,0,1-.205.043,19.059,19.059,0,0,0-13.338,7.031c-.012.015-.032.037-.051.057a16.456,16.456,0,0,0-1,1.413.993.993,0,0,1-.089.121A18.53,18.53,0,0,0,13.419,19.1,33.543,33.543,0,0,0,26.2,14.732Z"/><path d="M50.573,13.027a19.628,19.628,0,0,1,2.313,6.193c2.239.847,3.477,3.666,2.939,6.722a7,7,0,0,1-1.417,3.167,5.03,5.03,0,0,1-3.66,1.931,3.3,3.3,0,0,1-.641-.026l-3.7,7.4,1.247.415,3.6-4.477a1,1,0,0,1,1.76.824L52.452,38h2L57.03,27.687a.985.985,0,0,1,1.014-.756,1,1,0,0,1,.944.842A20.9,20.9,0,0,1,59.23,31c0,.52.05,1.12.113,1.731A29.018,29.018,0,0,0,60,25.96C60,19.24,55.861,13.7,50.573,13.027Z"/><path d="M35,43.4V39.76A21.113,21.113,0,0,1,32,40a21.113,21.113,0,0,1-3-.24V43.4a1,1,0,0,1-.752.969l-2.353.6L32,51.076l6.1-6.105-2.353-.6A1,1,0,0,1,35,43.4Z"/><path d="M48.33,28.332a1.008,1.008,0,0,1,.851.21,2.094,2.094,0,0,0,.688.377,1.784,1.784,0,0,0,.346.1,1.921,1.921,0,0,0,.421.028,3.057,3.057,0,0,0,2.224-1.2,4.633,4.633,0,0,0,.7-1.208,4.688,4.688,0,0,0,.293-1.025c.353-2.009-.351-3.928-1.6-4.475A36.717,36.717,0,0,1,36.8,16.466,46.331,46.331,0,0,1,32,13.3a46.346,46.346,0,0,1-4.8,3.169c-5.412,3.111-11.421,4.678-14.758,4.665-.023.006-.042.02-.065.024-1.614.291-2.615,2.284-2.233,4.441a5,5,0,0,0,1,2.257,3.022,3.022,0,0,0,2.16,1.188,1.649,1.649,0,0,0,.481-.025,1.446,1.446,0,0,0,.282-.075,2.22,2.22,0,0,0,.748-.4,1,1,0,0,1,.641-.232,1,1,0,0,1,.9.563A16.693,16.693,0,0,0,28.2,37.619a19.235,19.235,0,0,0,7.6,0A16.693,16.693,0,0,0,47.64,28.873,1,1,0,0,1,48.33,28.332Z"/></g></svg>
