<?xml version="1.0"?>
<svg xmlns="http://www.w3.org/2000/svg" viewBox="0 0 64 64" width="512" height="512"><g id="Girl-14" data-name="Girl"><rect x="14" y="51" width="2" height="2"/><path d="M17,55H13a.962.962,0,0,1-.179-.036,2.981,2.981,0,0,0-.746,1.373c.244-.05.52-.117.738-.17,1.2-.29,2.432-.589,3.218.1.847.727.423,1.993.013,3.218-.037.111-.08.238-.122.367a2.983,2.983,0,0,0,1.262-4.892A.953.953,0,0,1,17,55Z"/><path d="M17.726,43.182A2.694,2.694,0,0,0,19,41a5.7,5.7,0,0,0-1.425-2.371,1,1,0,0,1-.131-1.18A4.89,4.89,0,0,0,18.08,35c0-.178-.022-.374-.042-.567a16.779,16.779,0,0,1-2.7-3.426C15.189,31,15.068,31,15,31c-1.654,0-3,1.794-3,4a4.9,4.9,0,0,0,.636,2.45,1,1,0,0,1-.306,1.328A2.743,2.743,0,0,0,11,41a2.694,2.694,0,0,0,1.274,2.182,1,1,0,0,1,0,1.636A2.694,2.694,0,0,0,11,47a2.659,2.659,0,0,0,1.043,2.014,3.7,3.7,0,0,0,.332.223A.984.984,0,0,1,13,49h4a.982.982,0,0,1,.636.245A2.754,2.754,0,0,0,19,47a2.566,2.566,0,0,0-.948-1.917l-.009-.009,0,0a1.836,1.836,0,0,0-.277-.228,1,1,0,0,1-.036-1.661Z"/><path d="M19.5,37.806A5.974,5.974,0,0,1,21,41a4.327,4.327,0,0,1-.6,2.156L27,42.5V39.371A19.6,19.6,0,0,1,19.987,36.1,6.869,6.869,0,0,1,19.5,37.806Z"/><path d="M18,61H53L51.41,48.29a3.028,3.028,0,0,0-2.69-2.62L38.41,44.65c-.02.01-.02.04-.04.06l-5.66,5.66a1.014,1.014,0,0,1-1.42,0l-5.66-5.66c-.01-.02-.02-.05-.04-.06l-5.03.5A4.231,4.231,0,0,1,21,47a4.893,4.893,0,0,1-3,4.32v1.69A4.99,4.99,0,0,1,18,61Zm13-9h2v2H31Zm0,3h2v2H31Zm0,3h2v2H31Z"/><path d="M25,17.194a23.17,23.17,0,0,0,6.231-5.084,1.036,1.036,0,0,1,1.538,0A23.18,23.18,0,0,0,39,17.194c4.3,2.479,8.846,3.547,11.765,2.876a18.99,18.99,0,0,0-37.528,0C16.155,20.741,20.705,19.673,25,17.194Z"/><path d="M52.564,21.576c-3.421,1.494-9.154.473-14.564-2.65a26.1,26.1,0,0,1-6-4.667,26.084,26.084,0,0,1-6,4.667,22.8,22.8,0,0,1-10.876,3.33,9.2,9.2,0,0,1-3.674-.688,4.072,4.072,0,0,0-1.3,4.027c.332,1.921,1.693,3.4,3.167,3.446a1.816,1.816,0,0,0,.476-.026,6.058,6.058,0,0,0,1.252-.571,1,1,0,0,1,1.407.445c.115.248.248.487.381.727a14.79,14.79,0,0,0,2.855,3.633c.029.028.057.058.084.088A17.984,17.984,0,0,0,32.08,38c6.816,0,12.956-3.582,15.64-9.126a1,1,0,0,1,1.465-.389,4.1,4.1,0,0,0,1.031.531,1.634,1.634,0,0,0,.417.028c1.529-.049,2.89-1.528,3.221-3.444A4.085,4.085,0,0,0,52.564,21.576Z"/><path d="M35,43.4V39.792A21.194,21.194,0,0,1,32.08,40,21.482,21.482,0,0,1,29,39.759V43.4a1,1,0,0,1-.862.984L32,48.246l3.862-3.862A1,1,0,0,1,35,43.4Z"/></g></svg>
