<?xml version="1.0"?>
<svg xmlns="http://www.w3.org/2000/svg" viewBox="0 0 64 64" width="512" height="512"><g id="Girl-13" data-name="Girl"><path d="M17.726,43.182A2.694,2.694,0,0,0,19,41a5.7,5.7,0,0,0-1.425-2.371,1,1,0,0,1-.131-1.18A4.89,4.89,0,0,0,18.08,35c0-.178-.026-.377-.046-.571a16.775,16.775,0,0,1-2.7-3.422C15.188,31,15.068,31,15,31c-1.654,0-3,1.794-3,4a4.9,4.9,0,0,0,.636,2.45,1,1,0,0,1-.306,1.328A2.743,2.743,0,0,0,11,41a2.694,2.694,0,0,0,1.274,2.182,1,1,0,0,1,0,1.636A2.694,2.694,0,0,0,11,47a2.659,2.659,0,0,0,1.043,2.014,3.7,3.7,0,0,0,.332.223A.984.984,0,0,1,13,49h4a.982.982,0,0,1,.636.245A2.754,2.754,0,0,0,19,47a2.566,2.566,0,0,0-.948-1.917l-.009-.009,0,0a1.836,1.836,0,0,0-.277-.228,1,1,0,0,1-.036-1.661Z"/><path d="M27,39.371A19.6,19.6,0,0,1,19.987,36.1a6.869,6.869,0,0,1-.485,1.706A5.974,5.974,0,0,1,21,41a4.33,4.33,0,0,1-.6,2.156L27,42.5Z"/><path d="M35.475,44.251h0a.963.963,0,0,1-.2-.163l0,0A1,1,0,0,1,35,43.412v-3.62A21.194,21.194,0,0,1,32.08,40,21.482,21.482,0,0,1,29,39.759v3.653a1,1,0,0,1-.271.673l0,0a.963.963,0,0,1-.2.163h0a.989.989,0,0,1-.436.145l-1.913.192C26.775,45.86,29,47,32,47c3.049,0,5.3-1.176,5.859-2.409l-1.948-.2A.989.989,0,0,1,35.475,44.251Z"/><path d="M37,39.414V42.5l6.6.661A4.327,4.327,0,0,1,43,41a5.974,5.974,0,0,1,1.5-3.194,6.877,6.877,0,0,1-.468-1.595A19.913,19.913,0,0,1,37,39.414Z"/><path d="M17,55H13a.962.962,0,0,1-.179-.036,2.981,2.981,0,0,0-.746,1.373c.244-.05.52-.117.738-.17,1.2-.29,2.432-.589,3.218.1.847.727.423,1.993.013,3.218-.037.111-.08.238-.122.367a2.983,2.983,0,0,0,1.262-4.892A.953.953,0,0,1,17,55Z"/><rect x="14" y="51" width="2" height="2"/><path d="M25,17.194a23.17,23.17,0,0,0,6.231-5.084,1.036,1.036,0,0,1,1.538,0A23.18,23.18,0,0,0,39,17.194c4.3,2.479,8.846,3.547,11.765,2.876a18.99,18.99,0,0,0-37.528,0C16.155,20.741,20.705,19.673,25,17.194Z"/><path d="M43,47a4.231,4.231,0,0,1,.44-1.85l-3.55-.36C39.3,47.21,36.05,49,32,49s-7.3-1.79-7.89-4.21l-3.55.36A4.231,4.231,0,0,1,21,47a4.893,4.893,0,0,1-3,4.32v1.69A5.006,5.006,0,0,1,20,57a4.941,4.941,0,0,1-1,3H45a4.941,4.941,0,0,1-1-3,5.006,5.006,0,0,1,2-3.99V51.32A4.893,4.893,0,0,1,43,47Z"/><path d="M52.564,21.576c-3.42,1.494-9.153.473-14.564-2.65a26.1,26.1,0,0,1-6-4.667,26.084,26.084,0,0,1-6,4.667,22.8,22.8,0,0,1-10.876,3.33,9.2,9.2,0,0,1-3.674-.688,4.072,4.072,0,0,0-1.3,4.027c.332,1.921,1.693,3.4,3.167,3.446a1.819,1.819,0,0,0,.476-.026,2.271,2.271,0,0,0,1.04-.48,1.12,1.12,0,0,1,1.619.354c.115.248.248.487.381.727a14.79,14.79,0,0,0,2.855,3.633c.029.028.057.058.084.088A17.984,17.984,0,0,0,32.08,38c6.816,0,12.956-3.582,15.64-9.126a1,1,0,0,1,1.465-.389,4.1,4.1,0,0,0,1.031.531,1.637,1.637,0,0,0,.417.028c1.529-.049,2.89-1.528,3.221-3.444A4.085,4.085,0,0,0,52.564,21.576Z"/><rect x="48" y="51" width="2" height="2"/><path d="M51.67,38.778a1,1,0,0,1-.306-1.328A4.9,4.9,0,0,0,52,35c0-2.206-1.346-4-3-4-.064,0-.117.006-.173.01a17.192,17.192,0,0,1-2.88,3.606c-.01.127-.027.253-.027.384a4.89,4.89,0,0,0,.636,2.449,1,1,0,0,1-.13,1.179A5.523,5.523,0,0,0,45,41a2.694,2.694,0,0,0,1.274,2.182,1,1,0,0,1-.036,1.661,1.433,1.433,0,0,0-.241.194A2.624,2.624,0,0,0,45,47a2.754,2.754,0,0,0,1.364,2.245A.982.982,0,0,1,47,49h4a.981.981,0,0,1,.624.237,3.882,3.882,0,0,0,.34-.229A2.652,2.652,0,0,0,53,47a2.694,2.694,0,0,0-1.274-2.182,1,1,0,0,1,0-1.636A2.694,2.694,0,0,0,53,41,2.743,2.743,0,0,0,51.67,38.778Z"/><path d="M51,55H47a.953.953,0,0,1-.184-.037,2.983,2.983,0,0,0,1.262,4.892c-.042-.129-.085-.256-.122-.367-.41-1.225-.834-2.491.023-3.227.775-.683,2.013-.384,3.208-.094.218.053.494.12.738.17a2.981,2.981,0,0,0-.746-1.373A.962.962,0,0,1,51,55Z"/></g></svg>
