<?xml version="1.0"?>
<svg xmlns="http://www.w3.org/2000/svg" viewBox="0 0 64 64" width="512" height="512"><g id="Girl-12" data-name="Girl"><path d="M32.386,40H32.08a3.577,3.577,0,0,1-.387-.015A18.885,18.885,0,0,1,29,39.753V43.4a.965.965,0,0,1-.056.3,15.512,15.512,0,0,0,6.112,0A.965.965,0,0,1,35,43.4V39.777A20.922,20.922,0,0,1,32.386,40Z"/><path d="M43.812,21.438A26.656,26.656,0,0,1,38,18.926c-.394-.228-.767-.455-1.14-.695a25.713,25.713,0,0,1-2.448-1.753A22.664,22.664,0,0,1,32,14.26a22.577,22.577,0,0,1-2.417,2.222,25.636,25.636,0,0,1-2.45,1.753c-.366.236-.739.463-1.133.69a26.592,26.592,0,0,1-5.812,2.513,52.323,52.323,0,0,0-1.182,11.12c.22.238.443.472.679.694a.893.893,0,0,1,.079.084,17.56,17.56,0,0,0,7.953,4.16c.155.036.306.072.458.1a17.879,17.879,0,0,0,3.622.394c.156.011.214.01.283.01h.29a18.8,18.8,0,0,0,3.43-.369c.227-.04.418-.084.607-.127A17.218,17.218,0,0,0,45,32.721,52.475,52.475,0,0,0,43.812,21.438Z"/><path d="M43,52a3.267,3.267,0,0,1-.539-.045,1,1,0,0,1-.707-1.468,22.315,22.315,0,0,0,1.927-5.315l-5.621-.561C36.715,45.623,34.134,46,32,46s-4.715-.377-6.06-1.389l-5.621.561a22.331,22.331,0,0,0,1.927,5.315,1,1,0,0,1-.707,1.468A3.267,3.267,0,0,1,21,52c-2.283,0-4.252-2.184-5.721-6.325A3.011,3.011,0,0,0,12.592,48.3L12.005,53H52l-.587-4.706a3.011,3.011,0,0,0-2.688-2.619C47.253,49.816,45.284,52,43,52Z"/><polygon points="11.132 60 52.868 60 52.244 55 11.756 55 11.132 60"/><path d="M44.09,43.2a53.512,53.512,0,0,0,.85-7.707A19.387,19.387,0,0,1,37,39.416v3.077Z"/><path d="M27,42.493V39.374a19.636,19.636,0,0,1-7.945-4.007,53.138,53.138,0,0,0,.854,7.836Z"/><path d="M52.192,21.345a1.935,1.935,0,0,0-.562-.19,1,1,0,0,1-.82-.845,19,19,0,0,0-37.62,0,1,1,0,0,1-.82.845,1.9,1.9,0,0,0-.541.179c-1.316.623-2.015,2.41-1.684,4.26A3.953,3.953,0,0,0,13.018,29a57.76,57.76,0,0,1,.634-7.9,39.594,39.594,0,0,1,1.16-5.325,1,1,0,0,1,1.916.573,37.649,37.649,0,0,0-1.1,5.054A56.531,56.531,0,0,0,15,29.99a48.357,48.357,0,0,0,1.921,14.3,12.958,12.958,0,0,0,2.54,4.894A31.965,31.965,0,0,1,18.112,44.5,56.231,56.231,0,0,1,17,33.04a54.134,54.134,0,0,1,1.369-12.628,26.509,26.509,0,0,1,1.613-4.831,1,1,0,1,1,1.816.838,21.435,21.435,0,0,0-1.009,2.727A25.81,25.81,0,0,0,25,17.193c.366-.212.713-.423,1.061-.645a24.194,24.194,0,0,0,2.271-1.625,19.9,19.9,0,0,0,2.9-2.813,1.034,1.034,0,0,1,1.538,0,19.827,19.827,0,0,0,2.894,2.808,23.987,23.987,0,0,0,2.27,1.626c.354.226.7.437,1.067.65a25.983,25.983,0,0,0,4.208,1.952,22.628,22.628,0,0,0-.99-2.706,1,1,0,0,1,1.824-.82,27.831,27.831,0,0,1,1.59,4.794A54.052,54.052,0,0,1,47,33v.132A56.838,56.838,0,0,1,45.889,44.5a32.042,32.042,0,0,1-1.35,4.689,12.949,12.949,0,0,0,2.539-4.892A48.323,48.323,0,0,0,49,30a56.654,56.654,0,0,0-.628-8.6,38.207,38.207,0,0,0-1.11-5.1,1,1,0,1,1,1.917-.569,40.024,40.024,0,0,1,1.17,5.366,57.884,57.884,0,0,1,.633,7.892A3.966,3.966,0,0,0,53.854,25.6C54.186,23.744,53.487,21.957,52.192,21.345Z"/></g></svg>
