<?xml version="1.0"?>
<svg xmlns="http://www.w3.org/2000/svg" viewBox="0 0 64 64" width="512" height="512"><g id="Girl-11" data-name="Girl"><polygon points="28.677 45 29 45 29 42 27.477 42 28.677 45"/><path d="M21.691,54.151l4.267,3.733a14.824,14.824,0,0,1-1.755-5.24Z"/><path d="M27.071,46.371l-.135-.338A12.444,12.444,0,0,0,26,50a13.974,13.974,0,0,0,1.6,6.733L28.99,47H28A1,1,0,0,1,27.071,46.371Z"/><path d="M33,41a1,1,0,0,1,1-1h1v-.208A21.194,21.194,0,0,1,32.08,40,21.482,21.482,0,0,1,29,39.759V40h1a1,1,0,0,1,1,1v1h2Z"/><path d="M19,53.911a1,1,0,0,1,.481-.768l3.725-2.236L20.4,48.8a1,1,0,0,1-.107-1.507L23.586,44H19.81a4.965,4.965,0,0,0-4.874,3.917L12.247,60H25.338l-6-5.247A1,1,0,0,1,19,53.911Z"/><rect x="31" y="44" width="2" height="2"/><path d="M26,40h1v-.628a19.4,19.4,0,0,1-8.685-4.653,1.113,1.113,0,0,1-.082-.087,16.755,16.755,0,0,1-3.1-3.954,4.252,4.252,0,0,1-1,.306,3.53,3.53,0,0,1-.94.052c-.066,0-.129-.022-.2-.027V47.432A6.949,6.949,0,0,1,19.81,42h5.513l-.252-.629A1,1,0,0,1,26,40Z"/><path d="M25,17.193a23.171,23.171,0,0,0,6.231-5.083,1.034,1.034,0,0,1,1.538,0A23.181,23.181,0,0,0,39,17.193c4.295,2.48,8.845,3.55,11.765,2.877a18.99,18.99,0,0,0-37.528,0C16.155,20.742,20.706,19.673,25,17.193Z"/><path d="M24.065,49.049a16.359,16.359,0,0,1,.99-3.69l-2.533,2.533Z"/><path d="M41.478,47.892l-2.533-2.533a16.359,16.359,0,0,1,.99,3.69Z"/><path d="M39.8,52.644a14.824,14.824,0,0,1-1.755,5.24l4.267-3.733Z"/><path d="M52.564,21.576c-3.421,1.492-9.154.473-14.564-2.65a26.157,26.157,0,0,1-6-4.666,26.142,26.142,0,0,1-6,4.666,22.794,22.794,0,0,1-10.876,3.331,9.2,9.2,0,0,1-3.674-.689,4.072,4.072,0,0,0-1.3,4.027c.332,1.921,1.692,3.4,3.166,3.445a1.565,1.565,0,0,0,.478-.025,2.258,2.258,0,0,0,1.039-.481,1.12,1.12,0,0,1,1.619.355c.12.257.258.506.4.754a14.776,14.776,0,0,0,2.84,3.607,1.11,1.11,0,0,1,.082.086A17.98,17.98,0,0,0,32.08,38c6.816,0,12.956-3.582,15.64-9.126a1,1,0,0,1,1.466-.39,4.053,4.053,0,0,0,1.029.532,1.8,1.8,0,0,0,.421.028c1.527-.049,2.887-1.528,3.218-3.444A4.086,4.086,0,0,0,52.564,21.576Z"/><polygon points="30.867 48 29.153 60 34.847 60 33.133 48 30.867 48"/><path d="M44.19,44H40.414l3.293,3.293A1,1,0,0,1,43.6,48.8l-2.81,2.107,3.725,2.236a1,1,0,0,1,.144,1.61l-6,5.247H51.753L49.064,47.917A4.965,4.965,0,0,0,44.19,44Z"/><polygon points="36.523 42 35 42 35 45 35.323 45 36.523 42"/><path d="M36.929,46.371A1,1,0,0,1,36,47h-.99l1.39,9.733A13.974,13.974,0,0,0,38,50a12.444,12.444,0,0,0-.936-3.967Z"/><path d="M38.828,40.439a1,1,0,0,1,.1.932L38.677,42H44.19A6.949,6.949,0,0,1,51,47.432V31.006c-.084.008-.164.031-.249.034a3.309,3.309,0,0,1-1.729-.347A18.718,18.718,0,0,1,37,39.414V40h1A1,1,0,0,1,38.828,40.439Z"/></g></svg>
