<?xml version="1.0"?>
<svg xmlns="http://www.w3.org/2000/svg" viewBox="0 0 64 64" width="512" height="512"><g id="Girl-10" data-name="Girl"><path d="M29,39.779v2.526c.078.024.157.032.235.059a5.928,5.928,0,0,1,1.642.82A5.365,5.365,0,0,1,32,44.244a5.36,5.36,0,0,1,1.125-1.062,6.013,6.013,0,0,1,1.665-.827c.066-.022.142-.031.21-.052V39.779a20.472,20.472,0,0,1-6,0Z"/><path d="M32,50h0a.778.778,0,0,0-.463.261l-.008.007a2.015,2.015,0,0,0-.183.212,1.67,1.67,0,0,0-.383,1.23c.062.2.4.4.727.583a4.684,4.684,0,0,1,.689.455,4.072,4.072,0,0,1,.346-.448,1.024,1.024,0,0,0,.3-.484,2.01,2.01,0,0,0-.478-1.445A.892.892,0,0,0,32,50Z"/><path d="M21.287,15.2l1.686,4.97,4.461-2.759a1,1,0,0,1,1.309.229L32,21.741l3.257-4.1a1,1,0,0,1,1.309-.229l4.461,2.759,1.686-4.97a1,1,0,0,1,1.172-.653L49.6,15.862a18.5,18.5,0,0,0-.9-1.932A19.14,19.14,0,0,0,42.1,6.9a19.042,19.042,0,0,0-8.7-2.839,18.134,18.134,0,0,0-4.653.227,18.531,18.531,0,0,0-5.379,1.785A19,19,0,0,0,14.4,15.862l5.713-1.317A1,1,0,0,1,21.287,15.2Z"/><path d="M37,50c2.206,0,4-1.346,4-3a2.767,2.767,0,0,0-1.416-2.268l-3.4-.675c-.01,0-.017.009-.028.01a4.558,4.558,0,0,0-.744.188,4.081,4.081,0,0,0-1.138.561A2.7,2.7,0,0,0,33,47C33,48.654,34.794,50,37,50Z"/><path d="M27.841,44.067c-.01,0-.018-.008-.028-.01l-3.4.681A2.764,2.764,0,0,0,23,47c0,1.654,1.794,3,4,3a4.6,4.6,0,0,0,3.007-1.04c.034-.032.07-.063.1-.089.047-.047.09-.1.139-.146A2.521,2.521,0,0,0,31,47a2.7,2.7,0,0,0-1.275-2.182,3.994,3.994,0,0,0-1.115-.554A4.608,4.608,0,0,0,27.841,44.067Z"/><path d="M27,39.4a18.793,18.793,0,0,1-11.643-8.219L10.6,41H27Z"/><path d="M37,52a7.037,7.037,0,0,1-1.992-.289,2.95,2.95,0,0,1-.025.473,2.9,2.9,0,0,1-.745,1.417c-.222.259-.237.294-.238.406a2.9,2.9,0,0,0,.785,1.373,4.7,4.7,0,0,0,2.482,1.656l-.534,1.928a6.735,6.735,0,0,1-2.346-1.174,6.84,6.84,0,0,1-1.172-1.171,7.555,7.555,0,0,1-.891-1.307,5.365,5.365,0,0,1-.771.511,5.4,5.4,0,0,0-.49.3,4.849,4.849,0,0,0,1.41.991l-.946,1.762c-1.159-.621-2.681-1.609-2.52-3a2.544,2.544,0,0,1,1.545-1.793c.038-.023.08-.046.123-.071a3.111,3.111,0,0,1-1.632-1.731,2.507,2.507,0,0,1-.085-.589A6.966,6.966,0,0,1,27,52c-3.309,0-6-2.243-6-5a4.294,4.294,0,0,1,.485-1.948l-3.083.31A34.675,34.675,0,0,1,19,52a31.524,31.524,0,0,1-.912,8H45.912A31.524,31.524,0,0,1,45,52a34.664,34.664,0,0,1,.6-6.637l-3.082-.307A4.289,4.289,0,0,1,43,47C43,49.757,40.309,52,37,52Z"/><path d="M15.279,45.675A3.011,3.011,0,0,0,12.592,48.3L11.133,60h4.874A28.263,28.263,0,0,0,17,52a32.257,32.257,0,0,0-.595-6.438Z"/><path d="M51.622,21.154a1,1,0,0,1-.812-.843,19.031,19.031,0,0,0-.511-2.378,1.021,1.021,0,0,1-.524.022L44.316,16.7l-1.8,5.3a1,1,0,0,1-1.474.529l-4.773-2.952-3.488,4.394a1,1,0,0,1-1.566,0l-3.488-4.394L22.956,22.53A1,1,0,0,1,21.482,22l-1.8-5.3-5.459,1.258a1,1,0,0,1-.518-.037,18.316,18.316,0,0,0-.517,2.39,1,1,0,0,1-.812.846c-1.614.291-2.615,2.284-2.233,4.441.332,1.921,1.693,3.4,3.167,3.445a1.661,1.661,0,0,0,.476-.025,2.26,2.26,0,0,0,1.04-.48,1,1,0,0,1,1.532.339C19.044,34.418,25.184,38,32,38s12.956-3.582,15.64-9.126a1,1,0,0,1,1.532-.339,2.269,2.269,0,0,0,1.043.481,1.749,1.749,0,0,0,.42.028c1.527-.049,2.888-1.528,3.219-3.444C54.237,23.438,53.236,21.445,51.622,21.154Z"/><path d="M52.867,60,51.408,48.294a3.034,3.034,0,0,0-2.687-2.619L47.6,45.563A32.253,32.253,0,0,0,47,52a28.263,28.263,0,0,0,.993,8Z"/><path d="M37,39.4V41H52.518l-3.931-9.733A18.8,18.8,0,0,1,37,39.4Z"/></g></svg>
