<?xml version="1.0"?>
<svg xmlns="http://www.w3.org/2000/svg" viewBox="0 0 64 64" width="512" height="512"><g id="Girl-9" data-name="Girl"><path d="M17.019,21h.032c1.6,0,3.284-2.414,4.636-4.355,1.528-2.2,2.852-4.09,4.58-3.61,1.82.505,2.041,3.155,2.274,5.962.107,1.3.31,3.72.769,4.055.814-.06,3.137-3.679,4.385-5.623,2.508-3.908,4.486-6.989,6.583-6.391,1.7.492,1.8,2.85,1.917,5.579.088,2.1.209,4.972,1.248,5.486.4.2,2.078.448,6.827-4.263a18.979,18.979,0,0,0-36.578.133C14.849,19.929,16,20.982,17.019,21Z"/><path d="M26,57H38a3,3,0,0,0,3-3H23A3,3,0,0,0,26,57Z"/><path d="M12.592,48.3,11.133,60H17V45.5l-1.722.172A3.011,3.011,0,0,0,12.592,48.3Z"/><path d="M43,45.1V50a1,1,0,0,1-1,1H22a1,1,0,0,1-1-1V45.11l-2,.2V60H45V45.3ZM43,54a5,5,0,0,1-5,5H26a5,5,0,0,1-5-5V53a1,1,0,0,1,1-1H42a1,1,0,0,1,1,1Z"/><path d="M14.135,30.984a3.52,3.52,0,0,1-.94.052,4.945,4.945,0,0,1-3.7-2.069C8.385,30.282,6.856,32.551,7,34.94c.061,1.539.62,4.557,2.313,5.109,1.233.4,3.042-.59,4.944-2.716a10.611,10.611,0,0,0,2.329-4.409,16.889,16.889,0,0,1-1.519-2.218A4.186,4.186,0,0,1,14.135,30.984Z"/><path d="M51.408,48.294a3.011,3.011,0,0,0-2.689-2.619L47,45.5V60h5.867Z"/><path d="M50.751,31.04a3.478,3.478,0,0,1-.883-.055,4.251,4.251,0,0,1-.933-.279,16.833,16.833,0,0,1-1.519,2.219,10.613,10.613,0,0,0,2.326,4.405c1.905,2.129,3.714,3.118,4.951,2.718,1.689-.551,2.248-3.569,2.308-5.087.143-2.407-1.387-4.68-2.5-5.995A5.012,5.012,0,0,1,50.751,31.04Z"/><path d="M26.071,44.6,23,44.9V49H41V44.9L37.929,44.6C37.507,46.547,35.058,48,32,48S26.493,46.547,26.071,44.6Z"/><path d="M48.324,28.333a1.008,1.008,0,0,1,.848.2,2.269,2.269,0,0,0,1.043.481,1.749,1.749,0,0,0,.42.028,3.406,3.406,0,0,0,2.786-2.095h0a5.054,5.054,0,0,0,.432-1.348c.383-2.162-.618-4.155-2.232-4.446a1,1,0,0,1-.812-.844c-.009-.059-.024-.115-.033-.173-3.708,3.487-6.342,4.688-8.22,3.759-2.1-1.04-2.239-4.309-2.361-7.194-.053-1.279-.143-3.421-.526-3.767-.774.1-3.063,3.661-4.292,5.575-2.318,3.611-4.191,6.528-6.117,6.528a1.922,1.922,0,0,1-.538-.077c-1.735-.5-1.939-2.957-2.175-5.8-.106-1.268-.325-3.9-.827-4.205-.459.055-1.669,1.791-2.392,2.829C21.626,20.232,19.7,23,17.057,23h-.078c-1.378-.026-2.664-.81-3.9-2.367a1,1,0,0,1-.7.521c-1.614.291-2.615,2.284-2.233,4.441a5.088,5.088,0,0,0,.432,1.351l0,0a3.373,3.373,0,0,0,2.733,2.09,1.661,1.661,0,0,0,.476-.025,2.26,2.26,0,0,0,1.04-.48,1,1,0,0,1,1.532.339C19.044,34.418,25.184,38,32,38s12.956-3.582,15.64-9.126A1,1,0,0,1,48.324,28.333Z"/><path d="M32,40a21.113,21.113,0,0,1-3-.221V43.4a1,1,0,0,1-.9,1c.389.821,1.926,1.6,3.9,1.6s3.509-.784,3.9-1.6a1,1,0,0,1-.9-1V39.779A21.113,21.113,0,0,1,32,40Z"/></g></svg>
