<?xml version="1.0"?>
<svg xmlns="http://www.w3.org/2000/svg" viewBox="0 0 64 64" width="512" height="512"><g id="Girl-8" data-name="Girl"><rect x="30" y="46" width="4" height="2"/><rect x="29" y="43" width="6" height="1"/><path d="M32.11,40A20.474,20.474,0,0,1,30,39.88V41h4V39.905C33.378,39.962,32.748,40,32.11,40Z"/><path d="M43.4,34.211c.2-.152.378-.315.56-.476l.916-5.947a7.589,7.589,0,0,0,.051-1.658l-.381-4.558-.595,1.75A1,1,0,0,1,43,24H21v2a7,7,0,0,0,.857,3.35l2.271,4.171A1,1,0,0,1,23.25,35H21.932a17.081,17.081,0,0,0,1.692,1,17.875,17.875,0,0,0,4.681,1.62c.276.058.552.1.827.14a18.692,18.692,0,0,0,5.721.042c.376-.049.725-.116,1.065-.183a18.069,18.069,0,0,0,4.421-1.5A17.716,17.716,0,0,0,43.4,34.211Z"/><path d="M38,42.6V42a1.02,1.02,0,0,1,.058-.337l1.02-2.853a20.278,20.278,0,0,1-2.772.77c-.1.02-.2.033-.306.052V41a1,1,0,0,1,1,1V42.5Z"/><polygon points="11.132 60 18 60 18 58 11.382 58 11.132 60"/><path d="M13,47.118a3.035,3.035,0,0,0-.412,1.18L12.13,52H18V50.9a7.149,7.149,0,0,1-3.989-2.4A9.016,9.016,0,0,1,13,47.118Z"/><path d="M22,43a3.112,3.112,0,0,1,2,.855V42.174l-1.645-4.593a18.973,18.973,0,0,1-2.6-1.682l.215.859A1,1,0,0,1,19,38H15.494L14.41,41.029a6.976,6.976,0,0,0-.41,2.36V44a3.21,3.21,0,0,0,.221,1.052,6.6,6.6,0,0,0,1.284,2.111,5.245,5.245,0,0,0,2.9,1.783l2.7-5.393A1,1,0,0,1,22,43Z"/><path d="M27,42.5V42a1,1,0,0,1,1-1V39.594c-.032-.006-.063-.009-.095-.016a20.056,20.056,0,0,1-3.017-.856l1.053,2.941A.992.992,0,0,1,26,42V42.6Z"/><polygon points="11.631 56 18 56 18 54 11.881 54 11.631 56"/><path d="M46,50.9V52h5.87l-.462-3.706A3.039,3.039,0,0,0,51,47.118,8.973,8.973,0,0,1,49.985,48.5,7.133,7.133,0,0,1,46,50.9Z"/><rect x="27" y="56" width="10" height="4"/><polygon points="46 56 52.369 56 52.119 54 46 54 46 56"/><path d="M50.305,15.466A20.848,20.848,0,0,0,32,4C20.655,4,11.238,13.878,11.01,26.019c-.01.189-.01.331-.01.481A23.482,23.482,0,0,0,12.963,36h4.756l-.672-2.69-.974-2.416a1.044,1.044,0,0,1-.065-.248l-.984-4.429a1,1,0,1,1,1.952-.434l.992,4.463.959,2.38a.884.884,0,0,1,.043.132l.061.242h2.536L20.1,30.309A9,9,0,0,1,19,26V21a1,1,0,0,1,2,0v1H42.284l1.906-5.6h0l0-.011a1.088,1.088,0,0,1,.064-.11,1.011,1.011,0,0,1,.128-.221.975.975,0,0,1,.182-.145.92.92,0,0,1,.118-.09.972.972,0,0,1,.36-.1l.012,0h0a.991.991,0,0,1,.121.012.947.947,0,0,1,.625.236c.009.009.014.021.023.029a1,1,0,0,1,.2.269,1.016,1.016,0,0,1,.071.245,1,1,0,0,1,.035.122v.012l.779,9.328a9.6,9.6,0,0,1-.067,2.115l-1.01,6.43-.513,2.2L50.2,35.74c1.883-3.35,2.8-5.29,2.8-9.24A23.763,23.763,0,0,0,50.305,15.466Z"/><path d="M40.419,46.323c-.437.527-.93,1.125-1.691.85A1.137,1.137,0,0,1,38,46v-1.4l-1-.1V45a1,1,0,0,1-1,1v3a1,1,0,0,1-1,1H29a1,1,0,0,1-1-1V46a1,1,0,0,1-1-1v-.495l-1,.1V46a1.137,1.137,0,0,1-.728,1.173c-.762.275-1.255-.323-1.691-.85a7.02,7.02,0,0,0-1.073-1.1L20,50.236V60h5V55a1,1,0,0,1,1-1H38a1,1,0,0,1,1,1v5h5V50.236L41.492,45.22A7.02,7.02,0,0,0,40.419,46.323Z"/><polygon points="46 60 52.868 60 52.618 58 46 58 46 60"/><path d="M49.779,45.053A3.22,3.22,0,0,0,50,44v-.614a6.965,6.965,0,0,0-.408-2.354L48.549,38.11l-4.353.87a1,1,0,0,1-1.17-1.208l.243-1.036c-.542.353-1.1.675-1.673.972L40,42.173v1.682A3.112,3.112,0,0,1,42,43a1,1,0,0,1,.9.553l2.7,5.393a5.237,5.237,0,0,0,2.9-1.779A6.621,6.621,0,0,0,49.779,45.053Z"/></g></svg>
