<?xml version="1.0"?>
<svg xmlns="http://www.w3.org/2000/svg" viewBox="0 0 64 64" width="512" height="512"><g id="Girl-7" data-name="Girl"><polygon points="31.202 46 32 47.197 32.798 46 32 44.803 31.202 46"/><rect x="38" y="56" width="10" height="1"/><path d="M34,39.891c-.667.065-1.336.109-2,.109s-1.339-.031-2-.08V42h4Z"/><path d="M29.168,45.445,30.132,44h-.844l-1.211,3.077,1.849,4.546a1,1,0,0,1-1.551,1.158l-5-4a1,1,0,0,1-.345-1.023l.469-1.876L20.67,46.5a19.783,19.783,0,0,0,1.576,3.984,1,1,0,0,1-.716,1.47A3.293,3.293,0,0,1,21,52a4.879,4.879,0,0,1-3.1-1.329,15.016,15.016,0,0,1-3.32-4.524A24.99,24.99,0,0,1,13.446,48.5c-.159.286-.327.557-.494.832-.049.242-.153.757-.181.97L11.339,60H31V49.3l-1.832-2.748A1,1,0,0,1,29.168,45.445Z"/><path d="M27.683,42.615l-1.051-.35-.683,2.051-.106.424v.006l-.717,2.874,1.5,1.2-.553-1.361a1,1,0,0,1-.005-.743Z"/><path d="M28,39.692a21.6,21.6,0,0,1-8.9-3.323,50,50,0,0,0,1.075,8.2l3.87-.85,1.007-3.031a1,1,0,0,1,1.265-.632L28,40.613Z"/><path d="M37.926,47.46l-.553,1.361,1.5-1.2-.669-2.676,0-.019-.171-.683-.661-1.977-1.052.35,1.614,4.1A1,1,0,0,1,37.926,47.46Z"/><path d="M6,40c0-5.963,1.717-12,5-12l.028,0c.021-.924.056-1.893.1-2.871A3.028,3.028,0,0,0,9,24c-2.365,0-5,4.518-5,11a16.529,16.529,0,0,0,2.292,9.125A29.212,29.212,0,0,1,6,40Z"/><path d="M19.2,49.146c.108.092.226.187.352.278a28.94,28.94,0,0,1-1.085-3.447l0-.012v-.009A52.55,52.55,0,0,1,17.02,34.278C17,33.894,17,33.467,17,33.04a60.072,60.072,0,0,1,.508-7.945c0-.007,0-.013,0-.02s0-.012.006-.019l.006-.051a42.54,42.54,0,0,1,.85-4.594,26.523,26.523,0,0,1,1.613-4.83,1,1,0,1,1,1.816.838,24.447,24.447,0,0,0-1.486,4.467c-.259,1.049-.468,2.188-.65,3.365a20.87,20.87,0,0,0,9.929-3.059c4.36-2.5,7.672-6.045,8.441-9.022a1,1,0,0,1,1.792-.316,19.219,19.219,0,0,0,2.233,2.679,24,24,0,0,0,8.566,4.832,18.987,18.987,0,0,0-35.839-4.419,11.207,11.207,0,0,0-.822,2.562q-.181.921-.334,1.9A86.912,86.912,0,0,0,13,29.99C13,39.009,16.2,46.589,19.2,49.146Z"/><path d="M8,40a23.912,23.912,0,0,0,.821,6.5,11.617,11.617,0,0,0,.367,1.151c.48,1.239-.12,2.884-.714,4.3A17.8,17.8,0,0,0,10.941,48.8l.04-.068c.248-.381.486-.792.715-1.2a20.84,20.84,0,0,0,1.711-4.027A37.953,37.953,0,0,1,11,30C9.806,30,8,33.988,8,40Z"/><path d="M39.293,14.465c-1.472,3.014-4.644,6.13-8.7,8.462a23.023,23.023,0,0,1-10.882,3.33c-.11,0-.21-.015-.318-.018A58.425,58.425,0,0,0,19,33c0,.274,0,.529.006.779C22.025,36.422,26.835,38,32,38a18.74,18.74,0,0,0,2.848-.219c.325-.048.634-.093.944-.16A16.7,16.7,0,0,0,47.64,28.873a1,1,0,0,1,1.532-.339,2.265,2.265,0,0,0,1.043.482,1.861,1.861,0,0,0,.421.028c1.527-.049,2.887-1.528,3.218-3.444a4.36,4.36,0,0,0-.86-3.641,25.335,25.335,0,0,1-12.352-6.013Q39.931,15.237,39.293,14.465Z"/><path d="M51.59,50.32a3.029,3.029,0,0,0-2.69-2.65l-8.37-1.65.44,1.74a.994.994,0,0,1-.35,1.02l-5,4A.961.961,0,0,1,35,53a1.029,1.029,0,0,1-.6-.2,1.012,1.012,0,0,1-.33-1.18l1.85-4.54L34.71,44h-.84l.96,1.45a.963.963,0,0,1,0,1.1L33,49.3V60H53.02ZM50,58a1,1,0,0,1-1,1H37a1,1,0,0,1-1-1V55a1,1,0,0,1,1-1H49a1,1,0,0,1,1,1Z"/></g></svg>
