<?xml version="1.0"?>
<svg xmlns="http://www.w3.org/2000/svg" viewBox="0 0 64 64" width="512" height="512"><g id="Girl-16" data-name="Girl"><path d="M21.685,29.954h0a8.09,8.09,0,0,1-2.927-1.708c.045.111.091.214.138.31a10.365,10.365,0,0,0,2.186,2.853c.576.569,1.293,1.277.766,2.121a1.251,1.251,0,0,1-.854.561,2.058,2.058,0,0,1-.407.033A18.029,18.029,0,0,0,31.99,38a18.85,18.85,0,0,0,11.421-3.879,2.213,2.213,0,0,1-.516-.03,1.256,1.256,0,0,1-.857-.568c-.523-.837.194-1.545.771-2.114a10.393,10.393,0,0,0,2.185-2.852c.028-.058.057-.119.085-.182a7.954,7.954,0,0,1-2.716,1.558,1.022,1.022,0,0,1-1.332-.708,1,1,0,0,1,.45-1.079c.9-.692,1.835-2.874,2.269-6.01q-.3.444-.613.83v0l0,0,0,0a10.811,10.811,0,0,1-2.649,2.487,1,1,0,0,1-.55.251l-.059.008c-.025,0-.049.009-.074.009h-.018a1,1,0,0,1-.256-.033l-.018-.008a.97.97,0,0,1-.289-.141.831.831,0,0,1-.069-.052.972.972,0,0,1-.155-1.38A8.812,8.812,0,0,0,40,20.079V20c0-.028.014-.051.016-.078,0-.138,0-.28,0-.422a10.6,10.6,0,0,0-.7-3.975c-.01-.019.013.016.039.057a.962.962,0,0,1-.085-.158A4.881,4.881,0,0,0,39,14.882V21a1,1,0,0,1-1,1H26a1,1,0,0,1-1-1V14.882a4.713,4.713,0,0,0-.271.542c-.009.021-.019.042-.029.062s-.029.068-.046.1A10.638,10.638,0,0,0,23.98,19.5c0,.142,0,.285,0,.422A.674.674,0,0,1,24,20v.1a8.778,8.778,0,0,0,1.006,4.016.972.972,0,0,1-.155,1.38.831.831,0,0,1-.069.052,1.016,1.016,0,0,1-.292.143l-.015.006a.927.927,0,0,1-.094.012.517.517,0,0,1-.055.007.979.979,0,0,1-.107.014c-.026,0-.052-.008-.079-.01s-.057-.006-.086-.011l-.015,0a.964.964,0,0,1-.157-.044.988.988,0,0,1-.162-.067l-.023-.015a.911.911,0,0,1-.112-.075,10.744,10.744,0,0,1-2.722-2.538c-.208-.261-.417-.544-.624-.848.433,3.132,1.368,5.329,2.269,6.038a1,1,0,0,1-.823,1.8Z"/><polygon points="28.307 45 24.851 45 29.788 48.95 28.307 45"/><path d="M11,25a20.928,20.928,0,0,0,2.521,9.992,43.612,43.612,0,0,1-.511-6.464,1,1,0,0,1,1.879-.485,7.946,7.946,0,0,0,1.765,2.2,7.025,7.025,0,0,0,.595.467,8.882,8.882,0,0,0,1.091.668A10.672,10.672,0,0,1,17.1,29.443a13.062,13.062,0,0,1-1.02-4.281,1,1,0,0,1,1.771-.724c.371.455.745.877,1.115,1.261a25.649,25.649,0,0,1-.98-7.329c0-.245,0-.49.011-.724l.009-.362a1,1,0,0,1,1.961-.25A13.5,13.5,0,0,0,21.266,20c.274.471.555.888.836,1.277-.039-.335-.081-.668-.1-1.018a1.124,1.124,0,0,1-.013-.115c0-.02,0-.042,0-.062v0c-.008-.188-.01-.381-.01-.577a12.64,12.64,0,0,1,.857-4.745c.02-.049.043-.105.074-.165C23.629,12.943,24.746,12,25.98,12A1.018,1.018,0,0,1,27,13v7h2V15a1,1,0,0,1,2,0v5h2V15a1,1,0,0,1,2,0v5h2V13a1,1,0,0,1,1-1c1.262,0,2.385.956,3.1,2.623.018.037.034.072.044.1A12.65,12.65,0,0,1,42.02,19.5c0,.218,0,.437-.012.644a1.083,1.083,0,0,1-.015.129c-.017.348-.059.676-.1,1.008.283-.392.565-.81.841-1.284a13.5,13.5,0,0,0,1.293-2.963,1,1,0,0,1,1.961.276v.36c.01.2.01.446.01.69a25.67,25.67,0,0,1-.98,7.343c.332-.344.667-.719,1-1.121a1,1,0,0,1,1.766.731,12.849,12.849,0,0,1-1,4.134,10.707,10.707,0,0,1-1.233,1.931,9.247,9.247,0,0,0,1.1-.671,6.917,6.917,0,0,0,.571-.449,8.209,8.209,0,0,0,1.9-2.395A1,1,0,0,1,51,28.336,44.211,44.211,0,0,1,50.476,35,21.02,21.02,0,0,0,37.728,4.792,21,21,0,0,0,11,25Z"/><path d="M32,49.152l2.063-5.5A1,1,0,0,1,35,43V39.757A21.949,21.949,0,0,1,32.01,40h-.2A20.729,20.729,0,0,1,29,39.8V43a1,1,0,0,1,.937.649Z"/><path d="M35,59.077a20.113,20.113,0,0,0-.953-4.764c-.212-.639-.464-1.377-.744-2.077l-.681.545c-.007.005-.014.006-.021.011s-.01.013-.017.018a83.116,83.116,0,0,0-.272.137A1,1,0,0,1,32,53a1.007,1.007,0,0,1-.316-.053.925.925,0,0,1-.094-.048.946.946,0,0,1-.177-.089c-.007-.005-.011-.013-.017-.018s-.014-.006-.021-.011l-.681-.545c-.278.693-.522,1.41-.716,1.993A20.287,20.287,0,0,0,29,59.077,1,1,0,0,1,28,60h8A1,1,0,0,1,35,59.077Z"/><path d="M49.668,50.384A5.019,5.019,0,0,0,44.7,46H41.1l-6.169,4.936c.4.911.734,1.9.989,2.661A22.334,22.334,0,0,1,37,58.923,1,1,0,0,1,36.077,60L36,60H50.868Z"/><path d="M27.923,60A1,1,0,0,1,27,58.923a22.149,22.149,0,0,1,1.047-5.236c.278-.835.614-1.833,1.019-2.751L22.9,46H19.3a5.02,5.02,0,0,0-4.968,4.385L13.132,60H28Z"/><polygon points="35.693 45 34.212 48.95 39.149 45 35.693 45"/></g></svg>
