<?xml version="1.0"?>
<svg xmlns="http://www.w3.org/2000/svg" viewBox="0 0 64 64" width="512" height="512"><g id="Man-3" data-name="Man"><path d="M34,39.873c-.6.052-1.206.087-1.818.087A21.288,21.288,0,0,1,30,39.839V42h4Z"/><path d="M32,50a.98.98,0,0,1-.209-.026L31.074,60h1.852l-.717-10.026A.98.98,0,0,1,32,50Z"/><polygon points="32 47.197 32.798 46 32 44.803 31.202 46 32 47.197"/><path d="M30.132,44h-.844l-1.211,3.077,1.63,4.007.241-3.359-.78-1.17a1,1,0,0,1,0-1.11Z"/><path d="M18.392,18.807c.094-.07,1.876-1.365,2.941-1.974a22.92,22.92,0,0,1,6.934-2.708A6.463,6.463,0,0,1,33.02,12a6.761,6.761,0,0,1,5.834,3.573A8.9,8.9,0,0,1,42.02,15a7.908,7.908,0,0,1,7.729,5.193c.274-.366.56-.709.845-1.024a18.981,18.981,0,0,0-37.182-.031,21.377,21.377,0,0,1,1.952,2.515A19.153,19.153,0,0,1,18.392,18.807Z"/><path d="M28.375,52.781l-5-4a1,1,0,0,1-.345-1.024l.469-1.875-8.1,1.775a1.106,1.106,0,0,1-.113.018A3.011,3.011,0,0,0,12.592,50.3L11.158,60H29.069l.515-7.191a1,1,0,0,1-1.209-.028Z"/><path d="M26.073,47.46a1.009,1.009,0,0,1,0-.743l1.615-4.1-1.051-.35-.685,2.051-.105.421,0,.018-.714,2.865,1.5,1.2Z"/><path d="M37.927,47.46l-.554,1.361,1.5-1.2-.844-3.377-.662-1.978-1.052.35,1.615,4.1A1.009,1.009,0,0,1,37.927,47.46Z"/><path d="M34.712,44h-.844l.964,1.445a1,1,0,0,1,0,1.11l-.78,1.17.241,3.359,1.63-4.007Z"/><path d="M53.93,24.45a3.283,3.283,0,0,0-2.31-3.3.145.145,0,0,1-.07-.02c-.32.41-.64.87-.93,1.27-.29.42-.51.71-.69.95a1.029,1.029,0,0,1-.22.36c-.05.04-.1.08-.16.12a.556.556,0,0,1-.17.09.6.6,0,0,1-.19.06A1.225,1.225,0,0,1,49,24c-.02,0-.03-.01-.05-.01a.942.942,0,0,1-.54-.13.981.981,0,0,1-.47-1.1,3.344,3.344,0,0,0,.08-.76c0-2.76-2.69-5-6-5a6.734,6.734,0,0,0-3.16.76,1,1,0,0,1-1.39-.49A4.953,4.953,0,0,0,33.02,14a4.542,4.542,0,0,0-3.48,1.7,1.013,1.013,0,0,1-.6.34,20.322,20.322,0,0,0-6.61,2.53c-.97.55-2.72,1.83-2.74,1.84a14.742,14.742,0,0,0-3.4,3.48,1.023,1.023,0,0,1-.77.45h-.07A.981.981,0,0,1,14.6,24c-.2-.23-.47-.61-.8-1.09-.36-.53-.84-1.21-1.31-1.8a.21.21,0,0,1-.11.04c-.46.09-1.3,1.13-1.77,2.02a4.909,4.909,0,0,0-.17,2.45,5.166,5.166,0,0,0,.46,1.41.488.488,0,0,1,.03.07,3.262,3.262,0,0,0,2.65,1.94,1.562,1.562,0,0,0,.48-.02,2.222,2.222,0,0,0,1.03-.48,1.026,1.026,0,0,1,.63-.22,1.635,1.635,0,0,1,.22.02,1.007,1.007,0,0,1,.68.54c2.67,5.52,8.78,9.08,15.56,9.08s12.89-3.56,15.56-9.08a1,1,0,0,1,1.53-.34,2.3,2.3,0,0,0,1.04.48,1.572,1.572,0,0,0,.41.03,3.722,3.722,0,0,0,3.16-3.21.637.637,0,0,1,.02-.07c0-.02.03-.15.03-.15A9.051,9.051,0,0,0,53.93,24.45ZM37,34c-.16,0-.33-.01-.49-.02a1.049,1.049,0,0,1-.68-.33,2.342,2.342,0,0,0-1.68-.64c-.04,0-.09-.01-.13-.01a2.811,2.811,0,0,0-1.49.37,1.011,1.011,0,0,1-1.06,0A2.786,2.786,0,0,0,30,33a.757.757,0,0,1-.15.01,2.342,2.342,0,0,0-1.68.64,1.049,1.049,0,0,1-.68.33c-.16.01-.33.02-.49.02-2.32,0-4-1.05-4-2.5a1,1,0,0,1,2,0,3.413,3.413,0,0,0,2,.5,4.577,4.577,0,0,1,2.74-.99,4.453,4.453,0,0,1,2.26.38,4.453,4.453,0,0,1,2.26-.38A4.577,4.577,0,0,1,37,32a2.833,2.833,0,0,0,2.02-.58.961.961,0,0,1,.99-.96A1.03,1.03,0,0,1,41,31.5C41,32.95,39.32,34,37,34Z"/><path d="M35,53a1,1,0,0,1-.584-.191L34.931,60H52.842l-1.431-9.684a3.017,3.017,0,0,0-2.692-2.641,1.106,1.106,0,0,1-.113-.018L40.5,45.882l.471,1.875a1,1,0,0,1-.345,1.024l-5,4A1,1,0,0,1,35,53Z"/></g></svg>
