<?xml version="1.0"?>
<svg xmlns="http://www.w3.org/2000/svg" viewBox="0 0 64 64" width="512" height="512"><g id="Man-2" data-name="Man"><polygon points="40 58.382 43 59.882 46 58.382 46 54 40 54 40 58.382"/><path d="M29,39.76v4.033a21.843,21.843,0,0,0,6,0V39.76A21.16,21.16,0,0,1,32,40,21.16,21.16,0,0,1,29,39.76Z"/><path d="M47.45,59.89,45.23,61h7.76L51.41,50.32a3.029,3.029,0,0,0-2.69-2.65.375.375,0,0,1-.11-.01L37.6,45.25A18.689,18.689,0,0,1,32,46a18.736,18.736,0,0,1-5.6-.75L15.39,47.66a.375.375,0,0,1-.11.01,3.028,3.028,0,0,0-2.69,2.63L11.01,61H40.77l-2.22-1.11A.977.977,0,0,1,38,59V53a1,1,0,0,1,1-1h8a1,1,0,0,1,1,1v6A.977.977,0,0,1,47.45,59.89Zm0,0L45.23,61h7.76L51.41,50.32a3.029,3.029,0,0,0-2.69-2.65.375.375,0,0,1-.11-.01L37.6,45.25A18.689,18.689,0,0,1,32,46a18.736,18.736,0,0,1-5.6-.75L15.39,47.66a.375.375,0,0,1-.11.01,3.028,3.028,0,0,0-2.69,2.63L11.01,61H40.77l-2.22-1.11A.977.977,0,0,1,38,59V53a1,1,0,0,1,1-1h8a1,1,0,0,1,1,1v6A.977.977,0,0,1,47.45,59.89Z"/><path d="M56.08,21.31a.994.994,0,0,1-.33-1.33A1.959,1.959,0,0,0,56,19a2.007,2.007,0,0,0-.87-1.65.994.994,0,0,1-.36-1.22A2.926,2.926,0,0,0,55,15a3.009,3.009,0,0,0-3-3,3.074,3.074,0,0,0-.77.1.967.967,0,0,1-.94-.26,1,1,0,0,1-.29-.85A2,2,0,0,0,48,9a2.059,2.059,0,0,0-.95.24A13,13,0,0,1,48,13a1,1,0,0,1-2,0,14.584,14.584,0,0,0-1.22-4.03,18.916,18.916,0,0,0-25.56,0A14.584,14.584,0,0,0,18,13a1,1,0,0,1-2,0,13,13,0,0,1,.95-3.76A2.059,2.059,0,0,0,16,9a2,2,0,0,0-2,1.99,1,1,0,0,1-.29.85.961.961,0,0,1-.94.26A3.074,3.074,0,0,0,12,12a3.009,3.009,0,0,0-3,3,2.926,2.926,0,0,0,.23,1.13.994.994,0,0,1-.36,1.22A2.007,2.007,0,0,0,8,19a1.959,1.959,0,0,0,.25.98.994.994,0,0,1-.33,1.33A2.037,2.037,0,0,0,7,23a2,2,0,0,0,1.06,1.76c-.02-2.75,1.59-5.15,3.96-5.57a1,1,0,1,1,.36,1.96c-1.62.3-2.62,2.29-2.24,4.45.03.14.04.2.05.25.38,1.77,1.7,3.14,3.12,3.19a1.573,1.573,0,0,0,.48-.03,2.2,2.2,0,0,0,1.04-.48,1,1,0,0,1,1.53.34A16.661,16.661,0,0,0,28.2,37.62a19.441,19.441,0,0,0,7.6,0,16.661,16.661,0,0,0,11.84-8.75,1,1,0,0,1,1.53-.34,2.309,2.309,0,0,0,1.05.49,1.491,1.491,0,0,0,.41.02,3.776,3.776,0,0,0,3.19-3.26.866.866,0,0,0,.02-.1,4.775,4.775,0,0,0-.46-3.2,2.949,2.949,0,0,0-.86-.95,1,1,0,0,1,1.12-1.66,5.048,5.048,0,0,1,1.47,1.6,6.429,6.429,0,0,1,.83,3.28A2.01,2.01,0,0,0,57,23,2.037,2.037,0,0,0,56.08,21.31ZM34,30H30a1,1,0,0,1,0-2h4a1,1,0,0,1,0,2Z"/></g></svg>
