<?xml version="1.0"?>
<svg xmlns="http://www.w3.org/2000/svg" viewBox="0 0 64 64" width="512" height="512"><g id="Man"><path d="M32,40a21.113,21.113,0,0,1-3-.221v4.1a.984.984,0,0,1-.35.741,14.995,14.995,0,0,0,6.7,0A.984.984,0,0,1,35,43.88v-4.1A21.113,21.113,0,0,1,32,40Z"/><path d="M53.736,15.324a25.568,25.568,0,0,1,4.588,6.87l.141.316c.454,1.02,1.017,2.285,1.5,3.549.024-.336.036-.685.036-1.059a15.591,15.591,0,0,0-1.873-7.513l-.111-.309C56.635,9.665,45.452,4,32,4,19.323,4,8.127,9.286,5.955,16.3a7.05,7.05,0,0,1-.675,1.429c-.13.226-.26.452-.372.693A15.112,15.112,0,0,0,4,24.809V25c0,.374.012.723.036,1.059.482-1.264,1.045-2.529,1.5-3.549l.141-.316a25.568,25.568,0,0,1,4.588-6.87,1,1,0,1,1,1.472,1.352,24.6,24.6,0,0,0-3.3,4.507,5.871,5.871,0,0,0-.749,3.38c.063.745.162,1.5.3,2.257a24.067,24.067,0,0,0,.77,3.037A14.934,14.934,0,0,1,9,28.3v-.085a7.007,7.007,0,0,1-.825-2.277c-.573-3.235,1.152-6.267,3.847-6.754a.979.979,0,0,1,.79.2,12.918,12.918,0,0,1,.406-4.562,1,1,0,0,1,1.924.549,11.772,11.772,0,0,0,.064,6.176,11.7,11.7,0,0,0,3.264,5.6A22.179,22.179,0,0,1,17,19a12.127,12.127,0,0,1,1.7-6.725,1,1,0,0,1,1.865.678A7.171,7.171,0,0,0,21.536,18c1.664,2.893,3.051,4.6,4.155,5.149A10.061,10.061,0,0,1,25,19.5a3.072,3.072,0,0,1,.018-.371A1,1,0,1,1,27,19.371c0,.041,0,.087,0,.129a8.235,8.235,0,0,0,2.314,5.69A9.252,9.252,0,0,0,36,28a9.427,9.427,0,0,0,1.81-.175c-.819-1.74-.816-3.3-.811-6.115V21a11.627,11.627,0,0,1,1.671-6.565l.26-.5a1,1,0,0,1,.617-.5l.46-.13a1,1,0,0,1,.658.039C43.812,14.654,45,15.7,45,21.5c0,3.382-.151,5.532-1.288,7.374C45.863,28.123,48,24.072,48,18.5a1,1,0,0,1,2,0C50,25.509,46.925,31,43,31a4.326,4.326,0,0,1-1.663-.336,1,1,0,0,1-.314-1.642C42.631,27.465,43,26.059,43,21.5c0-4.627-.612-5.244-2.579-6.1A9.741,9.741,0,0,0,39,21v.713c-.006,3.2-.008,4.4,1.151,6.206a1,1,0,0,1-.521,1.489A11.376,11.376,0,0,1,27.866,26.57a10.674,10.674,0,0,1-1.009-1.25c-3.136.474-5.841-4.214-7.054-6.321a10.878,10.878,0,0,1-.74-1.557C19.021,17.9,19,18.411,19,19c0,4.042,1.047,7.8,2.8,10.056a1,1,0,0,1-1.023,1.586c-3.377-.811-6.321-4.177-7.5-8.573-.115-.431-.2-.866-.281-1.3a.993.993,0,0,1-.615.386c-1.614.291-2.615,2.284-2.233,4.441.332,1.921,1.693,3.4,3.167,3.446a1.737,1.737,0,0,0,.476-.026,2.271,2.271,0,0,0,1.04-.48,1,1,0,0,1,1.532.339C19.044,34.418,25.184,38,32,38s12.956-3.582,15.64-9.126a1,1,0,0,1,1.532-.339,2.278,2.278,0,0,0,1.044.481,1.637,1.637,0,0,0,.417.028c1.529-.049,2.89-1.528,3.221-3.444.383-2.162-.618-4.155-2.232-4.446a1,1,0,1,1,.356-1.968c2.7.487,4.42,3.519,3.846,6.759A6.952,6.952,0,0,1,55,28.215V28.3a14.958,14.958,0,0,1,.247,1.554,24.038,24.038,0,0,0,.77-3.038c.138-.757.237-1.51.3-2.254a5.879,5.879,0,0,0-.75-3.382,24.557,24.557,0,0,0-3.3-4.506,1,1,0,1,1,1.472-1.352Z"/><path d="M49.5,30.876l.5,1.992.455-1.825a4.006,4.006,0,0,1-.586-.058C49.742,30.963,49.625,30.909,49.5,30.876Z"/><path d="M27,60H37V46.194A14.2,14.2,0,0,1,32,47a14.2,14.2,0,0,1-5-.806Z"/><path d="M49,47.728V60h3.842l-1.431-9.684A3.013,3.013,0,0,0,49,47.728Z"/><polygon points="39 45.561 39 60 47 60 47 47.307 39 45.561"/><path d="M11.158,60H15V47.728a3,3,0,0,0-2.408,2.57Z"/><polygon points="25 60 25 45.559 17 47.306 17 60 25 60"/><path d="M14,32.868l.5-1.992c-.122.033-.238.086-.362.108a3.761,3.761,0,0,1-.591.057Z"/></g></svg>
