<?xml version="1.0"?>
<svg xmlns="http://www.w3.org/2000/svg" viewBox="0 0 64 64" width="512" height="512"><g id="Man-4" data-name="Man"><path d="M52.44,20.61a1.189,1.189,0,0,0-.739-.545,1.272,1.272,0,0,0-.947.313,14.684,14.684,0,0,1-.573,7.513.813.813,0,0,0,.109.042,1.2,1.2,0,0,0,.905-.261,5.245,5.245,0,0,0,1.77-3.326A5.244,5.244,0,0,0,52.44,20.61Z"/><path d="M11.035,24.346a5.245,5.245,0,0,0,1.77,3.326,1.207,1.207,0,0,0,.89.264.849.849,0,0,0,.115-.044,15.162,15.162,0,0,1-.579-7.526,1.243,1.243,0,0,0-.933-.3,1.184,1.184,0,0,0-.738.544A5.244,5.244,0,0,0,11.035,24.346Z"/><rect x="18" y="20" width="8" height="4"/><path d="M13.749,17a7.705,7.705,0,0,0,1.212.3c3.213.581,8.6.026,14.07-1.441a47.334,47.334,0,0,0,9.32-3.492,1,1,0,0,1,1.125.142,11.841,11.841,0,0,0,4.742,2.38c.558.149,1.2.374,1.87.612a11.933,11.933,0,0,0,3.222.856,3.4,3.4,0,0,0,.349-.03c-.8-2.024-2.42-5.494-4.778-7.56A19.54,19.54,0,0,0,32,4a19.13,19.13,0,0,0-16.162,8.546A17.156,17.156,0,0,0,13.749,17Z"/><rect x="31" y="44" width="2" height="2"/><path d="M30.01,54l.826,5.78a3.565,3.565,0,0,0,2.328,0L33.99,54l-.857-6H30.867Z"/><path d="M35.412,58.185A12.912,12.912,0,0,0,38,50a15.436,15.436,0,0,0-.527-3.99l-.544,1.362A1,1,0,0,1,36,48h-.847l.837,5.858a1.039,1.039,0,0,1,0,.284Z"/><path d="M28.847,48H28a1,1,0,0,1-.929-.628l-.545-1.363A15.464,15.464,0,0,0,26,50a12.914,12.914,0,0,0,2.588,8.187l-.578-4.045a1.039,1.039,0,0,1,0-.284Z"/><path d="M19.341,54.752a1,1,0,0,1,.144-1.609l3.725-2.235L20.4,48.8a1,1,0,0,1-.107-1.507L23.586,44H19.81a4.966,4.966,0,0,0-4.874,3.917L12.247,60H25.339Z"/><path d="M35,41V39.786a20.246,20.246,0,0,1-6-.019V41h1a1,1,0,0,1,1,1h2a1,1,0,0,1,1-1Z"/><path d="M39.8,52.648a14.931,14.931,0,0,1-1.743,5.221l4.249-3.718Z"/><path d="M41.478,47.892l-1.965-1.965a17.319,17.319,0,0,1,.44,3.108Z"/><path d="M49.064,47.917A4.966,4.966,0,0,0,44.19,44H40.414l3.293,3.293A1,1,0,0,1,43.6,48.8l-2.81,2.108,3.725,2.235a1,1,0,0,1,.144,1.609l-6,5.248H51.753Z"/><polygon points="36.523 43 35 43 35 46 35.323 46 36.523 43"/><path d="M24.2,52.648l-2.506,1.5,4.247,3.716A14.932,14.932,0,0,1,24.2,52.648Z"/><path d="M24.486,45.928l-1.964,1.964,1.525,1.143A17.372,17.372,0,0,1,24.486,45.928Z"/><rect x="38" y="20" width="8" height="4"/><polygon points="29 43 27.477 43 28.677 46 29 46 29 43"/><path d="M48.059,27.915A13.314,13.314,0,0,0,48.7,20.2a12.858,12.858,0,0,0-.616-1.994,23.048,23.048,0,0,1-2.664-.816c-.637-.225-1.239-.437-1.721-.566a14.439,14.439,0,0,1-5.025-2.379A50.386,50.386,0,0,1,29.549,17.8c-.632.17-1.26.323-1.884.469A.986.986,0,0,1,28,19v1.685a12.021,12.021,0,0,1,8,0V19a1,1,0,0,1,1-1H47a1,1,0,0,1,1,1v6a1,1,0,0,1-1,1H37a1,1,0,0,1-1-1V22.882A8.541,8.541,0,0,0,32,22a8.541,8.541,0,0,0-4,.882V25a1,1,0,0,1-1,1H17a1,1,0,0,1-1-1V19.452c-.169-.015-.336-.031-.5-.05A13.411,13.411,0,0,0,15,23c0,8.271,7.626,15,17,15C39.241,38,45.694,33.947,48.059,27.915Z"/></g></svg>
