<?xml version="1.0"?>
<svg xmlns="http://www.w3.org/2000/svg" viewBox="0 0 64 64" width="512" height="512"><g id="Woman-7" data-name="Woman"><path d="M35,9.874c-.541-.312-1.933.008-4.093,1.923A33.861,33.861,0,0,0,24.536,20c-3.339,5.773-5.121,11.02-4.614,13.518.125.125.234.232.279.274a17.722,17.722,0,0,0,8,3.828,19.282,19.282,0,0,0,7.606,0,17.65,17.65,0,0,0,7.906-3.774c.482-3.3,1.069-6.834,1.285-7.918-.348-5.487-3.153-9.908-5.632-11.7a2.782,2.782,0,0,0-1.985-.747.943.943,0,0,0-.217.1,1,1,0,0,1-1.527-.923C35.741,11.209,35.5,10.169,35,9.874Z"/><path d="M37,39.391v3.1l6.219.624A24.7,24.7,0,0,1,43,40c0-.611.131-1.856.324-3.357A19.844,19.844,0,0,1,37,39.391Z"/><path d="M27,42.5v-3.1a19.873,19.873,0,0,1-6.351-2.77A18.6,18.6,0,0,1,21,40a24.66,24.66,0,0,1-.219,3.119Z"/><path d="M52.306,59.352a1.342,1.342,0,0,1-.717.234,1.028,1.028,0,0,1-.429-.094,1.066,1.066,0,0,1-.565-.644c-.16-.529.072-.9.633-1.8.28-.448.658-1.053,1.05-1.77l-.56-4.513A3.853,3.853,0,0,1,49,52c-2.277,0-4.224-2.3-5.257-6.086C40.689,47.929,33.024,48,32,48s-8.689-.071-11.744-2.087C19.222,49.705,17.276,52,15,52a3.849,3.849,0,0,1-2.718-1.231L11.134,60H52.869l-.123-1A4.173,4.173,0,0,1,52.306,59.352Z"/><path d="M55.217,42.621a13.488,13.488,0,0,1-.977-1.41l0-.009,0,0v0A8.366,8.366,0,0,1,53,37.013a6.39,6.39,0,0,1,.588-2.756,5.426,5.426,0,0,0,.422-1.395c.252-1.8-.674-3.886-2.753-6.193a1,1,0,1,1,1.486-1.338c2.492,2.766,3.585,5.393,3.247,7.808a7.3,7.3,0,0,1-.55,1.872A4.451,4.451,0,0,0,55,36.99a5.969,5.969,0,0,0,.394,1.993,5.66,5.66,0,0,0,.409-.771A22.4,22.4,0,0,0,57,30c0-2.651-2.116-8.1-5.267-13.55l-.025-.048a45.884,45.884,0,0,0-3.49-5.259c-.018-.017-.033-.035-.049-.052A22.978,22.978,0,0,0,32,4,22.851,22.851,0,0,0,18.323,8.826a.307.307,0,0,1-.041.034A20.678,20.678,0,0,0,15.823,11.1c-.012.015-.026.029-.04.044A45.789,45.789,0,0,0,12.292,16.4l-.025.048C9.116,21.9,7,27.349,7,30a22.38,22.38,0,0,0,1.2,8.212,5.662,5.662,0,0,0,.408.771,5.977,5.977,0,0,0,.394-2,4.448,4.448,0,0,0-.44-1.976,7.3,7.3,0,0,1-.55-1.873c-.338-2.414.755-5.041,3.247-7.807a1,1,0,0,1,1.486,1.338c-2.079,2.307-3.005,4.391-2.753,6.192a5.422,5.422,0,0,0,.422,1.4A6.386,6.386,0,0,1,11,37.01,8.381,8.381,0,0,1,9.767,41.2h0l-.005.011a13.629,13.629,0,0,1-.954,1.382,10.577,10.577,0,0,1-1.743,1.723c-.046.56-.073,1.12-.064,1.669a17.831,17.831,0,0,0,.735,4.74A14.737,14.737,0,0,1,9.093,43.58a1,1,0,1,1,1.814.84,13.007,13.007,0,0,0-.928,2.786,13.479,13.479,0,0,0,.039,5.556l.47-3.775H10.5a.98.98,0,0,1,1.02-.877c.221.008.445.018.646.01a2.525,2.525,0,0,0,2-.67c.4-.627.061-2.267-.143-3.248a11.155,11.155,0,0,0-.641-1.993c-.135-.338-.254-.641-.339-.925-1.273-4.326-2.193-7.449-.976-10.641A9.393,9.393,0,0,1,14.3,27.29,1,1,0,0,1,15.7,28.71a7.4,7.4,0,0,0-1.767,2.641c-.937,2.453-.293,4.9,1.022,9.366.068.23.168.475.278.75a13.1,13.1,0,0,1,.742,2.329c.316,1.523.709,3.419-.136,4.743a3.269,3.269,0,0,1-1.621,1.221A1.544,1.544,0,0,0,15,50c1.472,0,2.968-2.446,3.638-5.948A22.364,22.364,0,0,0,19,40a22.737,22.737,0,0,0-.964-5.733h0v0c-1.178-4.3,2.944-12.107,4.77-15.264a35.864,35.864,0,0,1,6.773-8.7C32.889,7.365,34.9,7.507,36,8.144c.72.419,1.519,1.33,1.643,3.312A5.23,5.23,0,0,1,40.537,12.6C43.5,14.753,46.648,19.711,47,25.944a1.019,1.019,0,0,1-.019.264C46.637,27.818,45,38.05,45,40a22.408,22.408,0,0,0,.363,4.059C46.032,47.554,47.528,50,49,50a1.535,1.535,0,0,0,.776-.239,3.253,3.253,0,0,1-1.612-1.212c-.852-1.334-.459-3.23-.143-4.752a13.091,13.091,0,0,1,.742-2.33c.11-.275.21-.52.278-.752C50.356,36.25,51,33.8,50.065,31.356A7.406,7.406,0,0,0,48.3,28.71,1,1,0,1,1,49.7,27.29a9.4,9.4,0,0,1,2.233,3.359c1.215,3.187.3,6.31-.978,10.634-.085.286-.2.589-.339.927a11.142,11.142,0,0,0-.641,1.994c-.2.98-.543,2.62-.136,3.257a2.513,2.513,0,0,0,1.969.66c.223.007.445,0,.667-.01a.993.993,0,0,1,1.02.877h.013l.314,2.532a9.356,9.356,0,0,0,.2-4.313,13.007,13.007,0,0,0-.928-2.786,1,1,0,1,1,1.814-.84,14.968,14.968,0,0,1,1.072,3.214,10.685,10.685,0,0,1,.108,3.631A13.129,13.129,0,0,0,57,45.984c.009-.549-.018-1.108-.064-1.668A10.424,10.424,0,0,1,55.217,42.621Z"/><path d="M41.114,44.918,35.9,44.4a1,1,0,0,1-.9-1V39.76A21.16,21.16,0,0,1,32,40a21.16,21.16,0,0,1-3-.24V43.4a1,1,0,0,1-.9,1l-5.214.523A32.6,32.6,0,0,0,32,46,32.6,32.6,0,0,0,41.114,44.918Z"/></g></svg>
