<?xml version="1.0"?>
<svg xmlns="http://www.w3.org/2000/svg" viewBox="0 0 64 64" width="512" height="512"><g id="Woman-6" data-name="Woman"><ellipse cx="32" cy="8" rx="5" ry="4"/><path d="M30.745,29.153a5.236,5.236,0,0,1,2.525,0,6.943,6.943,0,0,1,2.345-3.584c-.333-.081-.675-.149-1-.236-5.878-1.575-11.018-4.178-13.9-6.945-.063.3-.119.6-.2.906a14.852,14.852,0,0,1-2.12,4.7H24A7.007,7.007,0,0,1,30.745,29.153Z"/><path d="M19,26v1a3,3,0,0,0,3,3h6.9A5.008,5.008,0,0,0,24,26Z"/><path d="M45,27v-.183h0a37.166,37.166,0,0,1-6.393-.6A4.969,4.969,0,0,0,35.1,30H42A3,3,0,0,0,45,27Z"/><path d="M18.574,18.781A13.109,13.109,0,0,0,19,16.357l0-.317a.794.794,0,0,1,.02-.1.933.933,0,0,1,.039-.2.943.943,0,0,1,.078-.188,1.054,1.054,0,0,1,.083-.126,1.014,1.014,0,0,1,.2-.2c.012-.009.017-.022.03-.03s.021-.006.03-.012a.951.951,0,0,1,.328-.132l.018,0A.911.911,0,0,1,20,15.021a.983.983,0,0,1,.855.5c1.973,2.959,7.7,6.125,14.274,7.886.839.224,1.705.428,2.574.607l.066.01c.289.063.57.116.851.168a34.714,34.714,0,0,0,7.036.621c.1,0,.176-.009.256-.016a21.457,21.457,0,0,0,4.582-1,20.671,20.671,0,0,0-4.765-9.126,18.841,18.841,0,0,0-5.93-4.087c-.245-.109-.7-.146-1.812.752v0a.45.45,0,0,1-.037.028c-.082.07-.17.139-.258.208s-.187.158-.294.265l-.162.143q-.2.2-.427.38l-.048.043c-.009.008-.021.01-.031.018A7.637,7.637,0,0,1,32,14a7.345,7.345,0,0,1-5.859-2.727,6.038,6.038,0,0,0-.677-.481c-.673-.386-.946-.268-1.063-.216a18.674,18.674,0,0,0-3.94,2.326,18.951,18.951,0,0,0-7.121,11.52,1.231,1.231,0,0,0,.526.342C15.238,25.135,17.539,22.65,18.574,18.781Z"/><polygon points="40.328 54.977 42.446 54.412 41.965 52.613 40.209 54.529 40.328 54.977"/><polygon points="38 50.408 38 53.979 41.088 50.612 38 50.408"/><polygon points="35.589 60.445 39.445 59.413 38.606 56.276 35.407 59.764 35.589 60.445"/><polygon points="28 49 28 50.697 29.131 49 28 49"/><path d="M22.86,61H11.09l1.49-7.98c.13-.65,1.11-1.4,2.67-1.51l5.1-.34-.99,3.69a1.006,1.006,0,0,0,.71,1.23l3.08.82-.79,2.95a1.055,1.055,0,0,0,.1.76A1.119,1.119,0,0,0,22.86,61Z"/><path d="M41.54,60.62a1.055,1.055,0,0,0,.1-.76l-.79-2.95,3.08-.82a1.006,1.006,0,0,0,.71-1.23l-1.07-3.99.08-.09,5.1.34c1.56.11,2.54.86,2.67,1.5L52.99,61H41.14A1.119,1.119,0,0,0,41.54,60.62Z"/><path d="M47.72,33.874a1,1,0,0,1,1.466-.39,4.053,4.053,0,0,0,1.029.532,1.8,1.8,0,0,0,.421.028c1.527-.049,2.887-1.528,3.218-3.444.383-2.144-.6-4.132-2.2-4.438a.991.991,0,0,1-.639-.439A27.075,27.075,0,0,1,47,26.686V27a5.006,5.006,0,0,1-5,5H34a.985.985,0,0,1-.965-.827,3.511,3.511,0,0,0-2.07,0A.985.985,0,0,1,30,32H22a5.006,5.006,0,0,1-5-5V25.569A4.408,4.408,0,0,1,14.156,26.8,3.081,3.081,0,0,1,12.3,26.18c-1.564.344-2.528,2.3-2.152,4.415.332,1.921,1.692,3.4,3.166,3.445a1.606,1.606,0,0,0,.478-.025,2.258,2.258,0,0,0,1.039-.481,1.12,1.12,0,0,1,1.619.355c.12.257.258.506.4.754a14.776,14.776,0,0,0,2.84,3.607,1.11,1.11,0,0,1,.082.086A17.98,17.98,0,0,0,32.08,43C38.9,43,45.036,39.418,47.72,33.874Z"/><polygon points="36 50.697 36 49 34.869 49 36 50.697"/><path d="M37,55a.984.984,0,0,1-.83-.45l-4-6A.991.991,0,0,1,32,48a.991.991,0,0,1-.17.55l-4,6A.984.984,0,0,1,27,55c-.02,0-.05-.01-.07-.01L32,60.52l5.07-5.53C37.05,54.99,37.02,55,37,55Zm-4,0a1,1,0,0,1-2,0V51a1,1,0,0,1,2,0Zm-.92-10A20.868,20.868,0,0,1,29,44.76V47h2a.984.984,0,0,1,.88.53A1,1,0,0,1,32,48a1,1,0,0,1,.12-.47A.984.984,0,0,1,33,47h2V44.79A20.174,20.174,0,0,1,32.08,45Z"/><polygon points="24.555 59.413 28.411 60.445 28.593 59.763 25.395 56.274 24.555 59.413"/><polygon points="26 50.799 23.255 50.98 26 53.975 26 50.799"/><polygon points="21.554 54.412 23.672 54.977 23.792 54.526 22.036 52.61 21.554 54.412"/></g></svg>
