<?xml version="1.0"?>
<svg xmlns="http://www.w3.org/2000/svg" viewBox="0 0 64 64" width="512" height="512"><g id="Woman-5" data-name="Woman"><path d="M12.592,48.3,11.133,60H18V45.4l-2.722.272A3.011,3.011,0,0,0,12.592,48.3Z"/><path d="M23,53V44.9l-3,.3V60H44V45.2l-3-.3V53a1,1,0,0,1-1,1H24A1,1,0,0,1,23,53Z"/><path d="M25.147,44.69,25,44.705V52H39v-7.3l-.147-.015C38.161,46.279,35.07,47,32,47S25.839,46.279,25.147,44.69Z"/><path d="M51.408,48.294a3.011,3.011,0,0,0-2.689-2.619L46,45.4V60h6.867Z"/><path d="M52.182,21.349a6.676,6.676,0,0,1-.856.6.988.988,0,0,1-.3.113,10.184,10.184,0,0,1-1.044.145,17.736,17.736,0,0,1-7.4-1.153.978.978,0,0,1-.11-.046A27.461,27.461,0,0,1,38,18.925a26.136,26.136,0,0,1-6-4.665,26.136,26.136,0,0,1-6,4.666,27.389,27.389,0,0,1-4.472,2.083c-.034.016-.068.031-.1.044a19.186,19.186,0,0,1-6.3,1.211q-.561,0-1.092-.048a9.959,9.959,0,0,1-1.054-.155.988.988,0,0,1-.3-.113,6.606,6.606,0,0,1-.856-.6c-1.267.6-2.006,2.383-1.673,4.245.332,1.922,1.693,3.4,3.167,3.446a1.659,1.659,0,0,0,.476-.025,2.26,2.26,0,0,0,1.04-.48,1.118,1.118,0,0,1,1.619.354c.118.254.254.5.39.743a14.773,14.773,0,0,0,2.846,3.618,1.11,1.11,0,0,1,.082.086A17.984,17.984,0,0,0,32.08,38c6.816,0,12.956-3.582,15.64-9.126a1,1,0,0,1,.643-.53,1.007,1.007,0,0,1,.823.14,4.086,4.086,0,0,0,1.029.532,1.746,1.746,0,0,0,.42.028c1.527-.049,2.888-1.528,3.219-3.444C54.188,23.732,53.449,21.952,52.182,21.349Z"/><path d="M32.08,40A21.482,21.482,0,0,1,29,39.759V43.4a1,1,0,0,1-.9,1l-.16.015A12.3,12.3,0,0,0,32,45a12.3,12.3,0,0,0,4.059-.589L35.9,44.4a1,1,0,0,1-.9-1V39.792A21.194,21.194,0,0,1,32.08,40Z"/><path d="M13.53,20.131c.218.039.446.072.679.093A15.93,15.93,0,0,0,20.664,19.2a.916.916,0,0,1,.1-.043A25.4,25.4,0,0,0,25,17.194a23.163,23.163,0,0,0,6.232-5.084,1.034,1.034,0,0,1,1.538,0A23.162,23.162,0,0,0,39,17.193a25.416,25.416,0,0,0,4.235,1.964,1.12,1.12,0,0,1,.106.044,15.691,15.691,0,0,0,6.454,1.014c.237-.023.462-.049.678-.086a5.3,5.3,0,0,0,.823-.648,5.5,5.5,0,0,0-3.607-9.472,1,1,0,0,1-.833-.5,4.026,4.026,0,0,0-2.879-1.443,1.13,1.13,0,0,1-.116-.022A6.948,6.948,0,0,0,43,8a1,1,0,0,1-1-1,.891.891,0,0,0-.095-.4c-.357-.741-1.7-1.519-3.587-1.6-.018,0-.088,0-.106,0-.052,0-.111,0-.167,0C38.03,4.992,38.016,5,38,5s-.026-.007-.039-.008a6.622,6.622,0,0,0-1.567.183,1,1,0,0,1-.98-.163A5.54,5.54,0,0,0,32,4a5.54,5.54,0,0,0-3.414,1.012,1,1,0,0,1-1.014.154A6.451,6.451,0,0,0,26.026,5c-.009,0-.017,0-.026,0s-.026-.008-.04-.008l-.03,0c-.048,0-.1,0-.142,0s-.1,0-.128,0c-1.851.07-3.2.853-3.56,1.589a.887.887,0,0,0-.1.4A1.008,1.008,0,0,1,21,8a7.144,7.144,0,0,0-.974.07,4.031,4.031,0,0,0-2.881,1.444,1,1,0,0,1-.833.5A5.467,5.467,0,0,0,11,15.5a5.525,5.525,0,0,0,1.709,3.985A5.368,5.368,0,0,0,13.53,20.131Z"/></g></svg>
