<?xml version="1.0"?>
<svg xmlns="http://www.w3.org/2000/svg" viewBox="0 0 64 64" width="512" height="512"><g id="Woman-4" data-name="Woman"><path d="M32,40a21.113,21.113,0,0,1-3-.221V43.4a.965.965,0,0,1-.056.3,15.512,15.512,0,0,0,6.112,0A.965.965,0,0,1,35,43.4V39.779A21.113,21.113,0,0,1,32,40Z"/><path d="M50.751,31.04a3.527,3.527,0,0,1-.883-.055,4.251,4.251,0,0,1-.933-.279,17.728,17.728,0,0,1-6.07,6.234l.016.255c.028.494.065,1.111.092,1.254l.006.037a3.031,3.031,0,0,0,.891,1.545l1.4.687,2.175-3.254c.079-.12.217-.315.375-.536A14.585,14.585,0,0,0,48.7,35.61a1,1,0,0,1,.915-.61h.006a1,1,0,0,1,.917.6A7.169,7.169,0,0,1,51,38.7a3.506,3.506,0,0,0,1-1.012A6.8,6.8,0,0,0,53,34a6.954,6.954,0,0,0-.778-3.285A4.413,4.413,0,0,1,50.751,31.04Z"/><polygon points="11.632 56 52.369 56 51.621 50 12.38 50 11.632 56"/><path d="M45,27H37a3,3,0,0,1-3-3v-.465l-.336-.223a2.992,2.992,0,0,0-3.328,0L30,23.535V24a3,3,0,0,1-3,3H19a3,3,0,0,1-3-3V20.026c-1.6.633-3.31,1.242-4.758,1.7a4.207,4.207,0,0,0-1.1,3.873c.332,1.921,1.693,3.4,3.167,3.445a1.624,1.624,0,0,0,.476-.025,2.26,2.26,0,0,0,1.04-.48,1,1,0,0,1,1.532.339C19.044,34.418,25.184,38,32,38s12.956-3.582,15.64-9.126a1,1,0,0,1,1.532-.339,2.269,2.269,0,0,0,1.043.481,1.8,1.8,0,0,0,.42.028c1.477-.047,2.79-1.437,3.175-3.262a45.611,45.611,0,0,1-5.85-1.388A2.994,2.994,0,0,1,45,27Z"/><polygon points="11.133 60 52.867 60 52.618 58 11.382 58 11.133 60"/><path d="M25.94,44.611,15.279,45.675A3,3,0,0,0,12.656,48H51.345a3,3,0,0,0-2.626-2.325L38.06,44.611C36.715,45.623,34.134,46,32,46S27.285,45.623,25.94,44.611Z"/><path d="M51.622,21.154a1,1,0,0,1-.812-.844,19,19,0,0,0-37.344-1.46A41.962,41.962,0,0,0,19,16.465a14.394,14.394,0,0,0,5.366-5,1,1,0,0,1,1.513-.286,45.5,45.5,0,0,0,6.242,4.314c1.183.684,2.526,1.391,3.991,2.1l0,0h0A86.331,86.331,0,0,0,47.3,22.1a48.283,48.283,0,0,0,6.532,1.662A3.026,3.026,0,0,0,51.622,21.154Z"/><rect x="18" y="19" width="10" height="6" rx="1"/><path d="M34,21.233V20a3,3,0,0,1,.224-1.106c-1.118-.563-2.16-1.123-3.1-1.667a48.558,48.558,0,0,1-5.637-3.8A16.238,16.238,0,0,1,21.835,17H27a3,3,0,0,1,3,3v1.233A4.972,4.972,0,0,1,34,21.233Z"/><path d="M45,25a1,1,0,0,0,1-1v-.235a88.5,88.5,0,0,1-9.951-3.991A.97.97,0,0,0,36,20v4a1,1,0,0,0,1,1Z"/></g></svg>
