<?xml version="1.0"?>
<svg xmlns="http://www.w3.org/2000/svg" viewBox="0 0 64 64" width="512" height="512"><g id="Woman-3" data-name="Woman"><path d="M20.969,21.864c5.122,1.375,9.232.293,9.725-1.535a1.709,1.709,0,0,0,.01-.707L13.329,13.828a7.865,7.865,0,0,0,.725,2.013A11.839,11.839,0,0,0,20.969,21.864Z"/><path d="M35.589,31.476l-.11-.006a8.084,8.084,0,0,1-1.6-.2c-.092.041-.239.128-.344.19A3,3,0,0,1,32,32a2.943,2.943,0,0,1-1.534-.545c-.1-.06-.241-.145-.331-.187a8.331,8.331,0,0,1-1.591.193l-.163.01A6.26,6.26,0,0,0,32,33,6.13,6.13,0,0,0,35.589,31.476Z"/><path d="M51.62,21.15a.987.987,0,0,1-.81-.84c-.08-.54-.19-1.06-.31-1.58a13.24,13.24,0,0,1-6.95,5.07,19.265,19.265,0,0,1-4.93.68c-3.02,0-5.46-.87-6.62-2.42-1.16,1.55-3.6,2.42-6.62,2.42a19.265,19.265,0,0,1-4.93-.68,13.24,13.24,0,0,1-6.95-5.07c-.12.52-.23,1.04-.31,1.58a.987.987,0,0,1-.81.84c-1.62.3-2.62,2.29-2.24,4.44.34,1.93,1.7,3.41,3.17,3.45a1.3,1.3,0,0,0,.48-.03,2.187,2.187,0,0,0,1.04-.47,1.008,1.008,0,0,1,.85-.21,1.029,1.029,0,0,1,.68.54C19.04,34.42,25.18,38,32,38s12.96-3.58,15.64-9.13a1.029,1.029,0,0,1,.68-.54,1,1,0,0,1,.85.21,2.3,2.3,0,0,0,1.04.48,2.124,2.124,0,0,0,.42.02c1.53-.04,2.89-1.52,3.22-3.44C54.24,23.44,53.24,21.45,51.62,21.15ZM32,35c-2.48,0-6-2.07-6-4,0-1.4,1.52-1.49,2.43-1.54a5.822,5.822,0,0,0,1.27-.15,2.238,2.238,0,0,1,1.8.43,2.233,2.233,0,0,0,.51.26,2.728,2.728,0,0,0,.51-.26,2.231,2.231,0,0,1,1.81-.42,5.962,5.962,0,0,0,1.26.15c.9.05,2.41.13,2.41,1.53C38,32.93,34.48,35,32,35Z"/><path d="M47.931,12.633c-.183-.284-.372-.563-.569-.833a19.013,19.013,0,0,0-31.286.836L32,17.946Z"/><path d="M20.484,52.232A26.712,26.712,0,0,1,24,52a18.636,18.636,0,0,1,8,1.477A18.636,18.636,0,0,1,40,52a26.712,26.712,0,0,1,3.516.232l2.005-6.876L35.9,44.4a1,1,0,0,1-.9-1V39.779a20.472,20.472,0,0,1-6,0V43.4a1,1,0,0,1-.9,1l-9.621.96Z"/><path d="M33.306,20.332c.493,1.826,4.608,2.906,9.725,1.532a11.841,11.841,0,0,0,6.915-6.022,7.883,7.883,0,0,0,.725-2.014l-.993.331h0L33.3,19.622A1.724,1.724,0,0,0,33.306,20.332Z"/><polygon points="46.795 40.989 44.768 43.271 46.091 43.403 46.795 40.989"/><path d="M32.545,55.468a1,1,0,0,1-1.09,0C30.084,54.576,27.158,54,24,54a24.557,24.557,0,0,0-2.943.194L22.75,60h18.5l1.693-5.806A24.557,24.557,0,0,0,40,54C36.842,54,33.916,54.576,32.545,55.468Z"/><polygon points="43.333 60 55.612 60 49.063 40.354 43.333 60"/><polygon points="19.232 43.271 17.205 40.989 17.909 43.403 19.232 43.271"/><polygon points="8.388 60 20.667 60 14.937 40.354 8.388 60"/></g></svg>
