<?xml version="1.0"?>
<svg xmlns="http://www.w3.org/2000/svg" viewBox="0 0 64 64" width="512" height="512"><g id="Woman-2" data-name="Woman"><path d="M20,51.791V45.2l-4.721.471A3.011,3.011,0,0,0,12.592,48.3L11.133,60h6.734A5.756,5.756,0,0,1,17,57,6.4,6.4,0,0,1,20,51.791Z"/><path d="M47,57a5.756,5.756,0,0,1-.867,3h6.734L51.408,48.294a3.011,3.011,0,0,0-2.689-2.619L44,45.2v6.587A6.4,6.4,0,0,1,47,57Z"/><path d="M42,45l-2-.2v5.372a10.639,10.639,0,0,1,2,.552Z"/><path d="M32.543,53.86a1.012,1.012,0,0,1-.173.1,1.042,1.042,0,0,1-.74,0,1.012,1.012,0,0,1-.173-.1.886.886,0,0,1-.1-.058A8.339,8.339,0,0,0,26,52c-.309,0-.608.019-.908.046a8.573,8.573,0,0,0-3.055.849A4.82,4.82,0,0,0,19,57a4.159,4.159,0,0,0,1.448,3h23.1A4.159,4.159,0,0,0,45,57a4.819,4.819,0,0,0-3.034-4.1,8.589,8.589,0,0,0-3.054-.85A8.7,8.7,0,0,0,32.647,53.8.812.812,0,0,1,32.543,53.86Z"/><path d="M24,44.805,22,45v5.724a10.726,10.726,0,0,1,2-.551Z"/><path d="M15.065,30.706a4.186,4.186,0,0,1-.93.278,3.526,3.526,0,0,1-.94.052,5.4,5.4,0,0,1-4.524-3.455A2.861,2.861,0,0,0,7,30c0,1.341,1.207,2.529,2.936,2.892a1,1,0,0,1,.683,1.437A2.76,2.76,0,0,0,10.536,37c.8,1.379,2.967,1.678,4.837.661a1,1,0,0,1,1.277.28,2.386,2.386,0,0,0,1.315.922,3.193,3.193,0,0,0,3.38-1.8A17.774,17.774,0,0,1,15.065,30.706Z"/><path d="M54.168,19.009a1,1,0,0,1-.814-1.5c1.239-2.144.116-5.817-2.611-8.543a12.344,12.344,0,0,0-6.482-3.036,1,1,0,0,1-.6-.32A5.155,5.155,0,0,0,40,4.37a6.3,6.3,0,0,0-2.461.469A.969.969,0,0,1,37,5h0a1.373,1.373,0,0,1-.294-.033,18.892,18.892,0,0,0-9.406,0A1.146,1.146,0,0,1,27.035,5a1.546,1.546,0,0,1-.485-.121A6.23,6.23,0,0,0,24,4.37a5.155,5.155,0,0,0-3.659,1.241,1,1,0,0,1-.6.32,12.344,12.344,0,0,0-6.482,3.036c-2.727,2.726-3.85,6.4-2.611,8.543a1,1,0,0,1-.814,1.5,2.991,2.991,0,0,0-1.768,5.275,5.933,5.933,0,0,1,1.927-4.413,2.932,2.932,0,0,1,3.263-.272l.366.194c.225.117.426.227.561.3a1.059,1.059,0,0,1,.114.063,4.179,4.179,0,0,0,4.207-.188,4.607,4.607,0,0,0,2.138-2.566V17.16a1,1,0,0,1,1.841-.539A2.98,2.98,0,0,0,25,18a2.933,2.933,0,0,0,2.37-1.17,1,1,0,0,1,1.773.368A3.271,3.271,0,0,0,32,20a3.271,3.271,0,0,0,2.857-2.8,1,1,0,0,1,1.773-.368A2.932,2.932,0,0,0,39,18a2.98,2.98,0,0,0,2.519-1.379,1,1,0,0,1,1.841.539v.247A4.609,4.609,0,0,0,45.5,19.975a4.174,4.174,0,0,0,4.2.186,1.156,1.156,0,0,1,.119-.066c.138-.08.343-.191.571-.311l.351-.185a2.932,2.932,0,0,1,3.264.273,5.94,5.94,0,0,1,1.927,4.411,2.991,2.991,0,0,0-1.769-5.274Z"/><path d="M55.318,27.576a5.378,5.378,0,0,1-4.567,3.464,3.494,3.494,0,0,1-.883-.055,4.251,4.251,0,0,1-.933-.279,17.776,17.776,0,0,1-6.28,6.359,3.2,3.2,0,0,0,3.377,1.8,2.389,2.389,0,0,0,1.318-.923,1,1,0,0,1,1.277-.28c1.87,1.016,4.039.717,4.837-.661a2.76,2.76,0,0,0-.083-2.671,1,1,0,0,1,.683-1.437C55.793,32.529,57,31.341,57,30A2.863,2.863,0,0,0,55.318,27.576Z"/><path d="M35,43.4V39.779a20.472,20.472,0,0,1-6,0V43.4a1,1,0,0,1-.9,1l-2.1.209V50a10.619,10.619,0,0,1,6,1.783A10.619,10.619,0,0,1,38,50v-5.4L35.9,44.4A1,1,0,0,1,35,43.4Z"/><path d="M47.64,28.874a1,1,0,0,1,1.532-.339,2.269,2.269,0,0,0,1.043.481,1.749,1.749,0,0,0,.42.028c1.527-.049,2.888-1.528,3.219-3.444a4.516,4.516,0,0,0-1.118-4.185.955.955,0,0,0-1.047-.053l-.363.193c-.222.116-.417.216-.505.272a.923.923,0,0,1-.088.051,6.141,6.141,0,0,1-6.231-.171A6.838,6.838,0,0,1,41.9,19.075a5.159,5.159,0,0,1-5.657.1A4.9,4.9,0,0,1,32,22a4.9,4.9,0,0,1-4.24-2.823,5.162,5.162,0,0,1-5.657-.1,6.827,6.827,0,0,1-2.6,2.629,6.153,6.153,0,0,1-6.213.187.811.811,0,0,1-.12-.072c-.076-.048-.265-.144-.48-.258l-.379-.2a.948.948,0,0,0-1.045.053h0A4.515,4.515,0,0,0,10.145,25.6l.026.131v0l.072.355a3.655,3.655,0,0,0,3.069,2.957,1.769,1.769,0,0,0,.475-.026,2.26,2.26,0,0,0,1.04-.48,1,1,0,0,1,1.532.339C19.044,34.418,25.184,38,32,38S44.956,34.418,47.64,28.874Z"/></g></svg>
