<?xml version="1.0"?>
<svg xmlns="http://www.w3.org/2000/svg" id="Woman" viewBox="0 0 64 64" width="512" height="512"><path d="M28.436,50.943c2.334.064,4.751.066,7.127,0L32,48.93Z"/><path d="M34,43.34V39.894c-.679.063-1.35.106-2,.106s-1.322-.043-2-.106V43.3a1,1,0,0,1-.9,1l-1.052.1,3.957,2.236,4.012-2.209-1.1-.09A1,1,0,0,1,34,43.34Z"/><path d="M51.7,48.333l-.005-.041a1.924,1.924,0,0,0-.038-.23,2.982,2.982,0,0,0-2.613-2.388l-9.425-.949-5.571,3.068,5.284,2.986A55.958,55.958,0,0,0,51.7,48.333Z"/><path d="M16.813,43.446l1.5-.116a48.032,48.032,0,0,1-1.9-5.353A28.81,28.81,0,0,0,16.813,43.446Z"/><path d="M39.166,52.8c-2.309.134-4.72.2-7.166.2-1.065,0-2.114-.017-3.152-.042.356.649.681,1.236.954,1.727l.444.8a1,1,0,0,1-.708,1.468A3.255,3.255,0,0,1,29,57c-1.529,0-3.373-1.449-5.478-4.278l-.753-.046c-.831-.051-1.72-.106-2.567-.166.09.205.178.4.26.586l.1.227a1,1,0,0,1-.838,1.405c-.09.006-.183.009-.275.009s-.185,0-.275-.009a5.438,5.438,0,0,1-3.29-1.91,17.982,17.982,0,0,1-2.664-3.873L11.855,60H53.146l-1.194-9.651A56.766,56.766,0,0,1,39.166,52.8Z"/><path d="M22.071,50.629a47.16,47.16,0,0,1-2.9-5.359l-1.811.14c.546,1.59,1.186,3.242,1.945,5.025C20.158,50.506,21.122,50.571,22.071,50.629Z"/><path d="M47.641,28.873a1,1,0,0,1,.683-.54,1.008,1.008,0,0,1,.848.2,2.269,2.269,0,0,0,1.043.481,1.749,1.749,0,0,0,.42.028c.587-.02,1.834-.059,2.38-3.214.276-1.559-1.311-3.454-3-4.388a1,1,0,0,0-1.112.1c-1.92,1.529-4.008.324-6.9-1.344a12.038,12.038,0,0,1-4.342-4.113A43.561,43.561,0,0,1,31.5,20.326a36.611,36.611,0,0,1-10.027,4.179A58.139,58.139,0,0,0,21,32a15.133,15.133,0,0,0,.263,2.619,18.106,18.106,0,0,0,7.885,3.172,19.658,19.658,0,0,0,5.711,0A16.722,16.722,0,0,0,47.641,28.873Z"/><path d="M35.98,4.61c-.3-.07-.58-.11-.85-.15-.3-.05-.57-.07-.84-.09a17.445,17.445,0,0,0-3.54,0,7.152,7.152,0,0,0-.85.09c-.3.04-.58.08-.85.14C15.98,6.9,5.77,21.54,5.77,37.93c0,2.7.85,7.83,4.67,17.18l.88-7.06a2.073,2.073,0,0,1,.08-.42c.04-.24.19-.98.37-1.86A40.368,40.368,0,0,1,9,27.8a1.008,1.008,0,0,1,1.04-.91,1,1,0,0,1,.96,1V28a1.5,1.5,0,0,1-.02.22,38.209,38.209,0,0,0,2.75,17.09.488.488,0,0,1,.03.07l.11.26a19.882,19.882,0,0,0,3.47,5.8,4.538,4.538,0,0,0,.38.38c-.01-.02-.01-.03-.02-.05-.98-2.25-1.77-4.3-2.42-6.25-.08-.23-.15-.49-.22-.77-1.14-4.27-.53-11-.13-15.45l.07-.83a57.832,57.832,0,0,1,.65-8.37l.12-.73a1,1,0,1,1,1.98.33l-.12.71A55.827,55.827,0,0,0,17,28.54v.45a37.613,37.613,0,0,0,3.69,14.82,42.114,42.114,0,0,0,4.16,7.35,18.623,18.623,0,0,0,2.12,2.53c-.23-.41-.46-.85-.71-1.31l-.57-1.06c-1.36-2.59-2.47-4.89-3.39-7.05a44.608,44.608,0,0,1-2.94-8.89.433.433,0,0,1-.01-.05v-.01A17.223,17.223,0,0,1,19,32.04a60.114,60.114,0,0,1,.58-8.51c.23-1.55.49-2.89.79-4.12a27.009,27.009,0,0,1,1.61-4.83,1,1,0,0,1,1.82.84,24.454,24.454,0,0,0-1.49,4.46c-.19.78-.36,1.6-.52,2.49a36.763,36.763,0,0,0,8.71-3.78,38.116,38.116,0,0,0,6.8-4.86,1.011,1.011,0,0,1,.91-.23.994.994,0,0,1,.71.61A9.187,9.187,0,0,0,43,18.46c3.16,1.83,3.94,2.08,4.65,1.52a3,3,0,0,1,3.33-.29c2.33,1.29,4.46,3.93,4,6.48-.54,3.16-1.97,4.8-4.23,4.87a4.014,4.014,0,0,1-.88-.05,5.085,5.085,0,0,1-.94-.28A18.728,18.728,0,0,1,36,39.62v2.8l3.7.3,9.55.96a4.98,4.98,0,0,1,4.37,3.98c.03.13.05.27.07.41l.79,6.47c1.53-4.44,3.75-11.72,3.75-16.61C58.23,21.16,48.66,6.83,35.98,4.61ZM50.87,42.5a1,1,0,0,1-1.74-1,7.974,7.974,0,0,0,.92-6.19,6.537,6.537,0,0,0-.87-1.73,1,1,0,0,1,1.64-1.16,8.368,8.368,0,0,1,1.13,2.28A10.011,10.011,0,0,1,50.87,42.5ZM54,45a1.013,1.013,0,0,1-.41-.09.993.993,0,0,1-.5-1.32,12.4,12.4,0,0,0,.93-7.4,12.1,12.1,0,0,0-.92-2.76,1,1,0,0,1,1.8-.86,13.565,13.565,0,0,1,1.08,3.24,14.327,14.327,0,0,1-1.07,8.6A.992.992,0,0,1,54,45Z"/><path d="M28,42.4v-2.78a20.311,20.311,0,0,1-6.075-2.2,50.541,50.541,0,0,0,1.938,5.4Z"/><path d="M29.966,47.782,24.73,44.824c.655,1.453,1.4,2.993,2.254,4.643Z"/></svg>
