<?xml version="1.0"?>
<svg xmlns="http://www.w3.org/2000/svg" viewBox="0 0 64 64" width="512" height="512"><g id="Woman-8" data-name="Woman"><path d="M32,47a3.414,3.414,0,0,1-.378-.016A11.032,11.032,0,0,1,29,46.626V60h6V46.634a10.851,10.851,0,0,1-1.714.3A12.551,12.551,0,0,1,32,47Z"/><path d="M29,39.712V44.54a8.933,8.933,0,0,0,2.75.45A2.292,2.292,0,0,0,32,45a10.257,10.257,0,0,0,1.085-.055,8.173,8.173,0,0,0,1.915-.4V39.817A20.574,20.574,0,0,1,32.43,40,21.023,21.023,0,0,1,29,39.712Z"/><path d="M44,32.366a1.05,1.05,0,0,1,.1-.4A10.788,10.788,0,0,0,45,27c0-1.105-.07-2.182-.172-3.242l-.016.007c-1.988.524-4.159-1.42-5.327-4.614a17.64,17.64,0,0,1-8.256,4.465,21.673,21.673,0,0,1-5.555.777,10.568,10.568,0,0,1-5.443-1.247,33.242,33.242,0,0,0,.449,10.6c.021.116.035.218.054.326a17.775,17.775,0,0,0,7.478,3.448,18.785,18.785,0,0,0,7.606.165A18.148,18.148,0,0,0,44,34.158C43.976,33.547,43.97,32.952,44,32.366Z"/><path d="M20.543,40.676c-.069.482-.137.95-.192,1.406A6.91,6.91,0,0,1,21.37,42h1.411A6.392,6.392,0,0,1,27,40.057v-.773a20.466,20.466,0,0,1-6.068-2.574A30.58,30.58,0,0,1,20.543,40.676Z"/><path d="M24.1,48.78a5.314,5.314,0,0,1-.161-1.81A3.557,3.557,0,0,1,22,44h-.63a4.884,4.884,0,0,0-1.156.155,4.96,4.96,0,0,0,1.268,3.5,1,1,0,0,1-.742,1.671.98.98,0,0,1-.25-.032,15.043,15.043,0,0,1-3.932-1.591,5.4,5.4,0,0,0-.155.749L15.118,60H27V51.9A4.052,4.052,0,0,1,24.1,48.78Z"/><path d="M24.155,43.5A.937.937,0,0,0,24,44c0,.538.558,1.114,1.457,1.5a1,1,0,0,1,.561,1.206,2.948,2.948,0,0,0,.019,1.558A2.659,2.659,0,0,0,27,49.782v-7.7A4,4,0,0,0,24.155,43.5Z"/><path d="M32,4C20.42,4,11,13.869,11,26c0,9.416.947,15.942,5.659,19.382a11.207,11.207,0,0,0,1.9,1.123,8.756,8.756,0,0,1-.331-3.133v-.028c.044-.957.185-1.927.333-2.954a19.445,19.445,0,0,0,.256-5.638c-.029-.211-.066-.417-.1-.623a35.607,35.607,0,0,1-.181-13.254,32.569,32.569,0,0,1,.823-3.658c.3-1.035.646-2.04,1.021-2.993a1,1,0,1,1,1.862.732c-.354.9-.678,1.845-.962,2.815a30.979,30.979,0,0,0-.7,3.079c1.122,1.467,5.264,2.141,10.134.834,4.765-1.275,7.608-3.639,8.233-5.3a1,1,0,0,1,1.925.207,9.436,9.436,0,0,0,.2.936c.789,2.933,2.44,4.508,3.227,4.3a.666.666,0,0,0,.275-.17,21.752,21.752,0,0,0-1.383-5.093,14.9,14.9,0,0,0-.116-.221A.953.953,0,0,1,43,16a1.042,1.042,0,0,1,.076-.376.239.239,0,0,0,.012-.022,1.06,1.06,0,0,1,.2-.31v0l0,0a.96.96,0,0,1,.5-.3.985.985,0,0,1,1.122.542,23.79,23.79,0,0,1,1.7,6.26A34.946,34.946,0,0,1,47,27a13.033,13.033,0,0,1-1.011,5.66,17.3,17.3,0,0,0,.029,1.892,37.288,37.288,0,0,0,.591,4.062,21,21,0,0,1,.537,5.618,8.193,8.193,0,0,1-.287,1.6q.291-.173.569-.362C52.59,41.953,53,34.88,53,26,53,13.869,43.58,4,32,4Z"/><path d="M47.463,47.784a14.978,14.978,0,0,1-2.522,1.093,1,1,0,0,1-1.085-1.616,5.181,5.181,0,0,0,1.21-2.617A4.953,4.953,0,0,0,42.63,44H42a3.557,3.557,0,0,1-1.943,2.97,5.272,5.272,0,0,1-.16,1.8A4.053,4.053,0,0,1,37,51.9V60H48.882L47.6,48.451A5.014,5.014,0,0,0,47.463,47.784Z"/><path d="M38.543,45.5c.9-.388,1.457-.964,1.457-1.5a.909.909,0,0,0-.143-.478A4,4,0,0,0,37,42.077v7.7a2.639,2.639,0,0,0,.964-1.519,2.935,2.935,0,0,0,.018-1.552A1,1,0,0,1,38.543,45.5Z"/><path d="M41.217,42H42.63a6.965,6.965,0,0,1,2.518.485,32.121,32.121,0,0,0-.506-3.51c-.149-.811-.3-1.642-.419-2.493a20.667,20.667,0,0,1-7.223,3v.574A6.4,6.4,0,0,1,41.217,42Z"/></g></svg>
