<svg id="Capa_1" enable-background="new 0 0 512 512" height="512" viewBox="0 0 512 512" width="512" xmlns="http://www.w3.org/2000/svg"><g><path d="m91 301h330v-210h-330zm75-30c-8.284 0-15-6.716-15-15s6.716-15 15-15 15 6.716 15 15-6.716 15-15 15zm90-150h120c8.291 0 15 6.709 15 15s-6.709 15-15 15h-120c-8.291 0-15-6.709-15-15s6.709-15 15-15zm0 60h120c8.291 0 15 6.709 15 15s-6.709 15-15 15h-120c-8.291 0-15-6.709-15-15s6.709-15 15-15zm0 60h120c8.291 0 15 6.709 15 15s-6.709 15-15 15h-120c-8.291 0-15-6.709-15-15s6.709-15 15-15zm-90-120c24.814 0 45 20.186 45 45 0 18.94-11.982 35.977-29.81 42.378 0 8.276-6.812 16.304-15.088 16.304-8.291 0-15.103-5.391-15.103-13.682 0-15.132 8.071-26.572 20.068-30.864 5.934-2.139 9.933-7.808 9.933-14.136 0-8.276-6.724-15-15-15s-15 6.724-15 15c0 8.291-6.709 15-15 15s-15-6.709-15-15c0-24.814 20.186-45 45-45z"/><path d="m497 0h-482c-8.291 0-15 6.709-15 15v392c0 8.291 6.709 15 15 15h482c8.291 0 15-6.709 15-15v-392c0-8.291-6.709-15-15-15zm-46 316c0 8.291-6.709 15-15 15h-360c-8.291 0-15-6.709-15-15v-240c0-8.291 6.709-15 15-15h360c8.291 0 15 6.709 15 15z"/><path d="m211 452v30h-75c-8.291 0-15 6.709-15 15s6.709 15 15 15h240c8.291 0 15-6.709 15-15s-6.709-15-15-15h-75v-30z"/></g></svg>