<svg id="Capa_1" enable-background="new 0 0 512 512" height="512" viewBox="0 0 512 512" width="512" xmlns="http://www.w3.org/2000/svg"><g><path d="m46 512h420c8.291 0 15-6.709 15-15s-6.709-15-15-15h-75v-30h-270v30h-75c-8.291 0-15 6.709-15 15s6.709 15 15 15z"/><path d="m153.944 65.435c29.37-23.189 65.713-35.574 102.056-35.574s72.686 12.385 102.056 35.574c6.453 5.107 15.908 4.045 21.064-2.49 5.127-6.504 4.014-15.923-2.49-21.064-34.702-27.394-77.666-41.881-120.63-41.881s-85.928 14.487-120.63 41.88c-6.504 5.142-7.617 14.561-2.49 21.064 5.156 6.504 14.59 7.632 21.064 2.491z"/><path d="m256 120.044c-10.583 0-21.167 2.197-30.894 6.592-7.544 3.428-10.884 12.319-7.471 19.863 3.442 7.529 12.319 10.884 19.863 7.471 5.801-2.637 12.151-3.955 18.501-3.955s12.7 1.318 18.501 3.955c7.445 3.369 16.39.161 19.863-7.471 3.413-7.544.073-16.436-7.471-19.863-9.725-4.395-20.309-6.592-30.892-6.592z"/><path d="m336.786 105.103c4.731-6.782 3.076-16.143-3.721-20.889-22.691-15.835-49.877-23.753-77.065-23.753s-54.376 7.917-77.065 23.752c-6.797 4.746-8.452 14.106-3.721 20.889 4.775 6.812 14.106 8.467 20.889 3.721 17.636-12.319 38.767-18.479 59.897-18.479s42.261 6.16 59.897 18.479c6.788 4.73 16.117 3.078 20.889-3.72z"/><path d="m78.745 422h354.51c9.022 0 16.423-7.978 14.96-16.879-14.414-87.616-87.314-156.812-177.215-163.761v-31.36h15c8.291 0 15-6.709 15-15s-6.709-15-15-15h-60c-8.291 0-15 6.709-15 15s6.709 15 15 15h15v31.36c-89.901 6.949-162.801 76.145-177.215 163.761-1.463 8.901 5.938 16.879 14.96 16.879z"/></g></svg>