<svg id="Capa_1" enable-background="new 0 0 512 512" height="512" viewBox="0 0 512 512" width="512" xmlns="http://www.w3.org/2000/svg"><g><path d="m166 151h30v30h-30z"/><path d="m91 512h330c8.291 0 15-6.709 15-15v-482c0-8.291-6.709-15-15-15h-330c-8.291 0-15 6.709-15 15v482c0 8.291 6.709 15 15 15zm270-91h-60c-8.291 0-15-6.709-15-15s6.709-15 15-15h60c8.291 0 15 6.709 15 15s-6.709 15-15 15zm-90-300h90c8.291 0 15 6.709 15 15s-6.709 15-15 15h-90c-8.291 0-15-6.709-15-15s6.709-15 15-15zm0 60h90c8.291 0 15 6.709 15 15s-6.709 15-15 15h-90c-8.291 0-15-6.709-15-15s6.709-15 15-15zm-135-45c0-8.291 6.709-15 15-15h60c8.291 0 15 6.709 15 15v60c0 8.291-6.709 15-15 15h-60c-8.291 0-15-6.709-15-15zm15 105h210c8.291 0 15 6.709 15 15s-6.709 15-15 15h-210c-8.291 0-15-6.709-15-15s6.709-15 15-15zm0 60h210c8.291 0 15 6.709 15 15s-6.709 15-15 15h-210c-8.291 0-15-6.709-15-15s6.709-15 15-15z"/></g></svg>