<svg id="Capa_1" enable-background="new 0 0 512 512" height="512" viewBox="0 0 512 512" width="512" xmlns="http://www.w3.org/2000/svg"><g><path d="m241 271h30v90h-30z"/><circle cx="256" cy="166" r="15"/><path d="m256 512c140.61 0 256-115.39 256-256s-115.39-256-256-256-256 115.39-256 256 115.39 256 256 256zm0-451c107.52 0 195 87.48 195 195s-87.48 195-195 195-195-87.48-195-195 87.48-195 195-195z"/><path d="m256 421c90.981 0 165-74.019 165-165s-74.019-165-165-165-165 74.019-165 165 74.019 165 165 165zm0-300c24.814 0 45 20.186 45 45s-20.186 45-45 45-45-20.186-45-45 20.186-45 45-45zm-60 120c4.484 0 94.34 0 90 0 8.291 0 15 6.709 15 15v120c0 8.291-6.709 15-15 15h-60c-8.291 0-15-6.709-15-15v-105h-15c-8.291 0-15-6.709-15-15s6.709-15 15-15z"/></g></svg>