<svg id="Capa_1" enable-background="new 0 0 512 512" height="512" viewBox="0 0 512 512" width="512" xmlns="http://www.w3.org/2000/svg"><g><path d="m61 497c0 8.291 6.709 15 15 15h360c8.291 0 15-6.709 15-15s-6.709-15-15-15h-87.715c27.589-37.476 42.715-83.454 42.715-130.858v-126.142c0-8.291-6.709-15-15-15h-240c-8.291 0-15 6.709-15 15v126.142c0 47.404 15.126 93.382 42.715 130.858h-87.715c-8.291 0-15 6.709-15 15z"/><path d="m91 105c0 24.814 20.186 45 45 45h90c8.276 0 15 6.724 15 15 0 8.291 6.709 15 15 15s15-6.709 15-15c0-24.814-20.186-45-45-45h-90c-8.276 0-15-6.724-15-15s6.724-15 15-15h240c24.814 0 45-20.186 45-45s-20.186-45-45-45h-30c-8.291 0-15 6.709-15 15s6.709 15 15 15h30c8.276 0 15 6.724 15 15s-6.724 15-15 15h-240c-24.814 0-45 20.186-45 45z"/></g></svg>