<svg id="Capa_1" enable-background="new 0 0 512 512" height="512" viewBox="0 0 512 512" width="512" xmlns="http://www.w3.org/2000/svg"><g><path d="m226 0c-74.443 0-135 60.557-135 135v181c0 8.291 6.709 15 15 15h240c8.291 0 15-6.709 15-15v-45h45c8.291 0 15-6.709 15-15 0-4.83 0-184.08 0-181 0-8.291-6.709-15-15-15s-15 6.709-15 15v105h-30v-45c0-74.443-60.557-135-135-135zm60 271h-120c-8.291 0-15-6.709-15-15s6.709-15 15-15h120c8.291 0 15 6.709 15 15s-6.709 15-15 15zm0-121h-120c-8.291 0-15-6.709-15-15 0-41.353 33.647-75 75-75s75 33.647 75 75c0 8.291-6.709 15-15 15z"/><path d="m106 512h240c8.291 0 15-6.709 15-15s-6.709-15-15-15h-75v-121h-90v121h-75c-8.291 0-15 6.709-15 15s6.709 15 15 15z"/><path d="m226 90c-19.556 0-36.24 12.539-42.437 30h84.873c-6.196-17.461-22.88-30-42.436-30z"/></g></svg>