<svg id="Capa_1" enable-background="new 0 0 512 512" height="512" viewBox="0 0 512 512" width="512" xmlns="http://www.w3.org/2000/svg"><g><path d="m181 151c0 41.353 33.647 75 75 75s75-33.647 75-75-33.647-76-75-76-75 34.647-75 76z"/><path d="m106 151c0 75.152 43.953 101.164 96.973 154.184 24.521 24.521 38.027 67.129 38.027 101.816 0 8.291 6.709 15 15 15s15-6.709 15-15c0-34.688 13.506-77.295 38.027-101.816 51.114-51.114 96.973-76.703 96.973-154.184 0-82.842-67.158-151-150-151s-150 68.158-150 151zm255 0c0 57.891-47.109 105-105 105s-105-47.109-105-105 47.109-106 105-106 105 48.109 105 106z"/><path d="m76 512h360c8.291 0 15-6.709 15-15v-45h-75c-8.291 0-15-6.709-15-15s6.709-15 15-15h75v-45c0-8.291-6.709-15-15-15h-126.583c-5.288 14.191-8.417 29.973-8.417 45 0 5.284-1.082 10.285-2.763 15h17.763c8.291 0 15 6.709 15 15s-6.709 15-15 15h-120c-8.291 0-15-6.709-15-15s6.709-15 15-15h17.763c-1.681-4.715-2.763-9.716-2.763-15 0-15.027-3.129-30.809-8.417-45h-126.583c-8.291 0-15 6.709-15 15v45h75c8.291 0 15 6.709 15 15s-6.709 15-15 15h-75v45c0 8.291 6.709 15 15 15z"/></g></svg>