<svg id="Capa_1" enable-background="new 0 0 512 512" height="512" viewBox="0 0 512 512" width="512" xmlns="http://www.w3.org/2000/svg"><g><path d="m497 181h-97.224c-24.554 33.032-76.626 90-143.776 90-67.154 0-119.229-56.975-143.78-90h-97.22c-8.291 0-15 6.709-15 15v270c0 8.291 6.709 15 15 15h482c8.291 0 15-6.709 15-15v-270c0-8.291-6.709-15-15-15zm-65.38 213.354c6.431 5.229 7.397 14.678 2.183 21.108-5.242 6.431-14.678 7.396-21.108 2.183l-82.853-67.313-64.158 52.123c-5.636 4.808-14.251 4.146-19.102.22-.015-.015-.029-.029-.044-.029l-64.382-52.31-82.85 67.31c-6.407 5.193-15.846 4.272-21.108-2.183-5.215-6.431-4.248-15.879 2.183-21.108l77.979-63.353-77.98-63.356c-3.647-2.974-5.537-7.31-5.537-11.675 0-3.311 1.099-6.65 3.354-9.434 5.259-6.416 14.692-7.383 21.108-2.183l156.695 127.325 156.694-127.324c6.445-5.215 15.879-4.233 21.108 2.183 5.215 6.431 4.248 15.879-2.183 21.108l-77.981 63.353z"/><path d="m256 31c-73.931 0-130.503 93.34-132.876 97.31-2.827 4.731-2.827 10.649 0 15.381 2.373 3.969 58.945 97.309 132.876 97.309s130.503-93.34 132.876-97.31c2.827-4.731 2.827-10.649 0-15.381-2.373-3.969-58.945-97.309-132.876-97.309zm0 150c-24.814 0-45-20.186-45-45s20.186-45 45-45 45 20.186 45 45-20.186 45-45 45z"/><circle cx="256" cy="136" r="15"/></g></svg>