<svg id="Capa_1" enable-background="new 0 0 512.248 512.248" height="512" viewBox="0 0 512.248 512.248" width="512" xmlns="http://www.w3.org/2000/svg"><g><circle cx="181" cy="91.119" r="15"/><path d="m15 362.119h332c8.291 0 15-6.709 15-15v-332c0-8.291-6.709-15-15-15h-332c-8.291 0-15 6.709-15 15v332c0 8.291 6.709 15 15 15zm166-316c24.814 0 45 20.186 45 45s-20.186 45-45 45-45-20.186-45-45 20.186-45 45-45zm-90 150h180c8.291 0 15 6.709 15 15s-6.709 15-15 15h-180c-8.291 0-15-6.709-15-15s6.709-15 15-15zm0 60h180c8.291 0 15 6.709 15 15s-6.709 15-15 15h-180c-8.291 0-15-6.709-15-15s6.709-15 15-15z"/><path d="m421.517 500.869 90.25-349.545c2.071-8.011-2.73-16.188-10.767-18.267l-109-28.132v242.194c0 24.814-20.186 45-45 45h-301.178l-2.884 11.147c-2.073 7.983 2.714 16.185 10.767 18.267l349.545 90.103c7.782 2.08 16.161-2.593 18.267-10.767z"/></g></svg>