<svg id="Capa_1" enable-background="new 0 0 512 512" height="512" viewBox="0 0 512 512" width="512" xmlns="http://www.w3.org/2000/svg"><g><path d="m91 466c0 24.814 20.186 46 45 46h180c24.814 0 45-21.186 45-46v-165h-86.367l-16.816 16.816c-13.511 13.533-33.124 16.41-49.131 9.727-16.773-6.929-27.686-23.247-27.686-41.543v-120c0-24.814 20.186-45 45-45h135v-76c0-24.814-20.186-45-45-45h-180c-24.814 0-45 20.186-45 45zm105-405h60c8.291 0 15 6.709 15 15s-6.709 15-15 15h-60c-8.291 0-15-6.709-15-15s6.709-15 15-15zm30 300c24.814 0 45 20.186 45 45s-20.186 45-45 45-45-20.186-45-45 20.186-45 45-45z"/><circle cx="226" cy="406" r="15"/><path d="m406 151h-180c-8.291 0-15 6.709-15 15v120c0 6.064 3.647 11.543 9.258 13.857 5.533 2.309 12.023 1.071 16.348-3.252l25.605-25.605h143.789c8.291 0 15-6.709 15-15v-90c0-8.291-6.709-15-15-15z"/></g></svg>