<svg id="Capa_1" enable-background="new 0 0 512 512" height="512" viewBox="0 0 512 512" width="512" xmlns="http://www.w3.org/2000/svg"><g><path d="m196 91c0-33.137-26.863-60-60-60s-60 26.863-60 60c0 22.152 12.142 41.285 30 51.678v226.644c-17.858 10.393-30 29.524-30 51.678 0 33.137 26.863 60 60 60s60-26.863 60-60c0-22.154-12.142-41.285-30-51.678v-226.644c17.858-10.393 30-29.526 30-51.678z"/><path d="m46 421c0-25.576 11.177-49.849 30-66.753v-196.494c-18.823-16.904-30-41.177-30-66.753-24.814 0-46 20.186-46 45v240c0 24.814 21.186 45 46 45z"/><path d="m286 181h150v30h-150z"/><path d="m466 91h-240c0 25.576-11.177 49.849-30 66.753v196.494c18.823 16.904 30 41.177 30 66.753h240c24.814 0 46-20.186 46-45v-240c0-24.814-21.186-45-46-45zm-195 270c-8.284 0-15-6.716-15-15 0-8.286 6.716-15 15-15s15 6.714 15 15c0 8.284-6.716 15-15 15zm0-60c-8.284 0-15-6.716-15-15 0-8.286 6.716-15 15-15s15 6.714 15 15c0 8.284-6.716 15-15 15zm60 60c-8.284 0-15-6.716-15-15 0-8.286 6.716-15 15-15s15 6.714 15 15c0 8.284-6.716 15-15 15zm0-60c-8.284 0-15-6.716-15-15 0-8.286 6.716-15 15-15s15 6.714 15 15c0 8.284-6.716 15-15 15zm60 60c-8.284 0-15-6.716-15-15 0-8.286 6.716-15 15-15s15 6.714 15 15c0 8.284-6.716 15-15 15zm0-60c-8.284 0-15-6.716-15-15 0-8.286 6.716-15 15-15s15 6.714 15 15c0 8.284-6.716 15-15 15zm60 60c-8.284 0-15-6.716-15-15 0-8.286 6.716-15 15-15s15 6.714 15 15c0 8.284-6.716 15-15 15zm0-60c-8.284 0-15-6.716-15-15 0-8.286 6.716-15 15-15s15 6.714 15 15c0 8.284-6.716 15-15 15zm15-75c0 8.291-6.709 15-15 15h-180c-8.291 0-15-6.709-15-15v-60c0-8.291 6.709-15 15-15h180c8.291 0 15 6.709 15 15z"/></g></svg>