<svg id="Capa_1" enable-background="new 0 0 512 512" height="512" viewBox="0 0 512 512" width="512" xmlns="http://www.w3.org/2000/svg"><g><path d="m256 0h-75c-58.462 0-90 116.928-90 226s31.538 226 90 226c0 33.091 26.909 60 60 60h165c8.291 0 15-6.709 15-15s-6.709-15-15-15h-165c-16.538 0-30-13.462-30-30h45c8.291 0 15-6.709 15-15v-91c0-8.291-6.709-15-15-15h-62.988c-6.021-22.793-12.012-57.422-12.012-105s5.991-82.207 12.012-105h62.988c8.291 0 15-6.709 15-15v-91c0-8.291-6.709-15-15-15z"/><path d="m291.742 152.143c-5.596-2.358-12.056-1.04-16.348 3.252l-60 60c-5.859 5.859-5.859 15.352 0 21.211l60 60c4.33 4.33 10.82 5.559 16.348 3.252 5.61-2.314 9.258-7.793 9.258-13.857v-15h105c8.291 0 15-6.709 15-15v-60c0-8.291-6.709-15-15-15h-105v-15c0-6.065-3.647-11.544-9.258-13.858z"/></g></svg>