<svg id="Capa_1" enable-background="new 0 0 512 512" height="512" viewBox="0 0 512 512" width="512" xmlns="http://www.w3.org/2000/svg"><g><path d="m497 181h-226v60h15c8.401 0 15 6.599 15 15 0 8.399-6.599 15-15 15h-60c-8.401 0-15-6.601-15-15 0-8.401 6.599-15 15-15h15v-60h-226c-8.401 0-15 6.599-15 15v270c0 8.399 6.599 15 15 15h482c8.401 0 15-6.601 15-15v-270c0-8.401-6.599-15-15-15zm-65.501 213.3c6.601 5.4 7.5 14.7 2.401 21.301-5.4 6.299-14.7 7.2-21.301 2.1l-82.798-67.5-64.2 52.2c-5.7 5.099-14.399 4.199-18.9.3 0 0 0 0-.3 0l-64.2-52.5-82.798 67.5c-6.603 5.099-15.903 4.198-21.303-2.101-5.099-6.601-4.2-15.901 2.401-21.301l77.999-63.299-77.999-63.3c-3.9-3.001-5.7-7.5-5.7-11.7 0-3.3 1.199-6.601 3.3-9.6 5.4-6.301 14.7-7.2 21.301-2.1l156.598 127.5 156.599-127.5c6.601-5.099 15.901-4.2 21.301 2.1 5.099 6.599 4.2 15.899-2.401 21.301l-77.999 63.299z"/><path d="m271 151h105c5.537 0 10.62-3.047 13.228-7.925s2.314-10.796-.747-15.396l-24.449-36.679 24.448-36.68c3.062-4.6 3.354-10.518.747-15.396s-7.69-7.924-13.227-7.924h-120c-8.291 0-15 6.709-15 15 0 5.753 0 142.447 0 135h30z"/></g></svg>