<svg id="Capa_1" enable-background="new 0 0 512 512" height="512" viewBox="0 0 512 512" width="512" xmlns="http://www.w3.org/2000/svg"><g><path d="m331 376h60v60h-60z"/><path d="m121 376h120v60h-120z"/><path d="m0 466c0 24.814 20.186 46 45 46h422c24.814 0 45-21.186 45-46v-316h-512zm421-15c0 8.291-6.709 15-15 15h-90c-8.291 0-15-6.709-15-15v-90c0-8.291 6.709-15 15-15h90c8.291 0 15 6.709 15 15zm-330-240c0-8.291 6.709-15 15-15h300c8.291 0 15 6.709 15 15v90c0 8.291-6.709 15-15 15h-300c-8.291 0-15-6.709-15-15zm0 150c0-8.291 6.709-15 15-15h150c8.291 0 15 6.709 15 15v90c0 8.291-6.709 15-15 15h-150c-8.291 0-15-6.709-15-15z"/><path d="m121 226h270v60h-270z"/><path d="m467 0h-422c-24.814 0-45 20.186-45 45v75h512v-75c0-24.814-20.186-45-45-45zm-361 75c-8.284 0-15-6.716-15-15 0-8.286 6.716-15 15-15s15 6.714 15 15c0 8.284-6.716 15-15 15zm60 0c-8.284 0-15-6.716-15-15 0-8.286 6.716-15 15-15s15 6.714 15 15c0 8.284-6.716 15-15 15zm60 0c-8.284 0-15-6.716-15-15 0-8.286 6.716-15 15-15s15 6.714 15 15c0 8.284-6.716 15-15 15z"/></g></svg>