<svg id="Capa_1" enable-background="new 0 0 512 512" height="512" viewBox="0 0 512 512" width="512" xmlns="http://www.w3.org/2000/svg"><g><path d="m271 30c-8.291 0-15 6.709-15 15s6.709 15 15 15c90.981 0 165 75.019 165 166s-74.019 166-165 166c-8.291 0-15 6.709-15 15s6.709 15 15 15c107.52 0 195-88.48 195-196s-87.48-196-195-196z"/><path d="m233.148 228.212c-15.673 9.639-37.148 22.822-37.148 57.788 0 8.291 6.709 15 15 15h60c8.291 0 15-6.709 15-15s-6.709-15-15-15h-42.026c3.486-6.841 10.063-11.191 19.878-17.212 15.673-9.639 37.148-22.822 37.148-57.788 0-24.814-20.186-45-45-45s-45 20.186-45 45c0 8.291 6.709 15 15 15s15-6.709 15-15c0-8.276 6.724-15 15-15s15 6.724 15 15c0 17.417-7.412 22.749-22.852 32.212z"/><path d="m335.746 151.776c-7.939-2.622-16.362 1.626-18.97 9.478l-30 90c-1.538 4.57-.762 9.609 2.051 13.521 2.827 3.911 7.354 6.225 12.173 6.225h45v15c0 8.291 6.709 15 15 15s15-6.709 15-15v-60c0-8.291-6.709-15-15-15s-15 6.709-15 15v15h-24.185l23.408-70.254c2.623-7.866-1.625-16.362-9.477-18.97z"/><path d="m46 226c0 109.072 31.538 226 90 226 0 33.091 26.909 60 60 60h165c8.291 0 15-6.709 15-15s-6.709-15-15-15h-165c-16.538 0-30-13.462-30-30h45c8.291 0 15-6.709 15-15v-91c0-8.291-6.709-15-15-15h-62.988c-6.021-22.793-12.012-57.422-12.012-105s5.991-82.207 12.012-105h62.988c8.291 0 15-6.709 15-15v-91c0-8.291-6.709-15-15-15h-75c-58.462 0-90 116.928-90 226z"/></g></svg>