<svg id="Capa_1" enable-background="new 0 0 511.998 511.998" height="512" viewBox="0 0 511.998 511.998" width="512" xmlns="http://www.w3.org/2000/svg"><g><path d="m405.999 241c8.291 0 15-6.709 15-15 0-90.981-74.019-166-165-166s-165 75.019-165 166c0 8.291 6.709 15 15 15s15-6.709 15-15c0-74.443 60.557-136 135-136s135 61.557 135 136c0 8.291 6.709 15 15 15z"/><path d="m255.999 120c-57.891 0-105 48.109-105 106 0 8.291 6.709 15 15 15s15-6.709 15-15c0-41.353 33.647-76 75-76s75 34.647 75 76c0 8.291 6.709 15 15 15s15-6.709 15-15c0-57.891-47.109-106-105-106z"/><path d="m465.999 241c8.291 0 15-6.709 15-15 0-124.072-100.928-226-225-226s-225 101.928-225 226c0 8.291 6.709 15 15 15s15-6.709 15-15c0-107.52 87.48-196 195-196s195 88.48 195 196c0 8.291 6.709 15 15 15z"/><path d="m160.726 511.048c7.764 2.842 16.392-1.011 19.321-8.774l7.602-21.274h136.699l7.603 21.273c2.878 7.679 11.455 11.682 19.321 8.774 7.749-2.915 11.675-11.558 8.774-19.321l-84.203-225.542c14.839-7.365 25.155-22.526 25.155-40.184 0-24.814-20.186-46-45-46s-45 21.186-45 46c0 17.659 10.316 32.82 25.155 40.184l-84.203 225.542c-2.899 7.764 1.027 16.407 8.776 19.322zm38.172-60.048 11.248-30h91.707l11.248 30zm33.746-90h46.71l11.248 30h-69.207zm11.25-30 12.105-32.285 12.105 32.285z"/></g></svg>