<svg id="Capa_1" enable-background="new 0 0 512 512" height="512" viewBox="0 0 512 512" width="512" xmlns="http://www.w3.org/2000/svg"><g><path d="m497 180h-316v147.089c0 22.147-6.147 44.332-16.915 63.911h121.915c8.291 0 15 6.709 15 15s-6.709 15-15 15h-165c-14.971 0-28.931-7.427-37.324-19.849-14.634-21.797-22.676-48.076-22.676-74.062v-147.089h-46c-8.291 0-15 6.709-15 15v302c0 8.291 6.709 15 15 15h482c8.291 0 15-6.709 15-15v-302c0-8.291-6.709-15-15-15zm-241 181h-30c-8.291 0-15-6.709-15-15s6.709-15 15-15h30c8.291 0 15 6.709 15 15s-6.709 15-15 15zm-30-60c-8.291 0-15-6.709-15-15s6.709-15 15-15h90c8.291 0 15 6.709 15 15s-6.709 15-15 15zm180 120h-60c-8.291 0-15-6.709-15-15s6.709-15 15-15h60c8.291 0 15 6.709 15 15s-6.709 15-15 15zm0-60h-90c-8.291 0-15-6.709-15-15s6.709-15 15-15h90c8.291 0 15 6.709 15 15s-6.709 15-15 15zm0-60h-30c-8.291 0-15-6.709-15-15s6.709-15 15-15h30c8.291 0 15 6.709 15 15s-6.709 15-15 15z"/><path d="m151 30c0-16.538-13.462-30-30-30s-30 13.462-30 30v30h60z"/><path d="m91 327.089c0 20.112 6.24 40.444 17.549 57.275 2.798 4.146 7.456 6.636 12.451 6.636s9.653-2.49 12.451-6.636c11.309-16.831 17.549-37.163 17.549-57.275v-26.089h-60z"/><path d="m91 90h60v181h-60z"/></g></svg>