<svg id="Capa_1" enable-background="new 0 0 512 512" height="512" viewBox="0 0 512 512" width="512" xmlns="http://www.w3.org/2000/svg"><g><path d="m211 166.01h90v90h-90z"/><path d="m493.367 16.464-102.367 25.341v450.908l109.633-27.158c6.68-1.67 11.367-7.661 11.367-14.546v-420c0-4.614-2.124-8.979-5.771-11.821-3.648-2.856-8.394-3.896-12.862-2.724z"/><path d="m151 496.01h210v-450h-210zm30-345c0-8.291 6.709-15 15-15h120c8.291 0 15 6.709 15 15v120c0 8.291-6.709 15-15 15h-120c-8.291 0-15-6.709-15-15zm15 165h120c8.291 0 15 6.709 15 15s-6.709 15-15 15h-120c-8.291 0-15-6.709-15-15s6.709-15 15-15zm0 60h120c8.291 0 15 6.709 15 15s-6.709 15-15 15h-120c-8.291 0-15-6.709-15-15s6.709-15 15-15z"/><path d="m11.367 465.555 109.633 27.159v-450.909l-102.367-25.341c-4.453-1.128-9.214-.117-12.861 2.725s-5.772 7.206-5.772 11.821v420c0 6.884 4.688 12.876 11.367 14.545z"/></g></svg>