<svg id="Capa_1" enable-background="new 0 0 512.007 512.007" height="512" viewBox="0 0 512.007 512.007" width="512" xmlns="http://www.w3.org/2000/svg"><g><circle cx="256.004" cy="136.005" r="15"/><path d="m316.004 301.005h45c8.284 0 15-6.716 15-15v-154.783l20.624 16.501c6.448 5.151 15.872 4.138 21.094-2.344 5.171-6.475 4.116-15.908-2.344-21.094l-150.014-121c-5.477-4.382-13.259-4.382-18.736 0l-150 121c-6.459 5.186-7.514 14.619-2.343 21.094 5.186 6.445 14.59 7.515 21.093 2.344l20.626-16.501v154.783c0 8.284 6.716 15 15 15h45c8.284 0 15-6.716 15-15v-60c0-8.286 6.716-15 15-15h60c8.284 0 15 6.714 15 15v60c0 8.284 6.716 15 15 15zm-60-120c-24.814 0-45-20.186-45-45s20.186-45 45-45 45 20.186 45 45-20.186 45-45 45z"/><path d="m31.004 226.005v180c0 24.814 20.186 45 45 45h323.789l55.605 56.605c4.33 4.33 10.82 5.559 16.348 3.252 5.61-2.314 9.258-7.793 9.258-13.857v-271c0-24.814-20.186-45-45-45h-30v105c0 24.814-20.186 45-45 45h-45c-24.814 0-45-20.186-45-45v-45h-30v45c0 24.814-20.186 45-45 45h-45c-24.814 0-45-20.186-45-45v-105h-30c-24.815 0-45 20.186-45 45zm285 135c8.284 0 15 6.714 15 15 0 8.284-6.716 15-15 15s-15-6.716-15-15c0-8.285 6.716-15 15-15zm-60 0c8.284 0 15 6.714 15 15 0 8.284-6.716 15-15 15s-15-6.716-15-15c0-8.285 6.716-15 15-15zm-60 0c8.284 0 15 6.714 15 15 0 8.284-6.716 15-15 15s-15-6.716-15-15c0-8.285 6.716-15 15-15z"/></g></svg>