<svg id="Capa_1" enable-background="new 0 0 512 512" height="512" viewBox="0 0 512 512" width="512" xmlns="http://www.w3.org/2000/svg"><g><path d="m392 0c-32.146 0-62.241 13.319-84.716 35.944-16.188-3.745-33.962-5.944-51.284-5.944s-35.096 2.199-51.284 5.944c-22.475-22.625-52.57-35.944-84.716-35.944-66.167 0-120 53.833-120 120 0 32.146 13.319 62.241 35.944 84.716-3.745 16.188-5.944 33.962-5.944 51.284s2.199 35.096 5.944 51.284c-22.625 22.475-35.944 52.57-35.944 84.716 0 66.167 53.833 120 120 120 32.146 0 62.241-13.319 84.716-35.944 16.188 3.745 33.962 5.944 51.284 5.944s35.096-2.199 51.284-5.944c22.475 22.625 52.57 35.944 84.716 35.944 66.167 0 120-53.833 120-120 0-32.146-13.319-62.241-35.944-84.716 3.745-16.188 5.944-33.962 5.944-51.284s-2.199-35.094-5.944-51.284c22.625-22.473 35.944-52.57 35.944-84.716 0-66.167-53.833-120-120-120zm34.125 107.082-85.331 85.322c13.137 17.532 21.206 40.056 21.206 63.596 0 23.536-8.068 46.059-21.2 63.589l85.327 85.327c16.536-18.882 29.886-40.576 39.456-64.182 10.411 14.942 16.417 32.661 16.417 51.266 0 49.629-40.371 90-90 90-18.605 0-36.324-6.006-51.264-16.417 23.606-9.569 45.298-22.921 64.18-39.456l-85.327-85.327c-17.53 13.132-40.053 21.2-63.589 21.2s-46.059-8.068-63.589-21.2l-85.327 85.327c18.882 16.534 40.574 29.886 64.18 39.456-14.94 10.411-32.659 16.417-51.264 16.417-49.629 0-90-40.371-90-90 0-18.605 6.006-36.324 16.417-51.264 9.569 23.606 22.921 45.298 39.456 64.18l85.327-85.327c-13.132-17.53-21.2-40.053-21.2-63.589s8.068-46.059 21.2-63.589l-85.327-85.327c-16.534 18.882-29.886 40.574-39.456 64.18-10.411-14.94-16.417-32.659-16.417-51.264 0-49.629 40.371-90 90-90 18.605 0 36.324 6.006 51.266 16.417-23.606 9.569-45.3 22.919-64.182 39.456l85.327 85.327c17.53-13.132 40.053-21.2 63.589-21.2 23.533 0 46.051 8.066 63.582 21.194l85.333-85.323c-18.882-16.534-40.573-29.886-64.178-39.456 14.939-10.411 32.658-16.415 51.263-16.415 49.629 0 90 40.371 90 90 0 18.605-6.008 36.324-16.417 51.266-9.569-23.608-22.921-45.3-39.458-64.184z"/></g></svg>