<svg id="Capa_1" enable-background="new 0 0 512 512" height="512" viewBox="0 0 512 512" width="512" xmlns="http://www.w3.org/2000/svg"><g><path d="m466 0h-421c-24.814 0-45 20.186-45 45v76h512v-76c0-24.814-21.186-45-46-45zm-360 75c-8.284 0-15-6.716-15-15 0-8.286 6.716-15 15-15s15 6.714 15 15c0 8.284-6.716 15-15 15zm60 0c-8.284 0-15-6.716-15-15 0-8.286 6.716-15 15-15s15 6.714 15 15c0 8.284-6.716 15-15 15zm60 0c-8.284 0-15-6.716-15-15 0-8.286 6.716-15 15-15s15 6.714 15 15c0 8.284-6.716 15-15 15z"/><path d="m0 467c0 24.814 20.186 45 45 45h421c24.814 0 46-20.186 46-45v-316h-512zm61-256c0-8.291 6.709-15 15-15h360c8.291 0 15 6.709 15 15v241c0 8.291-6.709 15-15 15h-360c-8.291 0-15-6.709-15-15z"/><path d="m421 226h-330v211h330zm-150 165c0 8.291-6.709 15-15 15s-15-6.709-15-15v-60c0-8.291 6.709-15 15-15s15 6.709 15 15zm-15-105c-8.284 0-15-6.716-15-15 0-8.286 6.716-15 15-15s15 6.714 15 15c0 8.284-6.716 15-15 15z"/></g></svg>