<svg id="Capa_1" enable-background="new 0 0 512 512" height="512" viewBox="0 0 512 512" width="512" xmlns="http://www.w3.org/2000/svg"><g><path d="m497 166h-107.516c-7.573 67.315-64.177 120-133.484 120s-125.911-52.685-133.484-120h-107.516c-8.291 0-15 6.709-15 15v270c0 8.291 6.709 15 15 15h482c8.291 0 15-6.709 15-15v-270c0-8.291-6.709-15-15-15zm-65.38 213.354c6.431 5.229 7.397 14.678 2.183 21.108-5.242 6.431-14.678 7.394-21.108 2.183l-82.853-67.313-64.158 52.123c-5.259 4.486-13.336 4.887-19.102.22-.015-.015-.029-.029-.044-.029l-64.382-52.31-82.85 67.31c-6.407 5.193-15.846 4.272-21.108-2.183-5.215-6.431-4.248-15.879 2.183-21.108l77.979-63.353-77.98-63.356c-3.647-2.974-5.537-7.31-5.537-11.675 0-3.311 1.099-6.65 3.354-9.434 5.259-6.416 14.692-7.383 21.108-2.183l156.695 127.325 156.694-127.324c6.445-5.244 15.879-4.219 21.108 2.183 5.215 6.431 4.248 15.879-2.183 21.108l-77.981 63.353z"/><path d="m151 151c0 57.891 47.109 105 105 105s105-47.109 105-105-47.109-105-105-105-105 47.109-105 105zm90-37c0-8.291 6.709-15 15-15s15 6.709 15 15v30c0 8.291-6.709 15-15 15s-15-6.709-15-15zm15 60c8.284 0 15 6.714 15 15 0 8.284-6.716 15-15 15s-15-6.716-15-15c0-8.286 6.716-15 15-15z"/></g></svg>