<svg id="Capa_1" enable-background="new 0 0 512 512" height="512" viewBox="0 0 512 512" width="512" xmlns="http://www.w3.org/2000/svg"><g><path d="m139.889 109.166c11.36-40.574 27.327-78.488 46.545-102.477-46.622 13.255-87.718 43.649-119.377 78.668 20.27 9.499 44.746 17.679 72.832 23.809z"/><path d="m271 0v120.474c24.787-.646 48.893-2.726 71.75-6.31-17.099-59.882-44.074-103.474-71.75-114.164z"/><path d="m241 150.683c-27.603-.648-54.075-3.04-78.97-7.009-6.046 29.011-9.844 61.675-10.697 97.326h89.667z"/><path d="m0 241h121.348c.868-36.687 4.805-71.325 11.415-102.799-32.164-7.09-60.97-16.873-84.992-28.901-26.633 37.688-44.907 82.849-47.771 131.7z"/><path d="m241 0c-27.729 10.71-54.752 54.439-71.845 114.518 22.234 3.411 46.247 5.552 71.845 6.167z"/><path d="m379.162 137.87c6.652 31.564 10.62 66.313 11.49 103.13h121.348c-2.877-49.094-21.319-94.453-48.184-132.253-24.18 12.031-52.656 22-84.654 29.123z"/><path d="m132.737 373.68c-6.595-31.443-10.523-66.041-11.389-102.68h-121.348c2.838 48.441 20.832 93.272 47.073 130.768 25.239-11.608 53.961-21.211 85.664-28.088z"/><path d="m271 241h89.667c-.857-35.766-4.677-68.527-10.757-97.608-25.076 4.07-51.583 6.392-78.909 7.064v90.544z"/><path d="m445.298 426.251c-21.81-9.329-46.465-17.13-73.308-22.991-11.354 40.384-27.274 78.146-46.425 102.05 46.797-13.303 88.028-43.842 119.733-79.059z"/><path d="m325.565 6.689c19.175 23.934 35.11 61.749 46.467 102.199 27.372-6 51.722-14.218 72.589-23.884-31.617-34.84-72.591-65.106-119.056-78.315z"/><path d="m241 271h-89.667c.853 35.603 4.638 68.229 10.671 97.211 25.018-3.961 51.55-6.178 78.995-6.826v-90.385z"/><path d="m66.702 426.251c31.705 35.217 72.936 65.755 119.733 79.06-19.151-23.904-35.07-61.667-46.425-102.05-26.843 5.861-51.498 13.661-73.308 22.99z"/><path d="m379.263 373.68c31.703 6.877 60.425 16.479 85.664 28.088 26.241-37.496 44.235-82.327 47.073-130.768h-121.348c-.866 36.639-4.794 71.237-11.389 102.68z"/><path d="m241 512v-120.626c-24.792.648-48.884 2.765-71.776 6.365 17.097 59.939 44.085 103.566 71.776 114.261z"/><path d="m271 361.385c27.446.648 53.978 2.866 78.995 6.826 6.033-28.982 9.818-61.608 10.671-97.211h-89.666z"/><path d="m271 512c27.691-10.695 54.679-54.322 71.776-114.262-22.892-3.6-46.983-5.717-71.776-6.365z"/></g></svg>