<svg id="Capa_1" enable-background="new 0 0 512 512" height="512" viewBox="0 0 512 512" width="512" xmlns="http://www.w3.org/2000/svg"><g><path d="m497 241h-60c-8.291 0-15 6.709-15 15s6.709 15 15 15h60c8.291 0 15-6.709 15-15s-6.709-15-15-15z"/><path d="m432.254 181.776c-7.852 2.607-12.1 11.104-9.478 18.97 2.604 7.811 11.058 12.114 18.97 9.478l45-15c7.852-2.607 12.1-11.104 9.478-18.97-2.607-7.852-11.03-12.114-18.97-9.478z"/><path d="m477.254 345.224c7.905 2.635 16.364-1.661 18.97-9.478 2.622-7.866-1.626-16.362-9.478-18.97l-45-15c-7.925-2.607-16.362 1.626-18.97 9.478-2.622 7.866 1.626 16.362 9.478 18.97z"/><path d="m377 421c8.291 0 15-6.709 15-15v-300c0-8.291-6.709-15-15-15s-15 6.709-15 15v23.199c-25.508 24.001-57.378 40.371-91 47.523v158.555c33.622 7.152 65.492 23.522 91 47.523v23.2c0 8.291 6.709 15 15 15z"/><path d="m45 331h15v45c0 8.291 6.709 15 15 15h91c8.291 0 15-6.709 15-15v-45h50.142c3.314 0 6.573.311 9.858.48v-150.96c-3.285.168-6.544.48-9.858.48h-186.142c-24.814 0-45 20.186-45 45v60c0 24.814 20.186 45 45 45zm106 30h-61v-30h61z"/></g></svg>