<svg id="Capa_1" enable-background="new 0 0 512 512" height="512" viewBox="0 0 512 512" width="512" xmlns="http://www.w3.org/2000/svg"><g><path d="m467 0h-422c-24.814 0-45 20.186-45 45v75h512v-75c0-24.814-20.186-45-45-45zm-361 75c-8.284 0-15-6.716-15-15 0-8.286 6.716-15 15-15s15 6.714 15 15c0 8.284-6.716 15-15 15zm60 0c-8.284 0-15-6.716-15-15 0-8.286 6.716-15 15-15s15 6.714 15 15c0 8.284-6.716 15-15 15zm60 0c-8.284 0-15-6.716-15-15 0-8.286 6.716-15 15-15s15 6.714 15 15c0 8.284-6.716 15-15 15z"/><path d="m166 331c-19.556 0-36.24 12.539-42.437 30h84.873c-6.196-17.461-22.88-30-42.436-30z"/><circle cx="166" cy="256" r="15"/><path d="m0 467c0 24.814 20.186 45 45 45h422c24.814 0 45-20.186 45-45v-317h-512zm286-256h120c8.291 0 15 6.709 15 15s-6.709 15-15 15h-120c-8.291 0-15-6.709-15-15s6.709-15 15-15zm135 75c0 8.284-6.716 15-15 15s-15-6.716-15-15c0-8.286 6.716-15 15-15s15 6.714 15 15zm-60 0c0 8.284-6.716 15-15 15s-15-6.716-15-15c0-8.286 6.716-15 15-15s15 6.714 15 15zm-75-15c8.284 0 15 6.714 15 15 0 8.284-6.716 15-15 15s-15-6.716-15-15c0-8.286 6.716-15 15-15zm0 90h120c8.291 0 15 6.709 15 15s-6.709 15-15 15h-120c-8.291 0-15-6.709-15-15s6.709-15 15-15zm-120-60c-24.814 0-45-20.186-45-45s20.186-45 45-45 45 20.186 45 45-20.186 45-45 45c41.353 0 75 33.647 75 75 0 8.291-6.709 15-15 15h-120c-8.291 0-15-6.709-15-15 0-41.353 33.647-75 75-75zm-60 120h300c8.291 0 15 6.709 15 15s-6.709 15-15 15h-300c-8.291 0-15-6.709-15-15s6.709-15 15-15z"/></g></svg>