<svg id="Capa_1" enable-background="new 0 0 512 512" height="512" viewBox="0 0 512 512" width="512" xmlns="http://www.w3.org/2000/svg"><g><path d="m181 120h150v272h-150z"/><path d="m436 120c8.291 0 15-6.709 15-15v-60c0-8.291-6.709-15-15-15-8.276 0-15-6.724-15-15 0-8.291-6.709-15-15-15h-60c-8.291 0-15 6.709-15 15 0 8.276-6.724 15-15 15s-15-6.724-15-15c0-8.291-6.709-15-15-15h-60c-8.291 0-15 6.709-15 15 0 8.276-6.724 15-15 15s-15-6.724-15-15c0-8.291-6.709-15-15-15h-60c-8.291 0-15 6.709-15 15 0 8.276-6.724 15-15 15-8.291 0-15 6.709-15 15v60c0 8.291 6.709 15 15 15 8.276 0 15 6.724 15 15s-6.724 15-15 15c-8.291 0-15 6.709-15 15v61c0 8.291 6.709 15 15 15 8.276 0 15 6.724 15 15s-6.724 15-15 15c-8.291 0-15 6.709-15 15v61c0 8.291 6.709 15 15 15 8.276 0 15 6.724 15 15s-6.724 15-15 15c-8.291 0-15 6.709-15 15v60c0 8.291 6.709 15 15 15 8.276 0 15 6.724 15 15 0 8.291 6.709 15 15 15h60c8.291 0 15-6.709 15-15 0-8.276 6.724-15 15-15s15 6.724 15 15c0 8.291 6.709 15 15 15h60c8.291 0 15-6.709 15-15 0-8.276 6.724-15 15-15s15 6.724 15 15c0 8.291 6.709 15 15 15h60c8.291 0 15-6.709 15-15 0-8.276 6.724-15 15-15 8.291 0 15-6.709 15-15v-60c0-8.291-6.709-15-15-15-8.276 0-15-6.724-15-15s6.724-15 15-15c8.291 0 15-6.709 15-15v-61c0-8.291-6.709-15-15-15-8.276 0-15-6.724-15-15s6.724-15 15-15c8.291 0 15-6.709 15-15v-61c0-8.291-6.709-15-15-15-8.276 0-15-6.724-15-15s6.724-15 15-15zm-75 287c0 8.291-6.709 15-15 15h-180c-8.291 0-15-6.709-15-15v-302c0-8.291 6.709-15 15-15h180c8.291 0 15 6.709 15 15z"/></g></svg>