<svg id="Capa_1" enable-background="new 0 0 512 512" height="512" viewBox="0 0 512 512" width="512" xmlns="http://www.w3.org/2000/svg"><g><path d="m151 285v122c0 57.891 47.109 105 105 105s105-47.109 105-105v-122c0-57.891-47.109-105-105-105s-105 47.109-105 105zm90-30c0-8.291 6.709-15 15-15s15 6.709 15 15v60c0 8.291-6.709 15-15 15s-15-6.709-15-15z"/><path d="m205.229 159.902c16.143-6.563 33.457-9.844 50.771-9.844s34.629 3.281 50.771 9.844c7.452 3.074 16.348-.385 19.541-8.232 3.135-7.661-.557-16.421-8.232-19.541-19.731-8.057-40.906-12.085-62.08-12.085s-42.349 4.028-62.08 12.085c-7.676 3.12-11.367 11.88-8.232 19.541 3.134 7.69 11.923 11.367 19.541 8.232z"/><path d="m390.312 33.677c-41.075-22.031-87.693-33.677-134.312-33.677s-93.237 11.646-134.312 33.677c-7.295 3.911-10.049 13.008-6.123 20.303 3.896 7.295 13.008 10.063 20.303 6.123 36.724-19.688 78.428-30.162 120.132-30.162s83.408 10.474 120.132 30.161c7.269 3.917 16.395 1.181 20.303-6.123 3.925-7.294 1.171-16.391-6.123-20.302z"/><path d="m354.569 82.749c-30.864-15.088-64.716-22.632-98.569-22.632s-67.705 7.544-98.569 22.632c-7.441 3.647-10.518 12.627-6.885 20.068 3.647 7.427 12.598 10.518 20.068 6.885 26.719-13.081 56.053-19.621 85.386-19.621s58.667 6.541 85.386 19.622c7.374 3.609 16.395.604 20.068-6.885 3.633-7.442.557-16.422-6.885-20.069z"/></g></svg>