<svg id="Capa_1" enable-background="new 0 0 512 512" height="512" viewBox="0 0 512 512" width="512" xmlns="http://www.w3.org/2000/svg"><g><path d="m224.022 271h1.978c8.291 0 15 6.709 15 15v45h30v-45c0-8.291 6.709-15 15-15h1.978l-31.978-47.959z"/><path d="m121 211h106.972l15.547-23.32c5.566-8.35 19.395-8.35 24.961 0l15.548 23.32h106.972v-90h-270z"/><path d="m497 0h-482c-8.291 0-15 6.709-15 15v392c0 8.291 6.709 15 15 15h482c8.291 0 15-6.709 15-15v-392c0-8.291-6.709-15-15-15zm-76 226c0 8.291-6.709 15-15 15h-101.973l24.454 36.68c3.062 4.6 3.354 10.518.747 15.396s-7.691 7.924-13.228 7.924h-15v45c0 8.291-6.709 15-15 15h-60c-8.291 0-15-6.709-15-15v-45h-15c-5.537 0-10.62-3.047-13.228-7.925s-2.314-10.796.747-15.396l24.454-36.679h-101.973c-8.291 0-15-6.709-15-15v-120c0-8.291 6.709-15 15-15h300c8.291 0 15 6.709 15 15z"/><path d="m211 452v30h-75c-8.291 0-15 6.709-15 15s6.709 15 15 15h240c8.291 0 15-6.709 15-15s-6.709-15-15-15h-75v-30z"/></g></svg>