<svg id="Capa_1" enable-background="new 0 0 512 512" height="512" viewBox="0 0 512 512" width="512" xmlns="http://www.w3.org/2000/svg"><g><path d="m497 391h-482c-8.284 0-15 6.714-15 15 0 24.853 20.147 45 45 45h422c24.853 0 45-20.147 45-45 0-8.286-6.716-15-15-15z"/><path d="m406 196c0 24.814-20.186 45-45 45h-47.183l-17.563 35.127c-7.705 15.352-23.115 24.873-40.254 24.873s-32.549-9.521-40.239-24.844l-17.578-35.156h-47.183c-24.814 0-45-20.186-45-45v-75h-30c-8.284 0-15 6.714-15 15v225h390v-225c0-8.286-6.716-15-15-15h-30z"/><path d="m136 76v120c0 8.291 6.709 15 15 15h65.728l25.854 51.709c2.549 5.083 7.734 8.291 13.418 8.291s10.869-3.208 13.418-8.291l25.854-51.709h65.728c8.291 0 15-6.709 15-15v-120c0-8.291-6.709-15-15-15h-210c-8.291 0-15 6.709-15 15zm180 45c8.284 0 15 6.714 15 15 0 8.284-6.716 15-15 15s-15-6.716-15-15c0-8.286 6.716-15 15-15zm-60 0c8.284 0 15 6.714 15 15 0 8.284-6.716 15-15 15s-15-6.716-15-15c0-8.286 6.716-15 15-15zm-60 0c8.284 0 15 6.714 15 15 0 8.284-6.716 15-15 15s-15-6.716-15-15c0-8.286 6.716-15 15-15z"/></g></svg>