<svg id="Capa_1" enable-background="new 0 0 512 512" height="512" viewBox="0 0 512 512" width="512" xmlns="http://www.w3.org/2000/svg"><g><path d="m497 197h-136.2l3.393 20.42c2.827 16.904-4.043 33.691-17.944 43.784-14.07 10.265-32.34 11.195-47.139 3.56l-43.11-22.368-43.081 22.354c-15.132 7.755-33.29 6.544-47.153-3.53-13.916-10.107-20.786-26.895-17.959-43.828l3.389-20.392h-136.196c-8.291 0-15 6.709-15 15v270c0 8.291 6.709 15 15 15h482c8.291 0 15-6.709 15-15v-270c0-8.291-6.709-15-15-15zm-65.38 213.354c6.431 5.229 7.397 14.678 2.183 21.108-5.242 6.431-14.678 7.394-21.108 2.183l-82.853-67.313-64.158 52.123c-6.002 5.12-14.37 4.05-19.102.22-.015-.015-.029-.029-.044-.029l-64.382-52.31-82.85 67.31c-6.407 5.193-15.846 4.272-21.108-2.183-5.215-6.431-4.248-15.879 2.183-21.108l77.979-63.353-77.98-63.356c-3.647-2.974-5.537-7.31-5.537-11.675 0-3.311 1.099-6.65 3.354-9.434 5.259-6.416 14.692-7.383 21.108-2.183l156.695 127.325 156.694-127.324c6.445-5.229 15.879-4.219 21.108 2.183 5.215 6.431 4.248 15.879-2.183 21.108l-77.981 63.353z"/><path d="m373.48 98.812c-1.758-5.391-6.416-9.346-12.041-10.195l-63.369-9.521-28.652-56.47c-5.068-10.166-21.768-10.166-26.836 0l-28.652 56.47-63.369 9.521c-5.625.85-10.283 4.805-12.041 10.195-1.758 5.405-.308 11.338 3.735 15.322l45.659 44.971-10.518 63.237c-.938 5.61 1.377 11.25 5.977 14.59 4.585 3.325 10.679 3.779 15.732 1.187l56.895-29.517 56.895 29.517c5.156 2.664 11.241 2.095 15.732-1.187 4.6-3.34 6.914-8.979 5.977-14.59l-10.518-63.237 45.659-44.971c4.043-3.985 5.493-9.917 3.735-15.322z"/></g></svg>