<svg id="Capa_1" enable-background="new 0 0 512 512" height="512" viewBox="0 0 512 512" width="512" xmlns="http://www.w3.org/2000/svg"><g><path d="m497 106h-482c-8.291 0-15 6.709-15 15v270c0 8.291 6.709 15 15 15h482c8.291 0 15-6.709 15-15v-270c0-8.291-6.709-15-15-15zm-65.38 213.354c6.431 5.229 7.397 14.678 2.183 21.108-5.242 6.431-14.678 7.394-21.108 2.183l-82.853-67.313-64.158 52.123c-5.349 4.563-13.429 4.812-19.102.22-.015-.015-.029-.029-.044-.029l-64.382-52.31-82.85 67.31c-6.407 5.193-15.846 4.272-21.108-2.183-5.215-6.431-4.248-15.879 2.183-21.108l77.979-63.353-77.98-63.356c-3.647-2.974-5.537-7.31-5.537-11.675 0-3.311 1.099-6.65 3.354-9.434 5.259-6.416 14.707-7.383 21.108-2.183l156.695 127.325 156.694-127.324c6.445-5.229 15.879-4.233 21.108 2.183 5.215 6.431 4.248 15.879-2.183 21.108l-77.981 63.353z"/></g></svg>