<svg id="Capa_1" enable-background="new 0 0 512 512" height="512" viewBox="0 0 512 512" width="512" xmlns="http://www.w3.org/2000/svg"><g><path d="m76 226c0 109.072 31.538 226 90 226 0 33.091 26.909 60 60 60h165c8.291 0 15-6.709 15-15s-6.709-15-15-15h-165c-16.538 0-30-13.462-30-30h45c8.291 0 15-6.709 15-15v-91c0-8.291-6.709-15-15-15h-62.988c-6.021-22.793-12.012-57.422-12.012-105s5.991-82.207 12.012-105h62.988c8.291 0 15-6.709 15-15v-91c0-8.291-6.709-15-15-15h-75c-58.462 0-90 116.928-90 226z"/><path d="m331 121c-57.891 0-105 47.109-105 105s47.109 105 105 105 105-47.109 105-105-47.109-105-105-105zm31.816 115.605c5.859 5.859 5.859 15.352 0 21.211s-15.352 5.859-21.211 0l-10.605-10.605-10.605 10.605c-5.859 5.859-15.352 5.859-21.211 0s-5.859-15.352 0-21.211l10.605-10.605-10.605-10.605c-5.859-5.859-5.859-15.352 0-21.211s15.352-5.859 21.211 0l10.605 10.605 10.605-10.605c5.859-5.859 15.352-5.859 21.211 0s5.859 15.352 0 21.211l-10.605 10.605z"/></g></svg>