<svg id="Capa_1" enable-background="new 0 0 512 512" height="512" viewBox="0 0 512 512" width="512" xmlns="http://www.w3.org/2000/svg"><g><path d="m451 166.494v108.256c0 4.512-2.036 8.789-5.537 11.646l-91.82 74.606 77.977 63.353c6.431 5.229 7.397 14.678 2.183 21.108-5.242 6.431-14.678 7.394-21.108 2.183l-82.848-67.308-64.178 52.147c-5.499 4.614-13.616 4.744-19.263.044-.015-.015-.044-.029-.059-.044l-63.073-53.058-83.969 68.22c-6.407 5.193-15.846 4.272-21.108-2.183-5.215-6.431-4.248-15.879 2.183-21.108l79.512-64.598-93.442-78.605c-2.805-3.008-5.281-5.546-5.435-11.074-.007-.084-.011-53.016-.013-103.585l-55.904 48.241c-3.238 2.842-5.098 6.944-5.098 11.265v271c0 8.291 6.709 15 15 15h482c8.291 0 15-6.709 15-15v-271c0-4.321-1.86-8.423-5.098-11.265z"/><circle cx="256" cy="226" r="15"/><path d="m91 106v156.606l165.161 138.926 164.839-133.916v-161.616c0-8.286-6.716-15-15-15h-300c-8.284 0-15 6.714-15 15zm165 15c57.891 0 105 47.109 105 105 0 24.814-20.186 45-45 45-11.567 0-22.02-4.508-30-11.704-7.98 7.196-18.433 11.704-30 11.704-24.814 0-45-20.186-45-45s20.186-45 45-45 45 20.186 45 45c0 8.276 6.724 15 15 15s15-6.724 15-15c0-41.353-33.647-75-75-75s-75 33.647-75 75 33.647 75 75 75c6.182 0 12.29-.747 18.164-2.227 8.042-1.934 16.201 2.856 18.208 10.884 2.021 8.042-2.856 16.187-10.884 18.208-8.261 2.08-16.845 3.135-25.488 3.135-57.891 0-105-47.109-105-105s47.109-105 105-105z"/><path d="m246.098 3.735-65.05 57.265h149.905l-65.05-57.265c-5.655-4.98-14.151-4.98-19.805 0z"/></g></svg>