<svg id="Capa_1" enable-background="new 0 0 512 512" height="512" viewBox="0 0 512 512" width="512" xmlns="http://www.w3.org/2000/svg"><g><path d="m151 15c0-8.401-6.599-15-15-15s-15 6.599-15 15v45h30z"/><path d="m391 15c0-8.401-6.599-15-15-15s-15 6.599-15 15v45h30z"/><circle cx="376" cy="135" r="15"/><circle cx="136" cy="135" r="15"/><path d="m0 467c0 24.899 20.099 45 45 45h422c24.901 0 45-20.101 45-45v-227h-512zm346-166h60c8.401 0 15 6.599 15 15 0 8.399-6.599 15-15 15h-60c-8.401 0-15-6.601-15-15 0-8.401 6.599-15 15-15zm0 60h60c8.401 0 15 6.599 15 15 0 8.399-6.599 15-15 15h-60c-8.401 0-15-6.601-15-15 0-8.401 6.599-15 15-15zm0 60h60c8.401 0 15 6.599 15 15 0 8.399-6.599 15-15 15h-60c-8.401 0-15-6.601-15-15 0-8.401 6.599-15 15-15zm-120-120h60c8.401 0 15 6.599 15 15 0 8.399-6.599 15-15 15h-60c-8.401 0-15-6.601-15-15 0-8.401 6.599-15 15-15zm0 60h60c8.401 0 15 6.599 15 15 0 8.399-6.599 15-15 15h-60c-8.401 0-15-6.601-15-15 0-8.401 6.599-15 15-15zm0 60h60c8.401 0 15 6.599 15 15 0 8.399-6.599 15-15 15h-60c-8.401 0-15-6.601-15-15 0-8.401 6.599-15 15-15zm-120-120h60c8.401 0 15 6.599 15 15 0 8.399-6.599 15-15 15h-60c-8.401 0-15-6.601-15-15 0-8.401 6.599-15 15-15zm0 60h60c8.401 0 15 6.599 15 15 0 8.399-6.599 15-15 15h-60c-8.401 0-15-6.601-15-15 0-8.401 6.599-15 15-15zm0 60h60c8.401 0 15 6.599 15 15 0 8.399-6.599 15-15 15h-60c-8.401 0-15-6.601-15-15 0-8.401 6.599-15 15-15z"/><path d="m467 60h-76v32.699c17.401 6 30 22.8 30 42.301 0 24.899-20.099 45-45 45s-45-20.101-45-45c0-19.501 12.599-36.301 30-42.301v-32.699h-210v32.699c17.401 6 30 22.8 30 42.301 0 24.899-20.099 45-45 45s-45-20.101-45-45c0-19.501 12.599-36.301 30-42.301v-32.699h-76c-24.901 0-45 20.099-45 45v105h512v-105c0-24.901-20.099-45-45-45z"/></g></svg>