<svg id="Capa_1" enable-background="new 0 0 512 512" height="512" viewBox="0 0 512 512" width="512" xmlns="http://www.w3.org/2000/svg"><g><path d="m61 421c-8.401 0-15 6.599-15 15 0 8.399 6.599 15 15 15h15v-30z"/><path d="m61 331c-8.401 0-15 6.599-15 15 0 8.399 6.599 15 15 15h15v-30z"/><path d="m61 241c-8.401 0-15 6.599-15 15 0 8.399 6.599 15 15 15h15v-30z"/><path d="m61 151c-8.401 0-15 6.599-15 15 0 8.399 6.599 15 15 15h15v-30z"/><path d="m61 61c-8.401 0-15 6.599-15 15 0 8.399 6.599 15 15 15h15v-30z"/><path d="m421 0h-330c-8.401 0-15 6.599-15 15v46h45c8.401 0 15 6.599 15 15 0 8.399-6.599 15-15 15h-45v60h45c8.401 0 15 6.599 15 15 0 8.399-6.599 15-15 15h-45v60h45c8.401 0 15 6.599 15 15 0 8.399-6.599 15-15 15h-45v60h45c8.401 0 15 6.599 15 15 0 8.399-6.599 15-15 15h-45v60h45c8.401 0 15 6.599 15 15 0 8.399-6.599 15-15 15h-45v46c0 8.399 6.599 15 15 15h255v-256c0-8.401 6.599-15 15-15h60c24.901 0 45-20.101 45-45v-151c0-24.901-20.099-45-45-45zm-15 166c0 8.399-6.599 15-15 15h-210c-8.401 0-15-6.601-15-15v-90c0-8.401 6.599-15 15-15h210c8.401 0 15 6.599 15 15z"/><path d="m196 91h180v60h-180z"/><path d="m376 512h15c24.853 0 45-21.147 45-46v-15h-60z"/><path d="m376 271h60v60h-60z"/><path d="m376 361h60v60h-60z"/></g></svg>