<svg id="Capa_1" enable-background="new 0 0 512 512" height="512" viewBox="0 0 512 512" width="512" xmlns="http://www.w3.org/2000/svg"><g><path d="m421 174.789v-113.789c0-8.291-6.709-15-15-15h-60c-8.291 0-15 6.709-15 15v23.789l-64.395-64.395c-5.859-5.859-15.352-5.859-21.211 0-73.178 73.178-170.726 169.726-241 240-5.859 5.859-5.859 15.352 0 21.211s15.352 5.859 21.211 0l34.395-34.394v233.789c0 8.291 6.709 15 15 15h121c8.291 0 15-6.709 15-15v-135h90v135c0 8.291 6.709 15 15 15h121c8.291 0 15-6.709 15-15v-233.789l34.395 34.395c5.859 5.859 15.352 5.859 21.211 0s5.859-15.352 0-21.211c-4.514-4.514-81.649-80.649-86.606-85.606zm-165 81.211c-24.814 0-45-20.186-45-45s20.186-45 45-45 45 20.186 45 45-20.186 45-45 45z"/><circle cx="256" cy="211" r="15"/></g></svg>