<svg id="Capa_1" enable-background="new 0 0 512 512" height="512" viewBox="0 0 512 512" width="512" xmlns="http://www.w3.org/2000/svg"><g><circle cx="256" cy="165" r="75"/><path d="m256 0c-90.981 0-165 74.019-165 165 0 85.919 66.031 156.627 150 164.24v33.523c-17.422 6.213-30 22.707-30 42.237v62c0 24.814 20.186 45 45 45s45-20.186 45-45v-62c0-19.53-12.578-36.024-30-42.237v-33.523c83.969-7.614 150-78.322 150-164.24 0-90.981-74.019-165-165-165zm0 270c-57.891 0-105-47.109-105-105s47.109-105 105-105 105 47.109 105 105-47.109 105-105 105z"/></g></svg>