<svg id="Capa_1" enable-background="new 0 0 512 512" height="512" viewBox="0 0 512 512" width="512" xmlns="http://www.w3.org/2000/svg"><g><path d="m136 391c-19.556 0-36.24 12.539-42.437 30h84.873c-6.196-17.461-22.88-30-42.436-30z"/><circle cx="136" cy="316" r="15"/><path d="m467 211h-422c-24.814 0-45 20.186-45 45v210c0 24.814 20.186 46 45 46h422c24.814 0 45-21.186 45-46v-210c0-24.814-20.186-45-45-45zm-181 90h120c8.291 0 15 6.709 15 15s-6.709 15-15 15h-120c-8.291 0-15-6.709-15-15s6.709-15 15-15zm-90 150h-120c-8.291 0-15-6.709-15-15 0-41.353 33.647-75 75-75-24.814 0-45-20.186-45-45s20.186-45 45-45 45 20.186 45 45-20.186 45-45 45c41.353 0 75 33.647 75 75 0 8.291-6.709 15-15 15zm240 0h-180c-8.291 0-15-6.709-15-15s6.709-15 15-15h180c8.291 0 16 6.709 16 15s-7.709 15-16 15zm0-60h-180c-8.291 0-15-6.709-15-15s6.709-15 15-15h180c8.291 0 16 6.709 16 15s-7.709 15-16 15z"/><path d="m136 30c57.891 0 105 47.109 105 105v16h-15c-19.53 0-36.024 12.578-42.237 30h144.474c-6.213-17.422-22.707-30-42.237-30h-15v-16c0-57.891 47.109-105 105-105 8.291 0 15-6.709 15-15s-6.709-15-15-15c-52.566 0-97.714 30.494-120 74.451-22.286-43.957-67.434-74.451-120-74.451-8.291 0-15 6.709-15 15s6.709 15 15 15z"/></g></svg>