<svg id="Capa_1" enable-background="new 0 0 512 512" height="512" viewBox="0 0 512 512" width="512" xmlns="http://www.w3.org/2000/svg"><g><path d="m352.87 78.007c-6.255-5.361-15.718-4.673-21.152 1.611-5.391 6.284-4.673 15.747 1.611 21.152 36.65 31.48 57.671 77.125 57.671 125.23s-21.021 93.75-57.671 125.229c-6.284 5.405-7.002 14.868-1.611 21.152 5.444 6.328 14.919 6.973 21.152 1.611 43.301-37.177 68.13-91.127 68.13-147.992s-24.829-110.815-68.13-147.993z"/><path d="m294.291 305.688c-6.284 5.391-7.002 14.868-1.611 21.152 5.444 6.328 14.919 6.973 21.152 1.611 29.971-25.737 47.168-63.076 47.168-102.451s-17.197-76.714-47.168-102.451c-6.255-5.391-15.732-4.688-21.152 1.611-5.391 6.284-4.673 15.762 1.611 21.152 23.335 20.025 36.709 49.073 36.709 79.688s-13.374 59.663-36.709 79.688z"/><path d="m253.656 170.688c-5.391 6.27-4.673 15.747 1.611 21.152 9.991 8.584 15.733 21.05 15.733 34.16s-5.742 25.576-15.732 34.16c-6.284 5.405-7.002 14.883-1.611 21.152 5.444 6.328 14.919 6.973 21.152 1.611 16.64-14.311 26.191-35.053 26.191-56.923s-9.551-42.612-26.191-56.924c-6.27-5.39-15.718-4.658-21.153 1.612z"/><path d="m406 482h-165c-16.538 0-30-13.462-30-30h45c8.291 0 15-6.709 15-15v-91c0-8.291-6.709-15-15-15h-62.988c-6.021-22.793-12.012-57.422-12.012-105s5.991-82.207 12.012-105h62.988c8.291 0 15-6.709 15-15v-91c0-8.291-6.709-15-15-15h-75c-58.462 0-90 116.928-90 226s31.538 226 90 226c0 33.091 26.909 60 60 60h165c8.291 0 15-6.709 15-15s-6.709-15-15-15z"/></g></svg>