<svg xmlns="http://www.w3.org/2000/svg" viewBox="0 0 291.11 121"><defs><style>.a{fill:#a08a84;}.b{fill:#606c50;}.c{fill:#b6869d;}</style></defs><title>body_balance_logo</title><path class="a" d="M181.65,107.86v-6.6h2.48a6.14,6.14,0,0,1,1,.07,1.83,1.83,0,0,1,.81.31,1.57,1.57,0,0,1,.53.63,2,2,0,0,1,.2.9,2.07,2.07,0,0,1-.53,1.43,2.59,2.59,0,0,1-1.94.58h-1.69v2.68Zm.87-3.46h1.71a1.82,1.82,0,0,0,1.2-.31,1.15,1.15,0,0,0,.35-.89,1.19,1.19,0,0,0-.21-.71,1,1,0,0,0-.55-.39,3.65,3.65,0,0,0-.81-.06h-1.69Z"/><path class="a" d="M190.71,107.86v-6.6h.87v6.6Z"/><path class="a" d="M195.85,107.86v-6.6h.88v5.83H200v.77Z"/><path class="a" d="M203.06,107.86l2.53-6.6h.94l2.7,6.6h-1l-.77-2h-2.76l-.72,2Zm1.9-2.71h2.24l-.69-1.82c-.21-.56-.37-1-.47-1.37a8.46,8.46,0,0,1-.35,1.26Z"/><path class="a" d="M213.69,107.86V102h-2.17v-.78h5.23V102h-2.18v5.82Z"/><path class="a" d="M220.43,107.86v-6.6h4.77V102h-3.9v2H225v.77H221.3v2.25h4.06v.77Z"/><path class="a" d="M229,105.74l.82-.07a1.81,1.81,0,0,0,.28.82,1.46,1.46,0,0,0,.66.51,2.53,2.53,0,0,0,1,.19,2.68,2.68,0,0,0,.89-.14,1.31,1.31,0,0,0,.57-.41,1,1,0,0,0,.18-.57.88.88,0,0,0-.18-.54,1.44,1.44,0,0,0-.59-.39,10.3,10.3,0,0,0-1.18-.32,6.25,6.25,0,0,1-1.27-.41,1.82,1.82,0,0,1-.71-.62,1.53,1.53,0,0,1-.23-.82,1.67,1.67,0,0,1,.29-.93,1.75,1.75,0,0,1,.82-.66,3.19,3.19,0,0,1,1.22-.23,3.23,3.23,0,0,1,1.29.24,1.92,1.92,0,0,1,.86.69,2.09,2.09,0,0,1,.33,1l-.84.07a1.37,1.37,0,0,0-.46-1,1.79,1.79,0,0,0-1.15-.32,1.85,1.85,0,0,0-1.15.29.9.9,0,0,0-.37.7.77.77,0,0,0,.26.59,3.56,3.56,0,0,0,1.32.47,8.54,8.54,0,0,1,1.46.42,2,2,0,0,1,.85.67,1.67,1.67,0,0,1,.27.94,1.79,1.79,0,0,1-.3,1,2,2,0,0,1-.86.73,3.08,3.08,0,0,1-1.28.26,3.91,3.91,0,0,1-1.5-.26,2.17,2.17,0,0,1-1-.79A2.2,2.2,0,0,1,229,105.74Z"/><path class="a" d="M243.27,105.74l.83-.07a1.94,1.94,0,0,0,.27.82,1.46,1.46,0,0,0,.66.51,2.54,2.54,0,0,0,1,.19,2.66,2.66,0,0,0,.88-.14,1.31,1.31,0,0,0,.57-.41,1,1,0,0,0,.19-.57.88.88,0,0,0-.18-.54,1.42,1.42,0,0,0-.6-.39,10.56,10.56,0,0,0-1.17-.32,6.4,6.4,0,0,1-1.28-.41,1.78,1.78,0,0,1-.7-.62,1.45,1.45,0,0,1-.23-.82,1.66,1.66,0,0,1,.28-.93,1.78,1.78,0,0,1,.83-.66,3.14,3.14,0,0,1,1.21-.23,3.23,3.23,0,0,1,1.29.24,2,2,0,0,1,.87.69,2.08,2.08,0,0,1,.32,1l-.84.07a1.36,1.36,0,0,0-.45-1,1.81,1.81,0,0,0-1.15-.32,1.88,1.88,0,0,0-1.16.29.89.89,0,0,0-.36.7.76.76,0,0,0,.25.59,3.56,3.56,0,0,0,1.32.47,8.54,8.54,0,0,1,1.46.42,2,2,0,0,1,.85.67,1.6,1.6,0,0,1,.28.94,1.79,1.79,0,0,1-.3,1,2,2,0,0,1-.87.73,3.07,3.07,0,0,1-1.27.26,3.84,3.84,0,0,1-1.5-.26,2.12,2.12,0,0,1-1-.79A2.29,2.29,0,0,1,243.27,105.74Z"/><path class="a" d="M254.17,107.86V102H252v-.78h5.23V102H255v5.82Z"/><path class="a" d="M265.22,101.26h.87v3.82a4.51,4.51,0,0,1-.23,1.58,1.91,1.91,0,0,1-.81,1,2.81,2.81,0,0,1-1.54.37,3.23,3.23,0,0,1-1.52-.32,1.86,1.86,0,0,1-.84-.93,4.33,4.33,0,0,1-.25-1.65v-3.82h.87v3.81a3.87,3.87,0,0,0,.16,1.27,1.25,1.25,0,0,0,.55.63,1.88,1.88,0,0,0,.95.22,1.84,1.84,0,0,0,1.38-.44,2.53,2.53,0,0,0,.41-1.68Z"/><path class="a" d="M270.31,107.86v-6.6h2.27a5.66,5.66,0,0,1,1.18.1,2.26,2.26,0,0,1,1,.47,2.86,2.86,0,0,1,.78,1.13,4.93,4.93,0,0,1,.08,2.9,3.3,3.3,0,0,1-.45,1,2.14,2.14,0,0,1-.6.6,2.27,2.27,0,0,1-.79.33,4.26,4.26,0,0,1-1.06.11Zm.87-.77h1.41a3.15,3.15,0,0,0,1-.13,1.48,1.48,0,0,0,.59-.34,1.92,1.92,0,0,0,.48-.83,4,4,0,0,0,.18-1.27,3.17,3.17,0,0,0-.34-1.6,1.71,1.71,0,0,0-.83-.74,3.37,3.37,0,0,0-1.13-.14h-1.39Z"/><path class="a" d="M279.88,107.86v-6.6h.88v6.6Z"/><path class="a" d="M284.8,104.65a3.58,3.58,0,0,1,.88-2.57,3,3,0,0,1,2.28-.93,3.14,3.14,0,0,1,1.64.43,2.87,2.87,0,0,1,1.12,1.22,4.18,4.18,0,0,1,0,3.57,2.73,2.73,0,0,1-1.15,1.2,3.26,3.26,0,0,1-1.6.41,3.11,3.11,0,0,1-1.66-.45,3,3,0,0,1-1.12-1.23A3.76,3.76,0,0,1,284.8,104.65Zm.9,0a2.61,2.61,0,0,0,.64,1.88,2.24,2.24,0,0,0,3.23,0,2.85,2.85,0,0,0,.64-2,3.26,3.26,0,0,0-.28-1.41,2.06,2.06,0,0,0-.79-.93,2.16,2.16,0,0,0-1.18-.33,2.19,2.19,0,0,0-1.59.64A2.81,2.81,0,0,0,285.7,104.66Z"/><path class="b" d="M2.92,61.6H0V59.8H13.24c4.58,0,8,3.05,8,7.86a7.17,7.17,0,0,1-4.09,6.87v.09c3.1.85,5.35,3.9,5.35,7.94,0,5.25-3.73,8.67-8.76,8.67H5.52c-1.84,0-2.6-.77-2.6-2.61ZM13.2,73.81a5.75,5.75,0,0,0,6-6.15c0-3.68-2.33-6.06-6-6.06H4.85V73.81ZM5.84,89.43h7.67c4.22,0,6.92-2.6,6.92-6.87a6.6,6.6,0,0,0-7-7H4.85V88.44A.88.88,0,0,0,5.84,89.43Z"/><path class="b" d="M38,68.24A11.55,11.55,0,0,1,49.65,79.87a11.63,11.63,0,1,1-23.25,0A11.54,11.54,0,0,1,38,68.24Zm0,21.68a9.76,9.76,0,0,0,9.66-10,9.66,9.66,0,1,0-19.31,0A9.76,9.76,0,0,0,38,89.92Z"/><path class="b" d="M63.39,68.24a8.43,8.43,0,0,1,7.67,4.85h.09s-.09-.81-.09-1.84V62.49a.87.87,0,0,0-1-1H68.15V59.8h2.2c1.84,0,2.6.76,2.6,2.6V88.53a.88.88,0,0,0,1,1h1.93v1.71h-2.2c-1.84,0-2.61-.77-2.61-2.61a14.11,14.11,0,0,1,.09-1.7h-.09a8.36,8.36,0,0,1-8,4.84c-6,0-9.7-4.8-9.7-11.76C53.33,72.86,57.51,68.24,63.39,68.24Zm-.27,21.68c4.13,0,8-2.91,8-10,0-5-2.56-9.92-7.81-9.92-4.4,0-8,3.68-8,10C55.31,86.06,58.54,89.92,63.12,89.92Z"/><path class="b" d="M77.26,98.54l1.12-1.43a4.73,4.73,0,0,0,3.37,1.75c2.15,0,3.5-1.93,4.4-4l1.61-3.73L79.64,71.56a1.56,1.56,0,0,0-1.71-1.07h-.36V68.78h.32c2.24,0,2.78.4,3.68,2.6l6.37,15.31c.45,1.08.77,2.11.77,2.11h.09s.31-1,.76-2.11l6.33-15.31c.9-2.2,1.44-2.6,3.68-2.6h.32v1.71h-.36a1.56,1.56,0,0,0-1.71,1.07L87.45,96.48c-1,2.33-2.87,4.17-5.7,4.17A5.87,5.87,0,0,1,77.26,98.54Z"/><path class="b" d="M139.51,62.45h-2.92V59.67H150c4.94,0,8.53,3,8.53,7.94a7.3,7.3,0,0,1-4,6.87v.09c3.18.9,5.25,4,5.25,7.81,0,5.61-4.13,8.85-9.43,8.85h-8.13c-1.93,0-2.73-.81-2.73-2.74ZM150,73.36a5.16,5.16,0,0,0,5.3-5.52,5,5,0,0,0-5.39-5.39h-7.27V73.36Zm-6.37,15.08h6.73c3.82,0,6.2-2.38,6.2-6.15a5.9,5.9,0,0,0-6.2-6.24h-7.72V87.46A.88.88,0,0,0,143.64,88.44Z"/><path class="b" d="M177,77.31h1.26V77c0-4.66-1.66-6.33-5.79-6.33-1.17,0-4.4.32-4.4,2v1.44h-3V71.92c0-3.14,5.39-3.81,7.32-3.81,7.19,0,8.89,3.77,8.89,8.66V87.59a.88.88,0,0,0,1,1h1.88v2.65h-3.09c-1.93,0-2.7-.86-2.7-2.65,0-1,.05-1.71.05-1.71h-.09a8.16,8.16,0,0,1-7.54,4.89c-3.77,0-7.64-2.19-7.64-6.59C163.16,77.53,173.09,77.31,177,77.31Zm-5.66,11.9c4.36,0,6.92-4.49,6.92-8.44v-1H177c-3.55,0-10.69.14-10.69,5.17C166.26,87,168,89.21,171.33,89.21Z"/><path class="b" d="M188.17,63.3a.88.88,0,0,0-1-1H185.3V59.67h3.18c1.93,0,2.74.8,2.74,2.73V87.59a.88.88,0,0,0,1,1h1.89v2.65h-3.19c-1.93,0-2.74-.81-2.74-2.74Z"/><path class="b" d="M210.39,77.31h1.26V77c0-4.66-1.66-6.33-5.79-6.33-1.17,0-4.4.32-4.4,2v1.44h-3V71.92c0-3.14,5.39-3.81,7.32-3.81,7.19,0,8.89,3.77,8.89,8.66V87.59a.88.88,0,0,0,1,1h1.88v2.65h-3.09c-1.93,0-2.7-.86-2.7-2.65,0-1,.05-1.71.05-1.71h-.09a8.16,8.16,0,0,1-7.54,4.89c-3.78,0-7.64-2.19-7.64-6.59C196.56,77.53,206.49,77.31,210.39,77.31Zm-5.66,11.9c4.36,0,6.92-4.49,6.92-8.44v-1h-1.3c-3.55,0-10.69.14-10.69,5.17C199.66,87,201.37,89.21,204.73,89.21Z"/><path class="b" d="M222.2,72.28a.88.88,0,0,0-1-1h-1.89V68.64h3.1c1.93,0,2.74.81,2.74,2.52v1a14.56,14.56,0,0,1-.09,1.62h.09a9.71,9.71,0,0,1,9-5.7c5.62,0,7.59,3.18,7.59,8.75V87.59a.88.88,0,0,0,1,1h1.88v2.65h-3.18c-1.93,0-2.74-.81-2.74-2.74V77.67c0-3.55-.59-6.69-4.94-6.69a8.53,8.53,0,0,0-8.17,6.37,11.22,11.22,0,0,0-.36,3.06V91.23H222.2Z"/><path class="b" d="M259,68.11c2.6,0,8,1.07,8,4.8v2h-2.83v-1.3c0-1.89-3.28-2.79-5.21-2.79-4.85,0-8.75,3.64-8.75,9.12a8.66,8.66,0,0,0,8.88,9,10,10,0,0,0,7.28-3.19l1.39,2.29A11.92,11.92,0,0,1,259,91.76,11.83,11.83,0,1,1,259,68.11Z"/><path class="b" d="M281.68,68.11c6.24,0,9.43,4.8,9.43,10.41,0,.58-.09,1.35-.09,1.53H273.69c.09,5.74,4.08,8.93,8.75,8.93a11.28,11.28,0,0,0,6.87-2.69l1.39,2.33a13.69,13.69,0,0,1-8.35,3.14A11.44,11.44,0,0,1,270.5,80C270.5,72.55,275.57,68.11,281.68,68.11ZM288,77.62c-.18-4.71-3.05-7-6.42-7-3.77,0-7,2.47-7.77,7Z"/><path class="c" d="M112.81,0a29,29,0,0,0-5.64,16.4c0,6.54,2.53,12.15,3.62,14.54,3.29,7.24,7.82,11.69,7.31,17.83a11.47,11.47,0,0,1-.84,3.53c-1.57,3.73-4.76,5.39-6,6.31-5.46,4.15-3.09,14.83-1.93,21.1.87,4.71,1.67,4.87,3.19,12.36,1.2,5.87,1.61,10.19,1.69,10.18a100.31,100.31,0,0,0-2.36-22.7A58.67,58.67,0,0,1,111,67.77a13.46,13.46,0,0,1,1.93-7.56c.76-1.17,1-1,2.36-2.61s4.46-5.23,4.62-9.67a12.14,12.14,0,0,0-.42-3.36c-1-4.48-3.12-7-4.88-9.84a38.48,38.48,0,0,1-4.79-12.11,34.31,34.31,0,0,1-.51-12.45A31.18,31.18,0,0,1,112.81,0Z"/><path class="c" d="M117,2.94c-.1,3.74,0,6.79,1.07,9,2.12,4.26,2.73,3.86,4.08,7.74A32,32,0,0,1,124,28.25c.24,2.42.1,3.58.42,4.46,1.07,3,2.89,4.42,3.29,6.91.35,2.18-1,3.56-2.11,6.08-1.47,3.21-1.46,5.69-1.43,11.56,0,5.27.5,6.06.46,9.8,0,4.79-1.46,10.56-2.36,14.17-1,4-1.3,4.92-4,11.39,0,0-1.73,4.83-4.33,13.92a20.63,20.63,0,0,0-1.09,7.48,19.44,19.44,0,0,0,1.85,7,32.07,32.07,0,0,1-.33-5.08,22,22,0,0,1,1.17-7.2c1.62-5.75,3.09-10.93,4-13.07,3.51-8.81,6.75-17,7.63-26.4.53-5.68-1.24-7.45-1.41-14.85a15.9,15.9,0,0,1,.76-6c1.28-3.63,3.16-4.09,3.53-6.56.45-3-2.62-4.41-3.83-9.21-1.29-5.17.48-5.63-1.22-11.73-.86-3.1-3.12-4.55-5.25-9.46C118,7.66,117.72,4.89,117,2.94Z"/><path class="c" d="M116.17,19.42c-2.47.41-4,3.21-4.29,5.39-.54,4.07,3,8.37,5.47,8.15,1.42-.12,3-1.77,2.77-2.69-.1-.41-.59-.77-.84-.67s0,.95-.42,1.51a2.16,2.16,0,0,1-2.19.51c-2.22-.68-2.35-5.32-2.35-5.55,0-1.42.22-4.77,1.68-5.13s3.27,2.35,4,3.95.73,3.8,1,6.73c.11,1.39.15,1.95.5,2.43.75,1,2.71.7,2.73.68a3.39,3.39,0,0,1-2-2.28c-.65-2.24.62-3.14,0-7.06-.15-1-.53-3.58-2.6-5A4.88,4.88,0,0,0,116.17,19.42Z"/><path class="b" d="M81.47,67.94h0c0-.12,0-.25.07-.37a38.07,38.07,0,0,1,31.3-30.21L110.77,34A40.69,40.69,0,0,0,78.35,66.5c0,.25,0,.17-.07.42A4.18,4.18,0,0,1,81.47,67.94Z"/><path class="b" d="M87.64,98.73a7.48,7.48,0,0,1-1.1,1.45c.23.29.28.35.52.63a40.58,40.58,0,0,0,24.28,14.09,1.69,1.69,0,0,0,0-.23v-.25A37.63,37.63,0,0,1,88,99.28C87.83,99,87.83,99,87.64,98.73Z"/><path class="b" d="M152.14,58.21a8.55,8.55,0,0,1,4.16,1.46,15.8,15.8,0,0,0-.85-2,42.75,42.75,0,0,0-21-21.34c-1.42-.65-4.46-1.67-5.94-2.15.11,1.3,1.55,2.43,2.25,4.58A37.46,37.46,0,0,1,151.42,56.8C151.79,57.5,151.81,57.48,152.14,58.21Z"/><path class="b" d="M152.61,92.56a1.76,1.76,0,0,0-.09.2,37.71,37.71,0,0,1-33.63,22.34c-1.13,0-2.25,0-3.37-.09,0,.15,0,.29-.07.42,1.12.07,2.25.1,3.4.07a40.88,40.88,0,0,0,36-23,3.13,3.13,0,0,0,.15-.32A13.68,13.68,0,0,1,152.61,92.56Z"/></svg>