<?xml version="1.0" ?><svg id="Layer_1" style="enable-background:new 0 0 512 512;" version="1.1" viewBox="0 0 512 512" xml:space="preserve" xmlns="http://www.w3.org/2000/svg" xmlns:xlink="http://www.w3.org/1999/xlink"><g><path d="M256,131c-69,0-125,56-125,125s56,125,125,125s125-56,125-125S325,131,256,131z M266.3,262.8l-43,44.6   c-2,2.1-4.7,3.2-7.4,3.2c-2.4,0-4.8-0.9-6.8-2.6c-4.1-3.7-4.3-10.1-0.6-14.1l33.9-39.9c1-1.2,1.6-2.7,1.7-4.3l2.7-72.4   c0-5.5,4.5-10,10-10c5.5,0,10,4.5,10,10l2.1,78.7C268.9,258.5,268,260.9,266.3,262.8z"/></g></svg>