<?xml version="1.0" ?><svg enable-background="new 0 0 64 64" width="100%" height="100%" version="1.1" viewBox="0 0 64 64"
 xml:space="preserve" xmlns="http://www.w3.org/2000/svg" xmlns:xlink="http://www.w3.org/1999/xlink">
    <g id="_x31_-Call" />
    <g id="_x32_-24_Hours_Call" />
    <g id="_x33_-Sending_Call" />
    <g id="_x34_-Incoming_Call" />
    <g id="_x35_-Talk_On_Phone" />
    <g id="_x36_-Block_Call" />
    <g id="_x37_-Hold_Call" />
    <g id="_x38_-Mute_Call" />
    <g id="_x39_-Phone_Book" />
    <g id="_x31_0-Add_Contact" />
    <g id="_x31_1-Delete_Contact" />
    <g id="_x31_2-Mail" />
    <g id="_x31_3-Message_Read" />
    <g id="_x31_4-Email">
        <g>
            <polygon
                points="55.5849609,49.3529663 55.5864868,49.3546143 56,49.6526489 56,26.5866089 38.4038086,36.9716187   " />
            <path
                d="M12.5499878,17.4702148h-0.4299927C9.8499756,17.4702148,8,19.3201904,8,21.59021v2.6699829l4.5499878,2.6799927    V17.4702148z" />
            <path
                d="M51.8800049,17.4702148h-0.4299927v9.4699707L56,24.2601929V21.59021    C56,19.3201904,54.1500244,17.4702148,51.8800049,17.4702148z" />
            <path
                d="M54.4150391,50.9760132L33.7539063,36.086853c-1.0488281-0.7558594-2.4589844-0.7558594-3.5078125,0L9.5844727,50.9760132    l-0.0002441,0.0001221L8,52.1177979v1.4719849c0,0.5522461,0.4477539,1,1,1h46c0.5527344,0,1-0.4477539,1-1v-1.4719238    l-1.5834351-1.1411743C54.4160767,50.9763184,54.4155273,50.9763794,54.4150391,50.9760132z" />
            <polygon
                points="14.5393677,44.9400024 25.5965576,36.9719849 8,26.586853 8,49.6523438 14.5385742,44.9403687   " />
            <path
                d="M27.7600098,18.6002197c-0.0800171-0.0400391-0.1900024-0.0599976-0.3300171-0.0599976    c-0.2799683,0-0.6699829,0.0799561-1.0800171,0.2799683c-0.8299561,0.4100342-1.4400024,1.2200317-1.539978,2.0700073    c-0.0900269,0.6900024,0.2700195,1.7999878,0.9899902,1.9000244c0.1699829,0.0199585,0.4400024,0.0199585,0.7900391-0.3099976    c0.8599854-0.8000488,1.3599854-2.6800537,1.3399658-3.6600342    C27.8699951,18.6502075,27.7999878,18.6101685,27.7600098,18.6002197z" />
            <path
                d="M29.0800171,34.4602051c1.75-1.2600098,4.0899658-1.2600098,5.8399658,0l1.710022,1.2299805l12.8200073-7.5599976    V13.4102173c0-0.5599976-0.4400024-1-1-1h-8.0700073v-2c0-0.5500488-0.4500122-1-1-1H15.5499878c-0.5499878,0-1,0.4499512-1,1    V28.130188l12.8200073,7.5599976L29.0800171,34.4602051z M40.5599976,17.5101929h4.2700195c0.5599976,0,1,0.4500122,1,1    c0,0.5599976-0.4400024,1-1,1h-4.2700195c-0.5499878,0-1-0.4400024-1-1    C39.5599976,17.9602051,40.0100098,17.5101929,40.5599976,17.5101929z M40.5599976,21.7702026h4.2700195    c0.5599976,0,1,0.4500122,1,1s-0.4400024,1-1,1h-4.2700195c-0.5499878,0-1-0.4500122-1-1    S40.0100098,21.7702026,40.5599976,21.7702026z M23.0700073,27.130188    c-1.7299805-0.9799805-2.9799805-2.5800171-3.5100098-4.4899902c-0.5200195-1.9199829-0.2799683-3.9199829,0.7000122-5.6500244    c0.9799805-1.7299805,2.5700073-2.9699707,4.4899902-3.5c3.9099731-1.0899658,7.9699707,1.1800537,9.1099854,5.0500488    c0.0200195,0.039978,0.0300293,0.0799561,0.0400391,0.1300049c0.0099487,0.0199585,0.0199585,0.039978,0.0199585,0.0599976    c0.0100098,0.0299683,0.0100098,0.0499878,0.0100098,0.0799561c0.3599854,1.8200073-0.2000122,3.6300049-1.4899902,4.710022    c-0.6300049,0.5200195-1.4099731,0.7299805-2.1300049,0.5700073c-0.6500244-0.1400146-1.1900024-0.5599976-1.5299683-1.1799927    c-0.2400513,0.3899536-0.5100098,0.7399902-0.8300171,1.0299683c-0.6000366,0.5700073-1.2999878,0.8599854-2.0300293,0.8599854    c-0.1300049,0-0.2600098-0.0099487-0.3899536-0.0299683c-1.8900146-0.2600098-2.9200439-2.3400269-2.710022-4.1199951    c0.1900024-1.5300293,1.210022-2.9199829,2.6599731-3.6300049c0.4200439-0.2000122,1.8800049-0.8200073,3.1199951-0.2399902    c0.460022,0.2099609,1.0400391,0.6599731,1.2900391,1.6099854c0.0100098,0.039978,0.0199585,0.0700073,0.0199585,0.1099854    c0.0100098,0.0400391,0.0100098,0.0800171,0.0100098,0.1099854c0.0499878,0.7600098,0.1100464,1.1600342,0.2600098,1.9700317    l0.0300293,0.1699829c0.0799561,0.4299927,0.1499634,0.8300171,0.289978,1.1400146    c0.0499878,0.0999756,0.1300049,0.2199707,0.2399902,0.25c0.1199951,0.0200195,0.2700195-0.0300293,0.4199829-0.1599731    c0.8600464-0.7200317,0.9800415-1.9000244,0.8099976-2.7700195c-0.7999878-2.8900146-3.789978-4.6000366-6.6899414-3.7999878    C23.8800049,15.8001709,22.7199707,16.7102051,22,17.9702148c-0.710022,1.2699585-0.9000244,2.7299805-0.5100098,4.1300049    c0.3900146,1.3999634,1.2999878,2.5700073,2.5599976,3.2799683c1.2700195,0.7200317,2.7300415,0.9000244,4.1300049,0.5200195    c0.3800049-0.1099854,0.75-0.2600098,1.1000366-0.4400024c0.4799805-0.25,1.0899658-0.0700073,1.3499756,0.4199829    c0.25,0.4899902,0.0700073,1.0900269-0.4199829,1.3500366c-0.4800415,0.25-0.9800415,0.4499512-1.4900513,0.5899658    c-0.6599731,0.1900024-1.3299561,0.2800293-2,0.2800293C25.4500122,28.1002197,24.2000122,27.7702026,23.0700073,27.130188z" />
        </g>
    </g>
    <g id="_x31_5-Send_Mail" />
    <g id="_x31_6-Important_Mail" />
    <g id="_x31_7-Mail_Chain" />
    <g id="_x31_8-Messaging" />
    <g id="_x31_9-Sending" />
    <g id="_x32_0-Chat" />
    <g id="_x32_1-Mail_Attachment" />
    <g id="_x32_2-Mobile_Link" />
    <g id="_x32_3-Smartphone" />
    <g id="_x32_4-Social_Media" />
    <g id="_x32_5-Support" />
    <g id="_x32_6-Links" />
    <g id="_x32_7-Phone" />
    <g id="_x32_8-Phone-2" />
    <g id="_x32_9-Map" />
    <g id="_x33_0-Location" />
    <g id="_x33_1-Write" />
    <g id="_x33_2-World" />
    <g id="_x33_3-Home" />
    <g id="_x33_4-Calendar" />
    <g id="_x33_5-Website" />
    <g id="_x33_6-Info" />
    <g id="_x33_7-Bull_Horn" />
    <g id="_x33_8-Profile" />
    <g id="_x33_9-Quote__x26__Answer" />
    <g id="_x34_0-Notification" />
    <g id="_x34_1-Share" />
    <g id="_x34_2-Time" />
</svg>